<svg xmlns="http://www.w3.org/2000/svg" xmlns:xlink="http://www.w3.org/1999/xlink" width="332.268" height="137.563" viewBox="0 0 332.268 137.563"><defs><style>.a{fill:url(#a);}.b{fill:url(#b);}.c{fill:url(#c);}.d{fill:url(#d);}.e{fill:url(#e);}.f{fill:url(#f);}.g{fill:url(#g);}.h{fill:url(#h);}.i{fill:url(#i);}.j{fill:url(#j);}.k{fill:url(#k);}.l{fill:url(#l);}.m{fill:url(#m);}.n{fill:url(#n);}.o{fill:url(#o);}.p{fill:url(#p);}.q{fill:url(#q);}.r{fill:url(#r);}.s{fill:url(#s);}.t{fill:url(#t);}.u{fill:url(#u);}.v{fill:url(#v);}.w{fill:url(#w);}.x{fill:url(#x);}.y{fill:url(#y);}.z{fill:url(#z);}.aa{fill:url(#aa);}.ab{fill:url(#ab);}.ac{fill:url(#ac);}.ad{fill:url(#ad);}.ae{fill:url(#ae);}.af{fill:url(#af);}.ag{fill:url(#ag);}.ah{fill:url(#ah);}.ai{fill:url(#ai);}.aj{fill:url(#aj);}.ak{fill:url(#ak);}.al{fill:url(#al);}.am{fill:url(#am);}.an{fill:url(#an);}.ao{fill:url(#ao);}.ap{fill:url(#ap);}.aq{fill:url(#aq);}.ar{fill:url(#ar);}.as{fill:url(#as);}.at{fill:url(#at);}.au{fill:url(#au);}.av{fill:url(#av);}.aw{fill:url(#aw);}.ax{fill:url(#ax);}.ay{fill:url(#ay);}.az{fill:url(#az);}.ba{fill:url(#ba);}.bb{fill:url(#bb);}.bc{fill:url(#bc);}.bd{fill:url(#bd);}.be{fill:url(#be);}.bf{fill:url(#bf);}.bg{fill:url(#bg);}.bh{fill:url(#bh);}.bi{fill:url(#bi);}.bj{fill:url(#bj);}.bk{fill:url(#bk);}.bl{fill:url(#bl);}.bm{fill:url(#bm);}.bn{fill:url(#bn);}.bo{fill:url(#bo);}.bp{fill:url(#bp);}.bq{fill:url(#bq);}.br{fill:url(#br);}.bs{fill:url(#bs);}.bt{fill:url(#bt);}.bu{fill:url(#bu);}.bv{fill:url(#bv);}.bw{fill:url(#bw);}.bx{fill:url(#bx);}.by{fill:url(#by);}.bz{fill:url(#bz);}.ca{fill:url(#ca);}.cb{fill:url(#cb);}.cc{fill:url(#cc);}.cd{fill:url(#cd);}.ce{fill:url(#ce);}.cf{fill:url(#cf);}.cg{fill:url(#cg);}.ch{fill:url(#ch);}.ci{fill:url(#ci);}.cj{fill:url(#ck);}.ck{fill:url(#cl);}.cl{fill:url(#cm);}.cm{fill:url(#co);}.cn{fill:url(#cp);}.co{fill:url(#cq);}.cp{fill:url(#cr);}.cq{fill:url(#cs);}.cr{fill:url(#ct);}.cs{fill:url(#cu);}.ct{fill:url(#cv);}.cu{fill:url(#cw);}.cv{fill:url(#cx);}.cw{fill:url(#cy);}.cx{fill:url(#cz);}.cy{fill:url(#da);}.cz{fill:url(#db);}.da{fill:url(#dc);}.db{fill:url(#dd);}.dc{fill:url(#de);}.dd{fill:url(#df);}.de{fill:url(#dg);}.df{fill:url(#dh);}.dg{fill:url(#di);}.dh{fill:url(#dj);}.di{mix-blend-mode:color-burn;isolation:isolate;fill:url(#dk);}</style><linearGradient id="a" x1="2.758" y1="-1.602" x2="33.069" y2="-29.808" gradientUnits="objectBoundingBox"><stop offset="0" stop-color="#0e1147"/><stop offset="0.522" stop-color="#cb1f57"/><stop offset="1" stop-color="#c1b578"/></linearGradient><linearGradient id="b" x1="0.377" y1="0.555" x2="6.273" y2="-1.977" xlink:href="#a"/><linearGradient id="c" x1="0.919" y1="0.012" x2="21.871" y2="-24.402" xlink:href="#a"/><linearGradient id="d" x1="-2.948" y1="0.684" x2="135.886" y2="-6.738" xlink:href="#a"/><linearGradient id="e" x1="-15.885" y1="14.108" x2="21.634" y2="-17.053" xlink:href="#a"/><linearGradient id="f" x1="-7.784" y1="6.592" x2="10.603" y2="-6.93" xlink:href="#a"/><linearGradient id="g" x1="-49.75" y1="49.876" x2="18.039" y2="-16.733" xlink:href="#a"/><linearGradient id="h" x1="-45.207" y1="17.347" x2="17.413" y2="-5.733" xlink:href="#a"/><linearGradient id="i" x1="-1.796" y1="3.416" x2="25.291" y2="-30.981" xlink:href="#a"/><linearGradient id="j" x1="-3.135" y1="1.692" x2="26.86" y2="-8.144" xlink:href="#a"/><linearGradient id="k" x1="-5.115" y1="3.11" x2="33.242" y2="-14.912" xlink:href="#a"/><linearGradient id="l" x1="-4.554" y1="2.847" x2="33.777" y2="-15.169" xlink:href="#a"/><linearGradient id="m" x1="-15.702" y1="16.645" x2="14.303" y2="-13.254" xlink:href="#a"/><linearGradient id="n" x1="-16.124" y1="6.074" x2="13.27" y2="-3.781" xlink:href="#a"/><linearGradient id="o" x1="-11.915" y1="16.671" x2="9.309" y2="-10.975" xlink:href="#a"/><linearGradient id="p" x1="-11.757" y1="16.46" x2="9.467" y2="-11.176" xlink:href="#a"/><linearGradient id="q" x1="-1.778" y1="3.11" x2="31.913" y2="-35.488" xlink:href="#a"/><linearGradient id="r" x1="-12.697" y1="1.428" x2="119.449" y2="-7.867" xlink:href="#a"/><linearGradient id="s" x1="-3.31" y1="3.635" x2="27.699" y2="-21.957" xlink:href="#a"/><linearGradient id="t" x1="-2.817" y1="3.23" x2="28.201" y2="-22.388" xlink:href="#a"/><linearGradient id="u" x1="-2.569" y1="3.027" x2="28.423" y2="-22.583" xlink:href="#a"/><linearGradient id="v" x1="-3.072" y1="3.44" x2="27.946" y2="-22.165" xlink:href="#a"/><linearGradient id="w" x1="-38.829" y1="39.994" x2="18.223" y2="-17.298" xlink:href="#a"/><linearGradient id="x" x1="-34.161" y1="11.402" x2="14.974" y2="-4.052" xlink:href="#a"/><linearGradient id="y" x1="-28.851" y1="37.758" x2="12.064" y2="-14.179" xlink:href="#a"/><linearGradient id="z" x1="-28.552" y1="37.454" x2="12.333" y2="-14.552" xlink:href="#a"/><linearGradient id="aa" x1="-28.388" y1="37.272" x2="12.462" y2="-14.728" xlink:href="#a"/><linearGradient id="ab" x1="-28.72" y1="37.575" x2="12.198" y2="-14.344" xlink:href="#a"/><linearGradient id="ac" x1="-86" y1="75.364" x2="18.68" y2="-15.235" xlink:href="#a"/><linearGradient id="ad" x1="-39.37" y1="25.034" x2="8.517" y2="-4.433" xlink:href="#a"/><linearGradient id="ae" x1="-50.569" y1="112.528" x2="10.389" y2="-21.194" xlink:href="#a"/><linearGradient id="af" x1="-50.512" y1="112.621" x2="10.507" y2="-21.495" xlink:href="#a"/><linearGradient id="ag" x1="-50.518" y1="112.756" x2="10.439" y2="-21.372" xlink:href="#a"/><linearGradient id="ah" x1="-1.665" y1="3.093" x2="28.435" y2="-32.962" xlink:href="#a"/><linearGradient id="ai" x1="-7.543" y1="1.613" x2="70.121" y2="-9.135" xlink:href="#a"/><linearGradient id="aj" x1="-2.257" y1="3.802" x2="27.835" y2="-32.245" xlink:href="#a"/><linearGradient id="ak" x1="-9.104" y1="1.831" x2="68.509" y2="-8.921" xlink:href="#a"/><linearGradient id="al" x1="-1.249" y1="3.501" x2="11.59" y2="-18.546" xlink:href="#a"/><linearGradient id="am" x1="-27.659" y1="28.196" x2="23.23" y2="-21.856" xlink:href="#a"/><linearGradient id="an" x1="-136.196" y1="9.985" x2="104.53" y2="-6.719" xlink:href="#a"/><linearGradient id="ao" x1="-29.339" y1="29.847" x2="21.554" y2="-20.208" xlink:href="#a"/><linearGradient id="ap" x1="-26.313" y1="10.852" x2="18.274" y2="-6.363" xlink:href="#a"/><linearGradient id="aq" x1="-11.964" y1="15.072" x2="9.053" y2="-9.51" xlink:href="#a"/><linearGradient id="ar" x1="-27.816" y1="33.217" x2="19.631" y2="-21.604" xlink:href="#a"/><linearGradient id="as" x1="-37.732" y1="45.645" x2="22.671" y2="-25.679" xlink:href="#a"/><linearGradient id="at" x1="-13.99" y1="193.283" x2="8.368" y2="-104.186" xlink:href="#a"/><linearGradient id="au" x1="-39.082" y1="47.191" x2="21.354" y2="-24.097" xlink:href="#a"/><linearGradient id="av" x1="-14.501" y1="199.749" x2="7.863" y2="-97.3" xlink:href="#a"/><linearGradient id="aw" x1="-16.511" y1="37.18" x2="8.86" y2="-17.543" xlink:href="#a"/><linearGradient id="ax" x1="-38.098" y1="72.681" x2="19.58" y2="-35.178" xlink:href="#a"/><linearGradient id="ay" x1="-95.833" y1="95.425" x2="20.509" y2="-19.219" xlink:href="#a"/><linearGradient id="az" x1="-84.6" y1="33.334" x2="17.397" y2="-6.019" xlink:href="#a"/><linearGradient id="ba" x1="-97.84" y1="97.127" x2="18.897" y2="-17.575" xlink:href="#a"/><linearGradient id="bb" x1="-86.036" y1="33.964" x2="15.894" y2="-5.452" xlink:href="#a"/><linearGradient id="bc" x1="-40.14" y1="48.087" x2="7.935" y2="-8.212" xlink:href="#a"/><linearGradient id="bd" x1="-16.886" y1="14.122" x2="51.61" y2="-39.548" xlink:href="#a"/><linearGradient id="be" x1="-6.655" y1="7.204" x2="20.987" y2="-18.697" xlink:href="#a"/><linearGradient id="bf" x1="-18.753" y1="15.606" x2="49.662" y2="-38.072" xlink:href="#a"/><linearGradient id="bg" x1="-7.417" y1="7.91" x2="20.217" y2="-17.957" xlink:href="#a"/><linearGradient id="bh" x1="-8.359" y1="6.466" x2="24.157" y2="-15.42" xlink:href="#a"/><linearGradient id="bi" x1="-10.59" y1="7.892" x2="30.115" y2="-19.24" xlink:href="#a"/><linearGradient id="bj" x1="0.167" y1="0.927" x2="43.567" y2="-54.577" xlink:href="#a"/><linearGradient id="bk" x1="-0.027" y1="7.801" x2="16.542" y2="-221.88" xlink:href="#a"/><linearGradient id="bl" x1="-0.744" y1="2.098" x2="42.599" y2="-53.505" xlink:href="#a"/><linearGradient id="bm" x1="-1.3" y1="1.399" x2="32.781" y2="-15.628" xlink:href="#a"/><linearGradient id="bn" x1="-1.645" y1="3.249" x2="41.725" y2="-52.317" xlink:href="#a"/><linearGradient id="bo" x1="-2" y1="1.749" x2="32.078" y2="-15.279" xlink:href="#a"/><linearGradient id="bp" x1="-0.183" y1="2.762" x2="9.514" y2="-29.555" xlink:href="#a"/><linearGradient id="bq" x1="-26.031" y1="26.03" x2="55.013" y2="-51.956" xlink:href="#a"/><linearGradient id="br" x1="-7.893" y1="14.834" x2="16.764" y2="-27.102" xlink:href="#a"/><linearGradient id="bs" x1="-25.218" y1="25.219" x2="16.079" y2="-14.473" xlink:href="#a"/><linearGradient id="bt" x1="-10.28" y1="7.932" x2="7.202" y2="-3.892" xlink:href="#a"/><linearGradient id="bu" x1="-24.778" y1="24.802" x2="16.55" y2="-14.931" xlink:href="#a"/><linearGradient id="bv" x1="-15.979" y1="22.394" x2="10.705" y2="-12.898" xlink:href="#a"/><linearGradient id="bw" x1="-74.429" y1="72.486" x2="7.945" y2="-6.653" xlink:href="#a"/><linearGradient id="bx" x1="-24.611" y1="25.653" x2="2.875" y2="-1.718" xlink:href="#a"/><linearGradient id="by" x1="-74.21" y1="72.379" x2="8.087" y2="-6.799" xlink:href="#a"/><linearGradient id="bz" x1="-67.142" y1="50.135" x2="7.081" y2="-4.211" xlink:href="#a"/><linearGradient id="ca" x1="-22.971" y1="23.081" x2="25.694" y2="-23.739" xlink:href="#a"/><linearGradient id="cb" x1="-8.675" y1="7.489" x2="10.464" y2="-6.761" xlink:href="#a"/><linearGradient id="cc" x1="-22.56" y1="22.701" x2="26.063" y2="-24.109" xlink:href="#a"/><linearGradient id="cd" x1="-15.485" y1="19.278" x2="17.873" y2="-19.618" xlink:href="#a"/><linearGradient id="ce" x1="-7.449" y1="8.149" x2="33.859" y2="-31.599" xlink:href="#a"/><linearGradient id="cf" x1="-3.707" y1="2.656" x2="19.808" y2="-8.892" xlink:href="#a"/><linearGradient id="cg" x1="-6.801" y1="7.529" x2="34.494" y2="-32.233" xlink:href="#a"/><linearGradient id="ch" x1="-3.823" y1="8.655" x2="19.883" y2="-36.314" xlink:href="#a"/><linearGradient id="ci" x1="-46.522" y1="16.86" x2="13.62" y2="-4.065" xlink:href="#a"/><linearGradient id="ck" x1="-47.106" y1="17.027" x2="13.169" y2="-3.898" xlink:href="#a"/><linearGradient id="cl" x1="-27.566" y1="319.347" x2="8.021" y2="-84.953" xlink:href="#a"/><linearGradient id="cm" x1="-27.423" y1="322.757" x2="8.212" y2="-88.502" xlink:href="#a"/><linearGradient id="co" x1="-7.363" y1="7.092" x2="12.688" y2="-9.665" xlink:href="#a"/><linearGradient id="cp" x1="-25.122" y1="21.935" x2="1.552" y2="-0.359" xlink:href="#a"/><linearGradient id="cq" x1="-10.423" y1="10.979" x2="62.745" y2="-59.209" xlink:href="#a"/><linearGradient id="cr" x1="-8.614" y1="4.264" x2="48.728" y2="-19.418" xlink:href="#a"/><linearGradient id="cs" x1="-12.142" y1="12.65" x2="60.994" y2="-57.642" xlink:href="#a"/><linearGradient id="ct" x1="-10.105" y1="5.027" x2="47.933" y2="-19.751" xlink:href="#a"/><linearGradient id="cu" x1="-13.767" y1="14.193" x2="59.39" y2="-56.023" xlink:href="#a"/><linearGradient id="cv" x1="-11.379" y1="5.571" x2="46.684" y2="-19.214" xlink:href="#a"/><linearGradient id="cw" x1="-15.478" y1="15.862" x2="57.682" y2="-54.482" xlink:href="#a"/><linearGradient id="cx" x1="-12.834" y1="6.027" x2="45.653" y2="-18.215" xlink:href="#a"/><linearGradient id="cy" x1="-2.032" y1="3.554" x2="10.688" y2="-11.79" xlink:href="#a"/><linearGradient id="cz" x1="-1.989" y1="3.486" x2="10.734" y2="-11.782" xlink:href="#a"/><linearGradient id="da" x1="-86.596" y1="30.52" x2="12.503" y2="-3.624" xlink:href="#a"/><linearGradient id="db" x1="0.142" y1="0.992" x2="0.808" y2="-0.546" xlink:href="#a"/><linearGradient id="dc" x1="0.151" y1="0.984" x2="0.814" y2="-0.528" xlink:href="#a"/><linearGradient id="dd" x1="0.158" y1="0.978" x2="0.821" y2="-0.508" xlink:href="#a"/><linearGradient id="de" x1="0.173" y1="0.963" x2="0.826" y2="-0.498" xlink:href="#a"/><linearGradient id="df" x1="0.191" y1="0.944" x2="0.831" y2="-0.493" xlink:href="#a"/><linearGradient id="dg" x1="0.206" y1="0.935" x2="0.837" y2="-0.479" xlink:href="#a"/><linearGradient id="dh" x1="0.21" y1="0.938" x2="0.846" y2="-0.452" xlink:href="#a"/><linearGradient id="di" x1="0.189" y1="0.964" x2="0.858" y2="-0.404" xlink:href="#a"/><linearGradient id="dj" x1="0.216" y1="0.947" x2="0.864" y2="-0.399" xlink:href="#a"/><radialGradient id="dk" cx="0.5" cy="0.5" r="3.574" gradientTransform="translate(0.111 31.015) scale(0.14 0.14)" gradientUnits="objectBoundingBox"><stop offset="0.129" stop-color="#424242"/><stop offset="0.188" stop-color="#707070"/><stop offset="0.233" stop-color="#818181"/><stop offset="0.344" stop-color="#a7a7a7"/><stop offset="0.459" stop-color="#c7c7c7"/><stop offset="0.579" stop-color="#dfdfdf"/><stop offset="0.705" stop-color="#f1f1f1"/><stop offset="0.839" stop-color="#fbfbfb"/><stop offset="1" stop-color="#fff"/></radialGradient></defs><g transform="translate(-4.732 -416.89)"><g transform="translate(94.907 416.89)"><g transform="translate(0 26.989)"><path class="a" d="M302.118,489.809a2.386,2.386,0,1,1-2.229-2.608A2.432,2.432,0,0,1,302.118,489.809Z" transform="translate(-291.243 -438.414)"/><path class="b" d="M289.7,357.019c-.183-1.1-.368-2.216-.545-3.36-.329-.079-.66-.152-.99-.221q.263,1.923.523,3.75c.108.815.225,1.613.338,2.4.376.052.745.11,1.119.17Q289.924,358.418,289.7,357.019Zm-4.033-4.062c-.476-.083-.959-.158-1.439-.228a8.875,8.875,0,0,0,.478,3.851,8.1,8.1,0,0,0,.559,1.263c.126.241.2.383.219.413a16.388,16.388,0,0,1-.209-1.8A9.852,9.852,0,0,1,285.664,352.957Zm7.749-20.414q-1.512-.833-3.081-1.616c-.024.048-.049.1-.077.145-.829,1.443-1.679,2.81-2.606,4.122q2.123.874,4.156,1.844A14.1,14.1,0,0,0,293.413,332.543Zm7.38,19.975c-.009-.069-.02-.135-.034-.2a10.449,10.449,0,0,0-.513-1.883,8.464,8.464,0,0,0-4-4.631,7.946,7.946,0,0,0-5.495-.648A8.238,8.238,0,0,0,288.1,346.3c-.059-.463-.114-.926-.173-1.395-.108-.9-.212-1.808-.3-2.73.237-.216.468-.44.694-.664.06-.052.112-.11.168-.163a19.381,19.381,0,0,0,1.493-1.674,16.95,16.95,0,0,0,1.723-2.463c.037-.058.069-.118.1-.177a14.1,14.1,0,0,0,1.608-4.494c.012-.057.018-.114.024-.166.017-.074.025-.147.036-.218a32.065,32.065,0,0,0,.365-4.762,2.125,2.125,0,0,0-.011-.217,11.877,11.877,0,0,0-.488-3.184,11.6,11.6,0,0,0-.792-1.972,7.87,7.87,0,0,0-.762-1.4,2.1,2.1,0,0,0-1.765-.841,3.771,3.771,0,0,0-2.657,1.724,7.224,7.224,0,0,0-.577,1.056,4.745,4.745,0,0,0-.2.47l-.043.107c0,.017-.012.025-.015.039-.022.068-.019.074-.032.124l-.017.055-.054.212a12.913,12.913,0,0,0-.382,4.024c.008.373.013.742.019,1.115,0,.066,0,.125,0,.19.013.8.028,1.6.043,2.387-.012,1.117.011,2.218.057,3.307,0,.075,0,.151.008.22.034.734.076,1.455.134,2.176a25.145,25.145,0,0,1-2.072,2.219l-.58.545-.172.161-.588.559c-.44.409-.911.891-1.39,1.417a21.234,21.234,0,0,0-2.543,3.244c-.035.053-.071.108-.1.167a17.99,17.99,0,0,0-1.728,3.537,11.643,11.643,0,0,0-.692,3.044,1.234,1.234,0,0,0-.017.188,10.243,10.243,0,0,0,.882,5.17,9.95,9.95,0,0,0,1.157,1.911l.135.175a11.666,11.666,0,0,0,4.3,3.305,15.524,15.524,0,0,0,6.773,1.3c.1.693.194,1.371.277,2.025.009.068.015.128.026.191.055.433.106.86.149,1.274a6.82,6.82,0,0,1-.751,4.979c-.046.07-.092.141-.148.209a3.67,3.67,0,0,1-1.4,1.2,3.423,3.423,0,0,1-3.367-.359h0a2.035,2.035,0,0,1-.212-.167,1.4,1.4,0,0,1-.175-.157,2.4,2.4,0,0,1-.4-.477,3.029,3.029,0,0,1-.559-1.56l-.6.107a3.826,3.826,0,0,0,.565,1.438c.065.1.131.208.214.317s.156.195.245.291a1.693,1.693,0,0,0,.151.159,4.473,4.473,0,0,0,1.371.936,4.545,4.545,0,0,0,3.014.173,4.407,4.407,0,0,0,2.453-1.966c.04-.068.08-.135.117-.209a4.245,4.245,0,0,0,.239-.5,5.987,5.987,0,0,0,.5-2.2c0-.833-.078-1.546-.148-2.34-.04-.344-.083-.7-.126-1.053-.009-.063-.015-.129-.025-.2-.1-.712-.192-1.445-.3-2.191a14.861,14.861,0,0,0,5.638-1.783c.226-.14.448-.286.66-.447a1.2,1.2,0,0,0,.152-.112,9.171,9.171,0,0,0,3.04-3.982c.022-.058.043-.115.066-.173.059-.161.106-.321.154-.479A9.618,9.618,0,0,0,300.793,352.518Zm-13.584-17.511q-.032-1.83.034-3.692a16.07,16.07,0,0,1,.168-1.8c.008-.057.015-.114.026-.17a16.539,16.539,0,0,1,.883-3.3c.132-.341.317-.891.56-1.442.022-.053.049-.109.076-.166.448-.952,1.088-1.831,1.982-1.5.919.339,1,1.65.954,2.49-.009.2-.026.4-.048.606,0,.068-.009.13-.019.2a12.725,12.725,0,0,1-1.411,4.564,1.391,1.391,0,0,1-.082.139c-.024.048-.049.1-.077.145-.829,1.443-1.679,2.81-2.606,4.122-.037.058-.073.113-.116.17-.1.143-.2.285-.311.426,0-.184-.009-.369-.013-.558C287.209,335.156,287.208,335.081,287.209,335.007ZM283.788,360.8a10.775,10.775,0,0,1-2.053-1.556l-.175-.177a8.012,8.012,0,0,1-1.851-2.907,7.183,7.183,0,0,1-.237-3.942c.009-.067.023-.127.035-.188a9.146,9.146,0,0,1,.676-1.89,15.829,15.829,0,0,1,2.976-4.05,1.664,1.664,0,0,1,.147-.149c.329-.338.676-.665,1.023-.983.4-.362.826-.74,1.337-1.137l.686-.557c.166-.128.335-.261.5-.4.08.722.154,1.439.229,2.15.072.631.143,1.257.217,1.874a.169.169,0,0,1-.034.029c-.052.044-.106.092-.156.137a8.466,8.466,0,0,0-2.865,5.486c-.009.062-.018.124-.022.186a8.875,8.875,0,0,0,.478,3.851,8.1,8.1,0,0,0,.559,1.263c.126.241.2.383.219.413a16.388,16.388,0,0,1-.209-1.8,9.852,9.852,0,0,1,.392-3.5c.018-.059.04-.118.058-.176a8.827,8.827,0,0,1,.414-1.006,7.178,7.178,0,0,1,1.519-2.092c.159,1.212.319,2.395.481,3.558,0,.066.015.128.026.2q.263,1.923.523,3.75c.108.815.225,1.613.338,2.4.008.057.017.108.025.165q.205,1.4.409,2.724A12.265,12.265,0,0,1,283.788,360.8Zm15.3-3.819a6.618,6.618,0,0,1-3.231,4.088l0,0c-.066.04-.129.071-.2.11l0,0a11.655,11.655,0,0,1-5.081,1.3c-.123-.83-.26-1.684-.4-2.558-.008-.052-.015-.109-.023-.167q-.219-1.334-.446-2.734c-.183-1.1-.368-2.216-.545-3.36-.011-.067-.022-.13-.031-.2-.231-1.446-.454-2.936-.665-4.455a6.847,6.847,0,0,1,1.9-.966,1.873,1.873,0,0,1,.283-.084,4.5,4.5,0,0,1,.623-.146,6.682,6.682,0,0,1,6.61,3.054c.058.081.112.167.164.257s.123.2.183.3a7.8,7.8,0,0,1,.957,5.113c-.017.089-.034.183-.056.27A1.7,1.7,0,0,1,299.085,356.982Z" transform="translate(-276.384 -319.778)"/></g><g transform="translate(34.226 73.624)"><path class="c" d="M400.573,537.311c.594,1.361-.388,3.1-2.2,3.9s-3.756.336-4.356-1.023.4-3.1,2.207-3.894S399.978,535.957,400.573,537.311Z" transform="translate(-393.846 -519.561)"/><g transform="translate(5.962)"><path class="d" d="M415.271,498.555h-.965l.081-18.731.96,0Z" transform="translate(-414.306 -479.823)"/></g></g><g transform="translate(116.992 38.074)"><path class="e" d="M695.7,389.86a2.46,2.46,0,1,1-2.7,1.183A2.129,2.129,0,0,1,695.7,389.86Z" transform="translate(-688.324 -380.399)"/><path class="f" d="M685.759,367.722l-.511.381-7.357-9.908.508-.376Z" transform="translate(-677.891 -357.819)"/></g><g transform="translate(192.259 33.326)"><path class="g" d="M936.392,343.376a1.072,1.072,0,0,1,.266-1.464.933.933,0,1,1-.266,1.464Z" transform="translate(-936.201 -341.524)"/><g transform="translate(0.031 1.44)"><path class="h" d="M938.617,352.39l-.3.1-2.006-5.919.3-.1Z" transform="translate(-936.307 -346.466)"/></g></g><g transform="translate(55.499 70.421)"><path class="i" d="M472.181,509.524c.137,1.1-.946,2.136-2.413,2.315s-2.773-.57-2.9-1.673.951-2.14,2.416-2.317S472.05,508.422,472.181,509.524Z" transform="translate(-466.853 -496.462)"/><g transform="translate(4.429 0.11)"><path class="j" d="M482.31,483.329a.362.362,0,0,1-.242-.45l4.1-13.414a.36.36,0,1,1,.688.212l-4.1,13.414A.354.354,0,0,1,482.31,483.329Z" transform="translate(-482.053 -469.211)"/></g><g transform="translate(8.564)"><path class="k" d="M499.095,476.532a.353.353,0,0,1-.182-.559c.942-1.227-.045-2.551-1.134-3.8l-.211-.239c-1.148-1.356-1.348-1.99-1.322-2.755a.365.365,0,0,1,.377-.347.361.361,0,0,1,.348.374c-.02.494.055.974,1.151,2.259l.2.235c.889,1.019,2.545,2.911,1.163,4.707A.357.357,0,0,1,499.095,476.532Z" transform="translate(-496.245 -468.833)"/></g><g transform="translate(7.587 3.193)"><path class="l" d="M495.738,487.493a.349.349,0,0,1-.112-.057.366.366,0,0,1-.066-.51c.942-1.223-.045-2.545-1.131-3.791l-.216-.238c-1.146-1.358-1.345-1.993-1.32-2.754a.366.366,0,0,1,.374-.35.362.362,0,0,1,.353.375c-.017.494.055.974,1.145,2.262l.2.231c.889,1.022,2.55,2.909,1.166,4.707A.365.365,0,0,1,495.738,487.493Z" transform="translate(-492.891 -479.792)"/></g></g><g transform="translate(147.086 32.552)"><path class="m" d="M786.091,381.7c.733.832.426,2.3-.683,3.277s-2.611,1.1-3.342.26-.425-2.3.685-3.277S785.359,380.863,786.091,381.7Z" transform="translate(-781.524 -368.822)"/><g transform="translate(0.029 0.112)"><path class="n" d="M785.939,353.339a.358.358,0,0,1-.455-.235l-4.2-13.384a.36.36,0,1,1,.688-.213l4.2,13.383A.353.353,0,0,1,785.939,353.339Z" transform="translate(-781.27 -339.25)"/></g><path class="o" d="M787.726,343.88a.261.261,0,0,1-.126.011.35.35,0,0,1-.34-.371c.085-1.544-1.476-2.078-3.082-2.492l-.306-.078c-1.713-.472-2.236-.881-2.647-1.528a.368.368,0,0,1,.115-.5.364.364,0,0,1,.5.111c.265.421.592.774,2.226,1.215l.3.08c1.311.34,3.746.966,3.616,3.228A.363.363,0,0,1,787.726,343.88Z" transform="translate(-781.171 -338.867)"/><g transform="translate(0.998 3.186)"><path class="p" d="M791.151,354.815a.41.41,0,0,1-.126.017.36.36,0,0,1-.338-.382c.081-1.541-1.476-2.074-3.078-2.486l-.312-.08c-1.714-.47-2.234-.88-2.645-1.526a.362.362,0,0,1,.611-.388c.266.418.6.773,2.224,1.221l.3.073c1.312.341,3.745.963,3.621,3.226A.36.36,0,0,1,791.151,354.815Z" transform="translate(-784.595 -349.801)"/></g></g><g transform="translate(78.352 96.854)"><path class="q" d="M549.442,606.143a2.336,2.336,0,1,1-2.753-.526A2.02,2.02,0,0,1,549.442,606.143Z" transform="translate(-545.28 -591.987)"/><g transform="translate(3.207)"><path class="r" d="M557.091,574.5h0a.3.3,0,0,1-.314-.292l-.489-14.353a.3.3,0,0,1,.292-.31h0a.3.3,0,0,1,.309.29l.492,14.356A.3.3,0,0,1,557.091,574.5Z" transform="translate(-556.288 -559.549)"/></g><g transform="translate(3.199 0.008)"><path class="s" d="M560.527,565.009a.27.27,0,0,1-.106-.021.3.3,0,0,1-.189-.378c.414-1.23-.726-2-1.931-2.691l-.235-.132c-1.277-.76-1.605-1.207-1.793-1.82a.3.3,0,0,1,.2-.378.308.308,0,0,1,.379.2c.12.4.306.756,1.522,1.47l.225.132c.98.561,2.808,1.607,2.2,3.405A.308.308,0,0,1,560.527,565.009Z" transform="translate(-556.26 -559.578)"/></g><g transform="translate(3.409 4.839)"><path class="t" d="M561.249,581.58a.41.41,0,0,1-.109-.013.3.3,0,0,1-.186-.382c.409-1.227-.731-2-1.932-2.691l-.234-.13c-1.276-.76-1.6-1.208-1.793-1.818a.3.3,0,0,1,.2-.376.3.3,0,0,1,.38.2c.117.4.308.757,1.52,1.473l.229.13c.978.562,2.8,1.61,2.2,3.406A.294.294,0,0,1,561.249,581.58Z" transform="translate(-556.981 -576.155)"/></g><g transform="translate(3.481 7.202)"><path class="u" d="M561.5,589.694a.251.251,0,0,1-.111-.018.3.3,0,0,1-.186-.383c.409-1.224-.731-2-1.931-2.686l-.235-.133c-1.276-.753-1.606-1.2-1.791-1.817a.3.3,0,1,1,.577-.177c.117.4.311.759,1.523,1.473l.228.129c.979.564,2.808,1.606,2.2,3.408A.305.305,0,0,1,561.5,589.694Z" transform="translate(-557.227 -584.266)"/></g><g transform="translate(3.307 2.346)"><path class="v" d="M560.9,573.031a.439.439,0,0,1-.108-.018.3.3,0,0,1-.191-.378c.414-1.228-.725-2-1.928-2.693l-.234-.132c-1.277-.757-1.608-1.2-1.8-1.818a.305.305,0,0,1,.2-.378.3.3,0,0,1,.377.2c.125.4.308.76,1.523,1.477l.226.132c.98.561,2.807,1.609,2.2,3.4A.3.3,0,0,1,560.9,573.031Z" transform="translate(-556.632 -567.601)"/></g></g><g transform="translate(181.048 29.009)"><path class="w" d="M901.573,355.087a1.464,1.464,0,1,1-1.748.116A1.265,1.265,0,0,1,901.573,355.087Z" transform="translate(-898.801 -346.608)"/><g transform="translate(0.003)"><path class="x" d="M900.542,335.7h0a.194.194,0,0,1-.235-.128l-2.56-8.617a.191.191,0,0,1,.126-.239h0a.192.192,0,0,1,.232.131l2.568,8.616A.2.2,0,0,1,900.542,335.7Z" transform="translate(-897.737 -326.709)"/></g><g transform="translate(0 0.007)"><path class="y" d="M901.128,329.4a.188.188,0,0,1-.245-.193c.054-.809-.754-1.1-1.591-1.323l-.165-.045c-.892-.254-1.162-.477-1.371-.821a.185.185,0,0,1,.06-.257.187.187,0,0,1,.26.061c.135.224.3.407,1.155.652l.16.046c.677.181,1.951.527,1.865,1.713A.175.175,0,0,1,901.128,329.4Z" transform="translate(-897.728 -326.735)"/></g><g transform="translate(0.889 2.901)"><path class="z" d="M904.18,339.331a.13.13,0,0,1-.068.006.183.183,0,0,1-.174-.2c.055-.806-.76-1.1-1.6-1.322l-.161-.048c-.894-.253-1.165-.474-1.371-.817a.189.189,0,0,1,.06-.26.192.192,0,0,1,.26.064c.134.22.308.408,1.157.651l.155.044c.686.185,1.956.529,1.873,1.713A.189.189,0,0,1,904.18,339.331Z" transform="translate(-900.78 -336.665)"/></g><g transform="translate(1.306 4.323)"><path class="aa" d="M905.611,344.213a.152.152,0,0,1-.069.007.191.191,0,0,1-.177-.2c.057-.808-.751-1.1-1.591-1.325l-.158-.043c-.9-.254-1.166-.476-1.374-.816a.179.179,0,0,1,.058-.255.187.187,0,0,1,.263.059c.134.215.3.407,1.151.65l.162.043c.679.186,1.954.53,1.872,1.714A.2.2,0,0,1,905.611,344.213Z" transform="translate(-902.211 -341.547)"/></g><g transform="translate(0.435 1.408)"><path class="ab" d="M902.621,334.21a.139.139,0,0,1-.069.005.187.187,0,0,1-.174-.2c.057-.808-.76-1.1-1.592-1.323l-.165-.045c-.894-.254-1.162-.475-1.373-.816a.2.2,0,0,1,.059-.263.194.194,0,0,1,.263.063c.137.222.308.409,1.154.652l.157.044c.682.184,1.956.528,1.87,1.713A.179.179,0,0,1,902.621,334.21Z" transform="translate(-899.221 -331.54)"/></g></g><g transform="translate(208.246 22.671)"><path class="ac" d="M998.1,319.906a.863.863,0,1,1-.979.337A.748.748,0,0,1,998.1,319.906Z" transform="translate(-995.235 -315.492)"/><path class="ad" d="M994.035,309.655h0a.109.109,0,0,1-.154-.036l-2.794-4.494a.106.106,0,0,1,.032-.151h0a.111.111,0,0,1,.154.032l2.794,4.494A.111.111,0,0,1,994.035,309.655Z" transform="translate(-991.068 -304.956)"/><g transform="translate(0.001 0.002)"><path class="ae" d="M993.391,305.984a.162.162,0,0,1-.037.018.116.116,0,0,1-.131-.087c-.1-.469-.6-.508-1.112-.505l-.1,0c-.543,0-.732-.088-.9-.247A.111.111,0,0,1,991.1,305a.1.1,0,0,1,.157,0c.111.1.237.184.759.189h.1c.416,0,1.193,0,1.329.681A.112.112,0,0,1,993.391,305.984Z" transform="translate(-991.071 -304.964)"/></g><g transform="translate(0.957 1.508)"><path class="af" d="M996.669,311.148a.04.04,0,0,1-.032.019.116.116,0,0,1-.135-.093c-.091-.465-.6-.5-1.108-.5l-.1,0c-.545-.007-.732-.092-.9-.251a.111.111,0,0,1,.151-.162c.106.1.231.182.756.19h.094c.42,0,1.194,0,1.331.683A.1.1,0,0,1,996.669,311.148Z" transform="translate(-994.354 -310.132)"/></g><g transform="translate(0.466 0.729)"><path class="ag" d="M994.988,308.481a.312.312,0,0,1-.04.011.107.107,0,0,1-.129-.085c-.093-.466-.6-.5-1.108-.5l-.1,0c-.546-.011-.732-.09-.908-.251a.125.125,0,0,1-.008-.163.118.118,0,0,1,.162,0c.111.107.237.19.755.188l.094,0c.423,0,1.193-.006,1.333.683A.111.111,0,0,1,994.988,308.481Z" transform="translate(-992.668 -307.459)"/></g></g><g transform="translate(29.831 46.912)"><g transform="translate(0 0.485)"><path class="ah" d="M383.481,429.425c.349.964-.409,2.113-1.693,2.572s-2.6.059-2.943-.9.415-2.112,1.694-2.574S383.139,428.471,383.481,429.425Z" transform="translate(-378.762 -417.109)"/><g transform="translate(3.848)"><path class="ai" d="M392.9,402.75l-.931-.067.926-12.867.936.066Z" transform="translate(-391.969 -389.816)"/></g></g><g transform="translate(9.983 5.023)"><path class="aj" d="M417.746,445.5c.346.959-.412,2.11-1.689,2.572s-2.607.057-2.948-.905.411-2.113,1.7-2.573A2.223,2.223,0,0,1,417.746,445.5Z" transform="translate(-413.024 -433.036)"/><g transform="translate(3.846)"><path class="ak" d="M427.163,418.32l-.939-.067.931-12.865.932.068Z" transform="translate(-426.224 -405.388)"/></g></g><path class="al" d="M405.459,394.456l-11-3.586.225-2.72,11.039,3.767Z" transform="translate(-389.886 -388.15)"/></g><g transform="translate(134.692 17.071)"><g transform="translate(0.252 4.418)"><path class="am" d="M743.518,325.481a1.657,1.657,0,1,1-1.976.2A1.436,1.436,0,0,1,743.518,325.481Z" transform="translate(-740.513 -318.1)"/><g transform="translate(0 0)"><rect class="an" width="0.601" height="8.322" transform="translate(0 0.193) rotate(-18.754)"/></g></g><g transform="translate(5.938 0.63)"><path class="ao" d="M763.247,313.258a1.656,1.656,0,1,1-1.977.2A1.431,1.431,0,0,1,763.247,313.258Z" transform="translate(-760.178 -305.649)"/><path class="ap" d="M762.257,295.784l-.575.2-2.668-7.883.573-.193Z" transform="translate(-759.013 -287.904)"/></g><path class="aq" d="M739.236,291.4l6.281-3.947-.58-1.709-6.3,3.876Z" transform="translate(-738.635 -285.74)"/><g transform="translate(4.485 3.11)"><path class="ar" d="M754.553,298.949l-.525-.742,2.522-1.793.525.742Z" transform="translate(-754.029 -296.414)"/></g></g><g transform="translate(156.93 20.914)"><g transform="translate(0 1.683)"><path class="as" d="M817.3,324.23a1.109,1.109,0,0,1-.8,1.318.965.965,0,1,1,.8-1.318Z" transform="translate(-814.956 -318.175)"/><g transform="translate(1.907 0)"><rect class="at" width="6.468" height="0.467" transform="matrix(0.037, -0.999, 0.999, 0.037, 0, 6.463)"/></g></g><g transform="translate(5.159 0.499)"><path class="au" d="M835,320.783a1.284,1.284,0,1,1-1.488-.4A1.106,1.106,0,0,1,835,320.783Z" transform="translate(-832.66 -314.547)"/><g transform="translate(1.921 0)"><rect class="av" width="6.466" height="0.468" transform="translate(0 6.462) rotate(-87.878)"/></g></g><path class="aw" d="M822.187,301.47l5.648-1.138.051-1.4-5.645,1.079Z" transform="translate(-820.08 -298.929)"/><g transform="translate(5.134 2.455)"><path class="ax" d="M832.754,308.645l-.18-.68,2.328-.609.178.684Z" transform="translate(-832.574 -307.356)"/></g></g><g transform="translate(203.454 15.124)"><g transform="translate(0.111 1.929)"><path class="ay" d="M976.759,296.418a.723.723,0,1,1-.863.088A.635.635,0,0,1,976.759,296.418Z" transform="translate(-975.447 -293.194)"/><path class="az" d="M976.421,289.12l-.248.087L975,285.763l.252-.088Z" transform="translate(-975.004 -285.676)"/></g><g transform="translate(2.593 0.277)"><path class="ba" d="M985.384,291.079a.723.723,0,1,1-.86.087A.628.628,0,0,1,985.384,291.079Z" transform="translate(-984.042 -287.756)"/><path class="bb" d="M984.941,283.451l-.251.083-1.168-3.44.251-.087Z" transform="translate(-983.522 -280.007)"/></g><path class="bc" d="M974.886,281.526l2.747-1.721-.254-.749-2.754,1.694Z" transform="translate(-974.624 -279.057)"/></g><g transform="translate(104.901 77.208)"><g transform="translate(0.457 5.334)"><path class="bd" d="M650.927,526.54a1.391,1.391,0,1,1-1.431.862A1.2,1.2,0,0,1,650.927,526.54Z" transform="translate(-646.046 -521.805)"/><path class="be" d="M637.964,510.783l.365-.351,4.875,5.025-.365.351Z" transform="translate(-637.964 -510.431)"/></g><g transform="translate(3.413 0.406)"><path class="bf" d="M661.5,510.129a1.191,1.191,0,0,1,.43,1.609,1.043,1.043,0,1,1-.43-1.609Z" transform="translate(-656.494 -505.249)"/><path class="bg" d="M648.108,493.873l.36-.354,4.876,5.025-.365.353Z" transform="translate(-648.108 -493.519)"/></g><path class="bh" d="M637.494,498.476l3.348-5.262-1.056-1.09-3.391,5.219Z" transform="translate(-636.396 -492.125)"/><g transform="translate(1.392 1.617)"><path class="bi" d="M644.3,497.675l.429.277L641.6,502.8l-.428-.274Z" transform="translate(-641.175 -497.675)"/></g></g><g transform="translate(51.76 92.977)"><g transform="translate(0 0.423)"><path class="bj" d="M457.353,571.4c-.009.686-.768,1.232-1.689,1.217s-1.654-.594-1.642-1.285a1.5,1.5,0,0,1,1.691-1.218C456.631,570.133,457.371,570.707,457.353,571.4Z" transform="translate(-454.021 -563.579)"/><g transform="translate(2.695 0)"><rect class="bk" width="8.727" height="0.605" transform="translate(0 7.909) rotate(-64.997)"/></g></g><g transform="translate(7.033 1.675)"><path class="bl" d="M481.5,575.618c-.014.693-.766,1.237-1.689,1.217s-1.656-.59-1.646-1.283a1.513,1.513,0,0,1,1.7-1.216C480.777,574.355,481.508,574.927,481.5,575.618Z" transform="translate(-478.16 -567.824)"/><g transform="translate(2.711)"><path class="bm" d="M488.014,560.155l-.549-.258,3.7-7.908.548.254Z" transform="translate(-487.464 -551.989)"/></g></g><g transform="translate(13.577 2.503)"><path class="bn" d="M503.953,578.374c-.011.69-.771,1.237-1.689,1.216s-1.659-.591-1.645-1.284a1.507,1.507,0,0,1,1.691-1.217C503.23,577.106,503.968,577.683,503.953,578.374Z" transform="translate(-500.618 -570.604)"/><g transform="translate(2.684)"><path class="bo" d="M510.378,563l-.549-.254,3.693-7.911.551.255Z" transform="translate(-509.828 -554.831)"/></g></g><path class="bp" d="M473.914,547.91l14,2.633.911-1.93-14.133-2.372Z" transform="translate(-468.118 -546.241)"/></g><g transform="translate(112.949 69.056)"><path class="bq" d="M665.359,469.585a.89.89,0,1,1-1.22.315A.891.891,0,0,1,665.359,469.585Z" transform="translate(-664.017 -467.912)"/><g transform="translate(1.018)"><path class="br" d="M673.375,467.2l-.16.265-4.73-2.782a2.485,2.485,0,0,1,.154,1.771,1.757,1.757,0,0,1-1.017,1l-.112-.281a1.457,1.457,0,0,0,.835-.82,2.532,2.532,0,0,0-.337-1.975.148.148,0,0,1,.032-.184.151.151,0,0,1,.178-.021Z" transform="translate(-667.51 -464.146)"/></g></g><g transform="translate(160.939 34.421)"><path class="bs" d="M832.163,348.777a1.752,1.752,0,1,1-2.124-1.275A1.751,1.751,0,0,1,832.163,348.777Z" transform="translate(-828.713 -346.819)"/><g transform="translate(0.87)"><path class="bt" d="M839.969,356.893l-.588.148-2.616-10.454a4.721,4.721,0,0,1-2.213,2.573,3.506,3.506,0,0,1-2.856-.071l.229-.557a2.9,2.9,0,0,0,2.373.082,4.9,4.9,0,0,0,2.242-3.123.305.305,0,0,1,.3-.208.3.3,0,0,1,.279.23Z" transform="translate(-831.697 -345.284)"/></g><path class="bu" d="M835.909,363.722a1.749,1.749,0,1,1-2.127-1.272A1.75,1.75,0,0,1,835.909,363.722Z" transform="translate(-831.37 -357.411)"/><g transform="translate(1.957 4.562)"><path class="bv" d="M837.775,364.787a3.713,3.713,0,0,1-2.345-.249l.231-.559a2.9,2.9,0,0,0,2.372.08,4.879,4.879,0,0,0,2.239-3.119l.577.19a5.43,5.43,0,0,1-2.565,3.479A2.7,2.7,0,0,1,837.775,364.787Z" transform="translate(-835.43 -360.94)"/></g></g><g transform="translate(217.928 10.269)"><path class="bw" d="M1025.9,266.195a.88.88,0,1,1-1.219-.218A.882.882,0,0,1,1025.9,266.195Z" transform="translate(-1024.295 -264.821)"/><g transform="translate(0.711)"><path class="bx" d="M1032,267.3l-.245.172-3.074-4.448a2.378,2.378,0,0,1-.589,1.6,1.763,1.763,0,0,1-1.354.47l.014-.307a1.426,1.426,0,0,0,1.125-.378,2.429,2.429,0,0,0,.5-1.861.158.158,0,0,1,.1-.148.149.149,0,0,1,.174.059Z" transform="translate(-1026.734 -262.394)"/></g><path class="by" d="M1030.281,272.563a.879.879,0,1,1-1.222-.224A.874.874,0,0,1,1030.281,272.563Z" transform="translate(-1027.402 -269.331)"/><g transform="translate(1.992 1.998)"><path class="bz" d="M1032.276,271.509a1.838,1.838,0,0,1-1.143.3l.012-.3a1.423,1.423,0,0,0,1.125-.379,2.466,2.466,0,0,0,.508-1.86l.3-.013a2.708,2.708,0,0,1-.589,2.085A1.681,1.681,0,0,1,1032.276,271.509Z" transform="translate(-1031.133 -269.249)"/></g></g><g transform="translate(130.469 43.172)"><path class="ca" d="M727.036,379.187a1.487,1.487,0,1,1-1.887-.918A1.483,1.483,0,0,1,727.036,379.187Z" transform="translate(-724.144 -377.351)"/><g transform="translate(0.837)"><path class="cb" d="M734.574,384.908l-.483.166-2.96-8.649a4.065,4.065,0,0,1-1.694,2.338,2.975,2.975,0,0,1-2.419.143l.158-.494a2.438,2.438,0,0,0,2.011-.1,4.143,4.143,0,0,0,1.671-2.8.266.266,0,0,1,.235-.2.261.261,0,0,1,.259.178Z" transform="translate(-727.018 -375.317)"/></g><path class="cc" d="M731.257,391.56a1.486,1.486,0,1,1-1.882-.924A1.475,1.475,0,0,1,731.257,391.56Z" transform="translate(-727.134 -386.115)"/><g transform="translate(2.076 3.803)"><path class="cd" d="M733.265,391.8a3.121,3.121,0,0,1-2-.04l.157-.491a2.41,2.41,0,0,0,2.01-.1,4.176,4.176,0,0,0,1.668-2.8l.5.115a4.574,4.574,0,0,1-1.917,3.124A2.268,2.268,0,0,1,733.265,391.8Z" transform="translate(-731.269 -388.368)"/></g></g><g transform="translate(89.14 84.97)"><path class="ce" d="M585.943,520.528a1.75,1.75,0,1,1-1.736-1.765A1.745,1.745,0,0,1,585.943,520.528Z" transform="translate(-582.403 -518.763)"/><g transform="translate(0.578 0.501)"><path class="cf" d="M590.332,532.522l-.6-.006.1-10.775a4.748,4.748,0,0,1-2.8,1.932,3.494,3.494,0,0,1-2.74-.789l.365-.481a2.9,2.9,0,0,0,2.272.675,4.882,4.882,0,0,0,2.953-2.457.314.314,0,0,1,.345-.127.318.318,0,0,1,.215.295Z" transform="translate(-584.291 -520.482)"/></g><path class="cg" d="M585.808,535.93a1.751,1.751,0,1,1-1.739-1.763A1.756,1.756,0,0,1,585.808,535.93Z" transform="translate(-582.306 -529.678)"/><g transform="translate(0.535 5.129)"><path class="ch" d="M586.351,539.457a3.683,3.683,0,0,1-2.208-.831l.363-.481a2.885,2.885,0,0,0,2.279.673,4.883,4.883,0,0,0,2.956-2.452l.5.327a5.416,5.416,0,0,1-3.357,2.722A2.808,2.808,0,0,1,586.351,539.457Z" transform="translate(-584.143 -536.365)"/></g></g><g transform="translate(198.112 24.801)"><g transform="translate(0.291 1.033)"><path class="ci" d="M959.693,322.4l-.175.06-2.23-6.587.175-.059Z" transform="translate(-957.288 -315.815)"/></g><g transform="translate(0.291 1.033)"><path class="ci" d="M959.693,322.4l-.175.06-2.23-6.587.175-.059Z" transform="translate(-957.288 -315.815)"/></g><g transform="translate(1.517)"><path class="cj" d="M963.9,318.856l-.168.057-2.231-6.585.169-.059Z" transform="translate(-961.496 -312.269)"/></g><g transform="translate(0 2.776)"><path class="ck" d="M960.354,321.98l-4.055.161-.009-.185,4.057-.158Z" transform="translate(-956.29 -321.797)"/></g><g transform="translate(0.252 4.503)"><path class="cl" d="M961.215,327.906l-4.053.157-.006-.181,4.053-.157Z" transform="translate(-957.156 -327.725)"/></g><g transform="translate(0.252 4.503)"><path class="cl" d="M961.215,327.906l-4.053.157-.006-.181,4.053-.157Z" transform="translate(-957.156 -327.725)"/></g></g><path class="cm" d="M697.819,438.753c-3.5,1.266-3.136-3.14-3.136-3.14-.777.469-1.728.8-2.425-.507-.765-1.425.36-3.923-1.651-3.845,0,0,1.576-1.732,2.657.815.68,1.609-.191,3.046,2.106,2.672C695.371,434.747,695.389,438.379,697.819,438.753Z" transform="translate(-569.91 -371.379)"/><path class="cn" d="M1042.711,233.217c-2.634.952-2.359-2.361-2.359-2.361-.585.354-1.3.6-1.823-.38-.574-1.073.272-2.952-1.239-2.891,0,0,1.182-1.3,2,.613.512,1.209-.145,2.29,1.585,2.008C1040.872,230.2,1040.883,232.936,1042.711,233.217Z" transform="translate(-815.576 -227.153)"/><g transform="translate(98.787 94.415)"><g transform="translate(0 8.547)"><path class="co" d="M619.084,597.968a1.167,1.167,0,1,1-1.38.2A1.008,1.008,0,0,1,619.084,597.968Z" transform="translate(-616.756 -592.741)"/><path class="cp" d="M617.807,586.37a.207.207,0,0,1-.26-.12l-2.12-5.465a.2.2,0,0,1,.38-.145l2.116,5.468A.205.205,0,0,1,617.807,586.37Z" transform="translate(-615.414 -580.511)"/></g><g transform="translate(3.903 5.843)"><path class="cq" d="M632.372,588.385a1.167,1.167,0,1,1-1.387.2A1.012,1.012,0,0,1,632.372,588.385Z" transform="translate(-630.073 -583.248)"/><path class="cr" d="M631.3,576.688l-.38.151-2.111-5.467.374-.143Z" transform="translate(-628.807 -571.229)"/></g><g transform="translate(7.329 3.071)"><path class="cs" d="M644.133,578.6a1.165,1.165,0,1,1-1.382.2A1.009,1.009,0,0,1,644.133,578.6Z" transform="translate(-641.834 -573.542)"/><path class="ct" d="M643.059,567.182l-.374.147-2.117-5.464.376-.147Z" transform="translate(-640.568 -561.718)"/></g><g transform="translate(10.955)"><path class="cu" d="M656.548,568.3a1.166,1.166,0,1,1-1.386.2A1.007,1.007,0,0,1,656.548,568.3Z" transform="translate(-654.256 -563.17)"/><path class="cv" d="M655.356,556.9a.209.209,0,0,1-.263-.114l-2.07-5.334a.206.206,0,0,1,.119-.261h0a.2.2,0,0,1,.261.117l2.066,5.33a.2.2,0,0,1-.114.263Z" transform="translate(-653.011 -551.177)"/></g><g transform="translate(0.081 0.029)"><path class="cw" d="M616.061,560.337l-.371-.478,11-8.582.371.479Z" transform="translate(-615.69 -551.276)"/></g><g transform="translate(0.648 1.594)"><path class="cx" d="M618.011,565.752l-.372-.483,10.992-8.622.374.477Z" transform="translate(-617.639 -556.647)"/></g></g><path class="cy" d="M1004.708,273.867c-1.52-.12-.64-1.7-.64-1.7-.368.041-.78,0-.817-.605-.048-.658.8-1.4.034-1.706,0,0,.879-.378.851.753-.016.713-.582,1.1.337,1.352C1004.473,271.962,1003.865,273.317,1004.708,273.867Z" transform="translate(-791.454 -257.37)"/><g transform="translate(0.035 0.734)"><g transform="translate(10.059)"><path class="cz" d="M528.118,229.84q-1.657.744-3.166,1.575c-.391.21-.779.426-1.156.645-7.047,4.072-11.808,9.169-16.039,13.836l-.2.227c-.115.124-.228.249-.34.375-.562.619-1.119,1.236-1.669,1.839-.073.073-.139.147-.206.221-5.4,5.864-10.652,10.774-19.785,12.274-.166.029-.337.053-.508.081-.549.078-1.115.147-1.693.2a.609.609,0,0,1-.1.01c-.117.011-.231.025-.346.03-.011,0-.025,0-.035,0-.3.025-.589.047-.892.065-5.425.329-10.841-2.457-16.529-5.629-.151-.09-.3-.175-.457-.261-.315-.173-.628-.351-.946-.531-1.2-.676-2.409-1.355-3.622-2.006-.155-.081-.308-.166-.462-.247-5.644-3-11.415-5.393-17.293-4.317-.2.035-.4.074-.6.122-.323.072-.645.154-.969.246a16.493,16.493,0,0,0-1.871.669,17.777,17.777,0,0,0-2.694,1.434c-.175.11-.349.223-.517.34v0c-5.28,3.594-9.171,9.725-11.077,14.458-.916,2.283-1.716,4.626-2.434,6.993-.08.254-.156.5-.231.753-1.043,3.519-1.93,7.08-2.8,10.575-1.168,4.7-2.365,9.492-3.936,14.166-.037.1-.071.2-.1.3-.149.427-.3.854-.448,1.279-.2.555-.4,1.1-.619,1.654a61.525,61.525,0,0,1-3.005,6.664l-.165.3c-.083.158-.168.311-.259.463a27.14,27.14,0,0,1-2.917,4.236c-.108.131-.221.261-.334.385a19.194,19.194,0,0,1-10.383,6.25c-.182.04-.366.079-.549.112-.091.019-.18.036-.268.049-.111.022-.225.042-.34.058-.166.029-.337.052-.508.075a19.1,19.1,0,0,1-2.074.177,24.466,24.466,0,0,1-3.477-.108,32.148,32.148,0,0,1-6.013-1.22,52.13,52.13,0,0,1-16.067-8.48c-.179-.132-.351-.268-.529-.4-.194-.147-.386-.3-.578-.451q-1.659-1.284-3.29-2.684c-.2-.168-.4-.342-.6-.51a127.068,127.068,0,0,1-16.53-17.847c-.169-.214-.335-.433-.512-.643-.282-.363-.571-.722-.86-1.081q-2.9-3.559-6.046-6.79-1.3-1.341-2.648-2.611c-.293-.286-.586-.562-.882-.834a.018.018,0,0,0-.015-.014,101.3,101.3,0,0,0-17.135-12.779c-.66-.4-1.331-.785-2.013-1.173q-1.447-.827-2.945-1.624c-.791-.421-1.592-.839-2.4-1.245l.017-.055c.014-.05.011-.055.032-.124.822.415,1.629.83,2.428,1.258q1.468.78,2.888,1.592c.669.379,1.332.765,1.983,1.153A100.927,100.927,0,0,1,335.539,276.1c.094.083.192.171.284.258.2.19.411.38.61.579q1.532,1.439,3,2.969,2.966,3.057,5.7,6.412c.291.355.582.709.865,1.072.214.262.424.534.634.8a126.466,126.466,0,0,0,16.447,17.757c.2.173.4.347.6.515q1.639,1.4,3.305,2.7c.2.157.4.312.6.46s.366.284.552.423c7.515,5.659,15.207,8.991,22.012,9.664a24.226,24.226,0,0,0,3.407.108,22.2,22.2,0,0,0,2.26-.2l.349-.059c.165-.025.326-.052.486-.088a.482.482,0,0,0,.12-.024c.172-.028.337-.063.508-.1a19.032,19.032,0,0,0,10.3-6.2c.115-.124.225-.255.334-.386a26.886,26.886,0,0,0,2.914-4.243c.089-.151.169-.305.257-.463.045-.081.089-.166.135-.252a61.54,61.54,0,0,0,3.008-6.677q.3-.788.591-1.578a163.216,163.216,0,0,0,4.494-15.764c.88-3.537,1.782-7.148,2.848-10.71.074-.25.151-.5.231-.758.712-2.33,1.5-4.636,2.4-6.879,1.919-4.773,5.85-10.956,11.179-14.571l.006,0c.169-.118.34-.23.517-.341a18.766,18.766,0,0,1,2.682-1.423,15.89,15.89,0,0,1,2.477-.829,3.467,3.467,0,0,1,.378-.091c.2-.049.4-.089.6-.124,5.907-1.091,11.7,1.281,17.358,4.282a0,0,0,0,0,0,.006l.068.036.394.207c1.237.668,2.473,1.363,3.7,2.054.289.161.577.327.865.487l.46.256c5.693,3.18,11.115,5.982,16.51,5.66.286-.019.566-.039.846-.065.02,0,.041,0,.06,0,.112-.011.219-.018.326-.031,0,0,.011,0,.015,0q.787-.076,1.54-.178c.206-.027.409-.061.608-.1,9.211-1.462,14.476-6.407,19.9-12.313.071-.073.137-.147.2-.221.529-.58,1.062-1.168,1.6-1.765.133-.148.273-.3.407-.448.068-.075.135-.153.206-.226,4.231-4.666,9-9.76,16.05-13.822.388-.22.775-.436,1.171-.65,1-.538,2.042-1.059,3.13-1.552Z" transform="translate(-311.026 -229.673)"/></g><g transform="translate(9.642 0.843)"><path class="da" d="M527.472,232.732c-.914.435-1.786.883-2.634,1.348-.488.271-.966.544-1.429.822a55.367,55.367,0,0,0-10.965,8.682c-.128.131-.257.261-.383.386-1.706,1.729-3.308,3.49-4.89,5.232-.048.055-.1.114-.151.169-.015.02-.035.038-.052.059-.051.054-.1.107-.148.163-.212.234-.426.467-.634.7-.437.479-.869.949-1.3,1.416q-.284.3-.562.6c-1.422,1.517-2.842,2.971-4.331,4.3-.048.045-.1.086-.143.13-.352.316-.711.62-1.068.92-.054.044-.106.088-.157.127a28.491,28.491,0,0,1-13.8,6.438c-.194.035-.388.067-.58.1-.5.079-1.015.148-1.537.2-.022,0-.042,0-.062.006-.123.013-.242.027-.363.036a.037.037,0,0,1-.02,0c-.255.023-.509.046-.769.067a16.191,16.191,0,0,1-2.474,0c-4.916-.347-9.743-2.648-14.828-5.181-.255-.126-.512-.257-.772-.385-.354-.175-.708-.351-1.06-.531-1-.5-2.018-.994-3.03-1.471l-.462-.212c-5.265-2.443-10.642-4.3-16.121-3.362-.2.034-.4.073-.6.112a17.422,17.422,0,0,0-3.727,1.24,18.186,18.186,0,0,0-1.846.983c-.174.108-.349.213-.523.329A31.742,31.742,0,0,0,425.9,267.754c-.633,1.188-1.2,2.4-1.7,3.6-.606,1.5-1.168,3.026-1.693,4.564-.082.244-.165.486-.245.734-1.254,3.779-2.3,7.64-3.316,11.413-1.068,3.952-2.166,8.04-3.493,11.959-.051.154-.1.307-.157.455-.029.1-.065.2-.1.3-.051.14-.1.283-.146.422-.088.246-.175.488-.257.731-.054.143-.106.286-.159.428-.014.046-.034.094-.051.138-.082.219-.161.438-.24.652l0,.008a65.731,65.731,0,0,1-3.464,7.8c-.082.154-.168.311-.254.464-.349.654-.714,1.293-1.088,1.916q-.794,1.315-1.666,2.49c-.1.136-.211.273-.316.405a22.155,22.155,0,0,1-5.472,5.1,19.323,19.323,0,0,1-6.366,2.66c-.2.048-.4.092-.609.129a26.083,26.083,0,0,1-10.743-.384q-1.182-.271-2.376-.626a53.594,53.594,0,0,1-15.753-8.089q-2.276-1.656-4.5-3.513c-.2-.163-.4-.328-.6-.5a120.276,120.276,0,0,1-15.912-16.537c-.188-.23-.374-.458-.563-.684-.286-.353-.574-.7-.865-1.037a97.78,97.78,0,0,0-8.715-9.085c-.291-.271-.583-.536-.88-.8a92.047,92.047,0,0,0-17.255-12.13q-1.512-.833-3.08-1.616c-.96-.485-1.933-.96-2.922-1.415-.446-.212-.891-.415-1.346-.615,0-.065,0-.124,0-.19.463.208.922.415,1.376.635q1.516.7,2.977,1.446c1.026.51,2.033,1.044,3.023,1.589q2.191,1.2,4.283,2.486a92.457,92.457,0,0,1,12.96,9.6c.3.263.591.529.883.795a97.194,97.194,0,0,1,8.72,9.037c.289.339.578.683.866,1.028.229.277.457.558.686.84A120.383,120.383,0,0,0,361.2,310.824c.2.172.394.341.594.5q2.255,1.885,4.556,3.558c10.293,7.456,20.534,10.575,28.769,9.01.2-.037.4-.077.6-.122a18.875,18.875,0,0,0,6.266-2.59,21.791,21.791,0,0,0,5.445-5.076c.1-.133.2-.271.309-.408a28.259,28.259,0,0,0,1.637-2.454c.385-.638.756-1.285,1.116-1.956.084-.153.171-.31.252-.464a63.94,63.94,0,0,0,3.342-7.51.013.013,0,0,0,.008-.012c.061-.151.117-.3.172-.454.1-.254.185-.5.277-.764.082-.219.159-.444.24-.668.061-.174.124-.349.188-.528.02-.068.041-.137.066-.2.034-.1.069-.2.1-.3.046-.14.1-.284.142-.423,1.325-3.915,2.428-8,3.49-11.945,1.028-3.816,2.083-7.723,3.361-11.543.078-.245.162-.492.245-.735.514-1.5,1.057-2.989,1.654-4.451.5-1.21,1.074-2.43,1.706-3.617a31.812,31.812,0,0,1,10.254-11.677c.169-.118.345-.223.52-.329a18.51,18.51,0,0,1,1.839-.977,17.143,17.143,0,0,1,3.742-1.245c.2-.044.4-.083.6-.118,5.509-.954,10.9.9,16.185,3.347.154.066.309.142.462.212,1.066.5,2.125,1.018,3.177,1.541.332.163.659.331.991.495.263.133.526.261.786.388,5.059,2.52,9.869,4.812,14.747,5.156a15.854,15.854,0,0,0,2.445,0c.245-.021.486-.038.728-.065.036,0,.071,0,.108-.012a2.256,2.256,0,0,0,.256-.027h0a.02.02,0,0,0,.015,0c.445-.045.877-.1,1.308-.163.232-.034.466-.069.7-.108.031-.006.06-.007.088-.014.057-.008.111-.021.168-.03a28.386,28.386,0,0,0,13.707-6.44c.051-.038.1-.083.152-.128.362-.3.717-.608,1.069-.924.046-.04.1-.085.143-.13,1.411-1.269,2.764-2.643,4.111-4.083.254-.271.511-.545.766-.821.023-.027.052-.058.075-.086l.006,0c.659-.715,1.32-1.449,1.992-2.189.008-.009.012-.011.015-.02.066-.075.134-.149.2-.221,1.554-1.715,3.178-3.495,4.942-5.267.091-.086.177-.18.268-.266a56.885,56.885,0,0,1,10.928-8.679c.409-.244.829-.485,1.251-.721q1.394-.78,2.9-1.5Z" transform="translate(-309.595 -232.565)"/></g><g transform="translate(9.745 1.681)"><path class="db" d="M528.09,235.61c-.874.437-1.713.89-2.527,1.355-.2.122-.414.239-.614.362a58.527,58.527,0,0,0-12.273,9.962c-.151.154-.3.308-.445.46-1.42,1.48-2.78,2.975-4.124,4.456a99.076,99.076,0,0,1-7.458,7.646,1.448,1.448,0,0,1-.146.124c-.277.25-.559.492-.848.733-.074.062-.145.12-.219.182a.084.084,0,0,0-.02.014,1.265,1.265,0,0,1-.137.113,30.1,30.1,0,0,1-13.776,6.588l-.032.005a.229.229,0,0,1-.068.014c-.2.039-.4.077-.612.109-.486.082-.978.154-1.482.215-.125.018-.251.029-.38.045-.217.024-.437.048-.655.067a17.317,17.317,0,0,1-2.473.068c-5.225-.211-10.534-2.527-15.664-4.761-1.539-.673-3.082-1.343-4.634-1.966-.155-.066-.3-.126-.461-.182-4.9-1.936-9.885-3.32-14.961-2.476a17.759,17.759,0,0,0-2.751.684,18.264,18.264,0,0,0-2.448,1.012c-.337.166-.674.348-1.009.541-.179.1-.354.206-.529.311q-.4.239-.791.507c-.094.066-.194.131-.286.2a.054.054,0,0,0-.015.01,33.289,33.289,0,0,0-9.822,11.577c-.646,1.219-1.221,2.429-1.7,3.608-.306.736-.594,1.483-.873,2.232-.094.235-.182.476-.268.713-.038.1-.072.192-.1.292-.5,1.37-.968,2.754-1.412,4.141-.851,2.645-1.619,5.31-2.377,7.927-1,3.487-2.04,7.067-3.24,10.549-.034.1-.071.2-.1.3q-.425,1.226-.88,2.428a74.884,74.884,0,0,1-3.55,8.038c-.082.158-.163.312-.251.469a47.249,47.249,0,0,1-2.687,4.475.033.033,0,0,1-.011.021c-.091.137-.185.272-.28.407a23.678,23.678,0,0,1-7.418,7,20.2,20.2,0,0,1-5.324,2.138c-.2.053-.406.1-.608.145a27.149,27.149,0,0,1-11.748-.288c-.846-.189-1.7-.414-2.556-.671a54.534,54.534,0,0,1-15.313-7.65q-2.331-1.628-4.61-3.461c-.057-.043-.112-.088-.168-.134-.144-.113-.289-.23-.432-.348-.411-.336-.818-.676-1.229-1.022a116.81,116.81,0,0,1-14.051-14.26c-.373-.445-.748-.879-1.123-1.312-.82-.939-1.645-1.855-2.488-2.752A90.567,90.567,0,0,0,335,290.2c-.291-.256-.586-.508-.88-.754a84.854,84.854,0,0,0-18.637-12q-2.042-.975-4.17-1.851c-.109-.048-.215-.09-.323-.132-.341-.147-.691-.287-1.038-.42,0-.07-.006-.145-.008-.22.351.135.7.273,1.045.417.146.059.3.123.44.186q2.123.874,4.156,1.844,3.3,1.552,6.387,3.348a84.4,84.4,0,0,1,12.165,8.572q.445.378.885.755a90.233,90.233,0,0,1,6.785,6.555q1.23,1.3,2.427,2.689.57.653,1.135,1.325a116.352,116.352,0,0,0,14.374,14.531c.274.23.548.457.823.682.071.057.142.118.216.174.128.1.258.212.388.31q2.3,1.855,4.653,3.494c10.522,7.34,21.092,10.32,29.518,8.529.2-.043.4-.087.6-.137a19.6,19.6,0,0,0,5.229-2.073,23.537,23.537,0,0,0,7.383-6.985c.092-.122.172-.245.262-.373a.218.218,0,0,1,.034-.05,49.7,49.7,0,0,0,2.679-4.481c.08-.154.168-.311.246-.472a74.682,74.682,0,0,0,3.518-7.962c.306-.811.606-1.633.888-2.455.04-.1.074-.2.1-.3,1.2-3.468,2.228-7.031,3.227-10.5.766-2.646,1.542-5.338,2.4-8.014.426-1.32.869-2.64,1.345-3.944.058-.18.124-.355.194-.532.08-.238.172-.478.263-.714.268-.713.543-1.418.832-2.12a39.81,39.81,0,0,1,1.714-3.626,32.325,32.325,0,0,1,11.02-12.383c.175-.106.351-.212.529-.312.329-.189.655-.364.986-.527a18.5,18.5,0,0,1,4.618-1.6c.2-.038.4-.078.606-.106,5.1-.862,10.11.517,15.022,2.448.155.061.306.12.46.186,1.576.63,3.145,1.313,4.705,1.993,5.112,2.233,10.4,4.54,15.6,4.751a17.905,17.905,0,0,0,2.45-.069c.2-.019.409-.041.614-.065.126-.011.256-.027.379-.04.4-.048.8-.1,1.185-.166.243-.035.483-.077.725-.119h0l.106-.023c.123-.017.245-.04.366-.069a29.43,29.43,0,0,0,13.518-6.482c.02-.018.046-.035.068-.059.051-.04.1-.083.157-.127,0,0,.006-.007.008-.012.356-.295.71-.6,1.06-.907l.141-.13a101.286,101.286,0,0,0,7.38-7.6c1.345-1.481,2.7-2.97,4.116-4.448l.6-.622a58.36,58.36,0,0,1,12.247-9.89c.194-.12.392-.234.594-.347q1.2-.69,2.48-1.33Z" transform="translate(-309.949 -235.443)"/></g><g transform="translate(7.061 2.522)"><path class="dc" d="M521.928,238.492c-.9.471-1.754.957-2.583,1.463-.237.142-.473.284-.7.434a62.994,62.994,0,0,0-12.2,10.291c-.129.135-.26.269-.389.409-1.234,1.306-2.43,2.618-3.617,3.923-2.439,2.685-4.831,5.314-7.435,7.667-.073.062-.148.13-.216.194-.088.078-.169.152-.255.226l-.143.131c-.355.31-.712.609-1.076.908-.052.043-.1.082-.155.126-.094.081-.192.156-.289.236-.078.061-.157.127-.24.191a31.083,31.083,0,0,1-13.114,6.276c-.1.024-.2.044-.3.063-.66.135-1.328.247-2.02.341-.131.021-.256.038-.383.054-.175.022-.351.044-.531.065a20.641,20.641,0,0,1-2.48.125c-5.281-.054-10.585-2.043-15.718-3.965-8.226-3.085-16.749-6.285-25.519-1.619-6.415,3.383-10.508,9.841-12.383,13.393-.62,1.162-1.187,2.375-1.7,3.6a.036.036,0,0,0-.009.017l0,0c0,.014-.011.022-.015.036q-.753,1.819-1.428,3.681c-1.246,3.414-2.317,6.914-3.36,10.334-.869,2.838-1.756,5.734-2.743,8.585-.034.1-.068.2-.1.3-.654,1.876-1.354,3.733-2.125,5.545-.808,1.9-1.609,3.641-2.425,5.241-.082.159-.165.317-.245.472a50.538,50.538,0,0,1-2.642,4.521c-.1.15-.192.294-.289.434-.154.231-.309.457-.466.682q-.492.694-.994,1.348a24.323,24.323,0,0,1-7.961,6.817c-4.995,2.56-10.922,3.1-17.624,1.59a.139.139,0,0,0-.042-.007c-.065-.015-.131-.029-.194-.048-.191-.043-.386-.086-.574-.137a.07.07,0,0,1-.032,0c-.625-.152-1.256-.327-1.888-.516a56.056,56.056,0,0,1-14.884-7.218q-2.786-1.867-5.532-4.039-1.678-1.321-3.333-2.757a113.954,113.954,0,0,1-11.108-11.095,89.285,89.285,0,0,0-10.657-10.346c-1-.819-2.006-1.606-3.036-2.36a75.782,75.782,0,0,0-19.194-10.3c-.258-.1-.519-.19-.779-.283-.3-.1-.592-.207-.889-.306q-1.563-.542-3.171-1.014l.172-.161q1.51.452,2.974.944c.3.1.6.2.894.307q.485.167.966.348a75.6,75.6,0,0,1,19.238,10.356c.991.742,1.977,1.509,2.947,2.309q3.014,2.47,5.9,5.319c.046.043.092.087.138.136q2.35,2.331,4.635,4.935A114.5,114.5,0,0,0,349.7,317.766q1.69,1.464,3.4,2.806,2.7,2.133,5.444,3.973a56.228,56.228,0,0,0,16.65,7.7l.009,0c.2.05.4.1.6.146a.7.7,0,0,0,.088.022,27.8,27.8,0,0,0,13.164.162c.118-.029.232-.059.345-.091a21.2,21.2,0,0,0,4.187-1.615,24.067,24.067,0,0,0,7.9-6.767c.5-.657,1-1.338,1.477-2.055.1-.14.194-.284.288-.43a51.994,51.994,0,0,0,2.642-4.522c.082-.159.16-.32.243-.478.8-1.578,1.594-3.294,2.39-5.172.771-1.816,1.474-3.682,2.131-5.567.034-.1.071-.2.1-.3.983-2.838,1.863-5.717,2.728-8.54,1.031-3.374,2.088-6.824,3.313-10.2.431-1.194.883-2.377,1.366-3.541.043-.111.085-.217.131-.322.016-.035.031-.066.045-.1l.008-.023c.5-1.2,1.063-2.378,1.666-3.516,1.88-3.571,6-10.063,12.456-13.47,6.259-3.331,12.382-2.693,18.358-.934h0c.246.073.486.145.726.222,2.219.684,4.412,1.508,6.586,2.323,5.116,1.918,10.4,3.9,15.653,3.95a19.531,19.531,0,0,0,2.46-.121c.169-.019.334-.039.5-.06.128-.015.252-.033.378-.055.691-.091,1.359-.2,2.013-.334.131-.025.26-.057.386-.083a30.827,30.827,0,0,0,12.77-6.071c.083-.06.161-.125.24-.19.186-.143.369-.292.549-.441.057-.043.1-.083.155-.127.362-.3.716-.6,1.071-.909.046-.041.094-.085.143-.13a.1.1,0,0,1,.025-.018c.074-.062.143-.13.219-.2a106.522,106.522,0,0,0,7.592-7.8c1.212-1.336,2.439-2.685,3.705-4.021.154-.163.3-.319.458-.483a63.142,63.142,0,0,1,12.113-10.172l.688-.429q1.244-.751,2.578-1.454Z" transform="translate(-300.739 -238.328)"/></g><g transform="translate(2.437 3.364)"><path class="dd" d="M511.052,241.379q-1.232.687-2.385,1.412c-.215.138-.429.273-.64.413a55.5,55.5,0,0,0-6.733,5.181c-.331.293-.649.583-.966.88-2.987,2.754-5.632,5.666-8.237,8.528a107.488,107.488,0,0,1-8.389,8.572c-.04.037-.08.07-.125.106,0,.008-.009.012-.021.018-.063.061-.128.116-.2.174-.283.251-.575.5-.869.735-.052.044-.1.088-.157.127a36.412,36.412,0,0,1-5.544,3.768c-.555.3-1.119.593-1.7.864-.083.045-.169.083-.249.123a.063.063,0,0,0-.04.018,31.4,31.4,0,0,1-8.437,2.5s-.009,0-.015,0c-.12.019-.238.038-.363.056s-.274.037-.414.054c-.448.06-.908.106-1.388.135-.354.022-.714.039-1.094.049-4.464.091-8.9-1.061-13.222-2.39-.351-.1-.7-.214-1.048-.323-.491-.152-.98-.3-1.468-.46-8.335-2.622-16.944-5.332-25.819-.3-4.725,2.655-9.1,7.5-12.316,13.631-.591,1.132-1.171,2.356-1.714,3.64-1.04,2.484-1.965,5.042-2.831,7.608-.14.4-.268.8-.4,1.193q-.686,2.069-1.339,4.11c-.694,2.166-1.4,4.361-2.165,6.553-.034.1-.069.2-.1.3a88.933,88.933,0,0,1-3.445,8.618q-.616,1.31-1.228,2.512c-.406.811-.816,1.58-1.229,2.319-.543.987-1.093,1.913-1.647,2.788q-.671,1.055-1.365,2.01a34.747,34.747,0,0,1-2.168,2.756,24.371,24.371,0,0,1-8.214,6.234,25.335,25.335,0,0,1-12.874,1.932c-.235-.022-.474-.043-.708-.068-.854-.1-1.7-.227-2.536-.388-.2-.034-.389-.072-.58-.114-.131-.024-.263-.049-.392-.082-.076-.013-.145-.028-.214-.045q-1.584-.347-3.1-.8a52.409,52.409,0,0,1-6.707-2.543l-.014,0c-.183-.085-.366-.169-.548-.258-1.335-.617-2.571-1.26-3.687-1.87-1.4-.771-2.6-1.5-3.57-2.119a99.08,99.08,0,0,1-19.451-16.55,76.881,76.881,0,0,0-20.169-16.135c-.9-.494-1.82-.957-2.75-1.4a63.408,63.408,0,0,0-7.681-3.081c-.7-.234-1.409-.457-2.125-.666-.3-.085-.6-.175-.9-.255-.073-.022-.146-.043-.22-.061q-1.943-.537-3.953-.964c-1.406-.3-2.841-.562-4.3-.792.032-.059.068-.114.1-.167q2.216.35,4.347.81,2.018.441,3.961.976l.041.012c.3.081.6.17.9.254.82.241,1.636.5,2.436.769a63.735,63.735,0,0,1,7.234,2.908c.408.191.814.392,1.219.592.557.281,1.111.565,1.662.859a77.134,77.134,0,0,1,20.342,16.212,100.023,100.023,0,0,0,19.409,16.518c1.07.686,2.439,1.508,4.03,2.37.985.533,2.057,1.076,3.2,1.613.181.084.363.174.548.253a.029.029,0,0,0,.017.009,49.382,49.382,0,0,0,9.726,3.322,1.087,1.087,0,0,0,.113.024c.162.038.329.074.494.1.112.024.219.046.332.065q1.3.265,2.64.418c.259.033.512.06.774.084a25.237,25.237,0,0,0,12.885-1.909,24.221,24.221,0,0,0,8.151-6.185q1.087-1.25,2.127-2.7c.489-.675.969-1.385,1.443-2.14.534-.842,1.062-1.729,1.583-2.678.351-.628.7-1.287,1.049-1.966.069-.129.131-.254.194-.383a.028.028,0,0,0,.011-.021c.4-.784.8-1.6,1.2-2.457a89.44,89.44,0,0,0,3.451-8.636c.038-.1.074-.2.1-.3.754-2.172,1.459-4.361,2.154-6.516.459-1.419.92-2.862,1.4-4.3.109-.335.223-.667.339-1,.868-2.57,1.8-5.142,2.837-7.63.548-1.283,1.129-2.511,1.727-3.646,3.228-6.17,7.629-11.039,12.383-13.71,8.947-5.074,17.6-2.349,25.966.292.491.151.983.309,1.477.467.308.092.62.19.931.283,4.348,1.336,8.792,2.5,13.271,2.4.434-.009.851-.027,1.256-.054s.808-.071,1.2-.121c.129-.016.258-.036.389-.058.106-.007.206-.027.309-.041a.664.664,0,0,0,.074-.013,31.459,31.459,0,0,0,8.423-2.495v0l.292-.135c.6-.286,1.182-.583,1.751-.9a36.946,36.946,0,0,0,5.488-3.75c.052-.044.106-.088.154-.133.215-.173.428-.353.64-.532.074-.062.146-.124.215-.188s.145-.121.217-.182l.145-.131a107.313,107.313,0,0,0,8.317-8.5c2.66-2.926,5.37-5.9,8.432-8.717l0,0c.2-.179.394-.353.591-.532a56.609,56.609,0,0,1,6.886-5.324c.221-.146.443-.288.669-.429q1.174-.749,2.428-1.444Z" transform="translate(-284.871 -241.218)"/></g><g transform="translate(0 4.206)"><path class="de" d="M505.492,244.268a54.384,54.384,0,0,0-8.056,5.822c-.079.065-.157.132-.233.2s-.128.11-.189.166c-.132.114-.266.232-.392.353-.166.139-.322.28-.474.423-.217.193-.422.385-.629.58-.122.108-.239.216-.349.322l-.043.046c-2.877,2.708-5.467,5.566-8.015,8.366q-.688.76-1.374,1.511c-.066.075-.138.148-.2.221s-.142.161-.215.238c-.014.015-.029.036-.045.051s-.057.058-.08.085c-.012.011-.022.024-.036.035a88.973,88.973,0,0,1-6.964,6.961,1.23,1.23,0,0,1-.143.13c-.355.311-.708.61-1.074.908a1.682,1.682,0,0,1-.155.122,36.164,36.164,0,0,1-7.23,4.67c-.1.051-.192.1-.291.141a32.219,32.219,0,0,1-9.135,2.724c-.089.013-.181.025-.269.034-.543.079-1.1.136-1.666.174-.177.012-.358.022-.54.032a45.934,45.934,0,0,1-13.236-1.76c-.221-.056-.443-.108-.665-.164-.429-.109-.857-.218-1.28-.329-.183-.045-.363-.094-.543-.138-.032-.01-.069-.016-.1-.025-.318-.081-.634-.165-.953-.245-1.1-.28-2.189-.551-3.279-.8a44.018,44.018,0,0,0-9-1.3c-.719-.016-1.441-.005-2.162.037q-.787.046-1.577.152c-.242.027-.483.059-.725.1a23.124,23.124,0,0,0-8.366,3.1,29.143,29.143,0,0,0-6.97,6.018c-.591.68-1.162,1.4-1.713,2.143a42.435,42.435,0,0,0-3.559,5.719c-.592,1.136-1.154,2.332-1.717,3.65-.717,1.683-1.38,3.408-2.014,5.141-.358.983-.7,1.966-1.042,2.95q-.66,1.913-1.291,3.806c-.5,1.473-.994,2.959-1.514,4.444-.034.1-.069.2-.1.3a92.192,92.192,0,0,1-4.839,11.651,49.078,49.078,0,0,1-8.212,12.078,24.715,24.715,0,0,1-8.463,5.64,26.89,26.89,0,0,1-11.643,1.63c-.222-.011-.443-.028-.665-.049q-1.228-.1-2.488-.3c-.248-.036-.5-.076-.748-.12-.1-.015-.192-.033-.291-.052s-.208-.037-.315-.054c-.446-.084-.9-.18-1.354-.282q-1.553-.346-3.139-.82a54.882,54.882,0,0,1-6.558-2.448c-.183-.08-.368-.16-.551-.244q-2.525-1.157-5.036-2.568c-.177-.1-.351-.2-.524-.3a.175.175,0,0,1-.029-.018c-.426-.247-.857-.5-1.28-.754q-1.5-.911-2.994-1.9A97.365,97.365,0,0,1,320.8,319.155q-1.555-1.611-3.116-3.084c-.322-.3-.637-.6-.957-.89A65.9,65.9,0,0,0,300.347,303.9q-.586-.278-1.175-.545a55.469,55.469,0,0,0-9.932-3.324c-.329-.079-.66-.152-.99-.221q-1.237-.273-2.5-.48c-.476-.083-.959-.158-1.439-.228-1.557-.227-3.137-.4-4.753-.51-1-.073-2.02-.124-3.053-.15a1.233,1.233,0,0,1,.017-.188c1.037.027,2.059.075,3.071.15,1.611.116,3.187.284,4.739.511q.741.109,1.476.238c.811.134,1.619.287,2.414.46.331.069.656.142.985.22a55.218,55.218,0,0,1,10.006,3.346c.4.174.8.359,1.2.547a65.85,65.85,0,0,1,16.315,11.2c.322.289.643.588.959.887,1.086,1.024,2.17,2.091,3.251,3.212A96.831,96.831,0,0,0,337.2,332.545q1.318.863,2.637,1.667c.432.262.868.517,1.3.765.141.087.289.171.434.254a.735.735,0,0,1,.084.049c1.683.949,3.368,1.81,5.035,2.567.186.09.371.17.555.25a49.562,49.562,0,0,0,10.965,3.5c.06.013.126.028.188.037.141.027.283.049.418.075.151.025.3.05.445.069h.006c.9.147,1.791.259,2.674.336.237.021.469.04.706.058a27.151,27.151,0,0,0,11.652-1.593,24.522,24.522,0,0,0,8.4-5.6,48.865,48.865,0,0,0,8.178-12.029,89.909,89.909,0,0,0,4.833-11.667c.035-.1.071-.2.1-.3.515-1.471,1.011-2.948,1.5-4.407.446-1.323.9-2.666,1.368-4.006q.5-1.472,1.04-2.93c.612-1.68,1.254-3.347,1.949-4.977.565-1.323,1.131-2.517,1.724-3.657a41.893,41.893,0,0,1,3.641-5.819c.509-.695,1.042-1.364,1.594-2a28.986,28.986,0,0,1,7.079-6.133,23.079,23.079,0,0,1,8.414-3.093c.24-.042.482-.074.72-.107.4-.05.8-.09,1.189-.115.753-.062,1.5-.085,2.254-.079a43.552,43.552,0,0,1,9.449,1.3c1.059.243,2.111.5,3.154.771.368.1.739.186,1.106.281l.014,0c.208.052.414.1.62.161.365.09.733.184,1.1.279.222.052.448.11.668.165a45.974,45.974,0,0,0,13.271,1.776c.136,0,.272-.013.4-.028.694-.035,1.376-.109,2.034-.2l.031-.005a31.813,31.813,0,0,0,9.1-2.716c.1-.04.189-.087.288-.137a36.789,36.789,0,0,0,7.234-4.679c.054-.044.1-.083.152-.128.362-.3.719-.6,1.069-.909a1.807,1.807,0,0,0,.148-.129,90.668,90.668,0,0,0,6.929-6.937c.052-.059.1-.113.155-.171.028-.031.057-.057.085-.088.062-.071.126-.137.186-.207q.748-.81,1.491-1.636c2.528-2.786,5.1-5.616,7.943-8.309.065-.065.131-.124.2-.188.029-.031.061-.06.1-.09.291-.274.585-.544.885-.816.2-.184.4-.361.6-.539l.342-.3a.341.341,0,0,1,.054-.048c.076-.067.154-.133.229-.2a56.211,56.211,0,0,1,6.218-4.682.171.171,0,0,1,.037-.024c.589-.383,1.2-.757,1.817-1.121Z" transform="translate(-276.506 -244.106)"/></g><g transform="translate(2.039 5.048)"><path class="df" d="M283.638,307.751c1.064-.059,2.107-.083,3.142-.081a51.537,51.537,0,0,1,7.313.5c.375.053.745.109,1.117.172a46.2,46.2,0,0,1,5.481,1.263h0q.713.2,1.416.438c6.747,2.228,13.111,6.069,19.557,11.705.318.279.636.562.956.851q1.447,1.3,2.9,2.727a91.6,91.6,0,0,0,13.36,10.752c.169.115.342.232.514.339q2.248,1.482,4.537,2.79c.288.164.585.333.894.505.175.1.354.19.534.289,1.491.812,3.2,1.67,5.067,2.492.183.084.368.164.557.241a57.564,57.564,0,0,0,6.461,2.374,47.113,47.113,0,0,0,5.813,1.358l.535.085c.023,0,.046.009.069.012.371.055.742.107,1.111.148.717.09,1.431.156,2.156.2.218.016.434.025.654.036a29.178,29.178,0,0,0,10.462-1.34c.7-.235,1.409-.5,2.112-.815.091-.037.177-.08.269-.122l.1-.043c.042-.023.086-.039.128-.061a26.167,26.167,0,0,0,3.605-2.058l.339-.241a25.787,25.787,0,0,0,2.171-1.709q.466-.411.9-.845c.109-.1.214-.2.315-.307.621-.622,1.219-1.276,1.783-1.955q.632-.747,1.214-1.524c.054-.064.1-.133.154-.2.024-.028.045-.062.072-.088a65.843,65.843,0,0,0,4.344-6.853c3.041-5.389,5.144-11.39,7.178-17.194.665-1.893,1.336-3.818,2.048-5.736.174-.469.351-.941.531-1.408.5-1.3,1.011-2.586,1.554-3.856.568-1.317,1.131-2.517,1.725-3.662a42.585,42.585,0,0,1,4.35-6.832c.3-.4.623-.795.945-1.175.293-.343.586-.681.888-1.008.482-.535.976-1.041,1.482-1.524.171-.172.343-.338.524-.5.133-.129.269-.251.409-.373a26.921,26.921,0,0,1,3.574-2.722,25.052,25.052,0,0,1,9.111-3.613c.24-.042.482-.084.719-.117.352-.053.709-.1,1.062-.138q1.046-.112,2.1-.146h0c.294-.006.592-.01.891-.011a1.738,1.738,0,0,1,.217,0l.006,0a49.621,49.621,0,0,1,8.594.931l.268.05c1.183.216,2.377.449,3.574.688l1.46.289.3.058c.1.02.2.041.309.058s.233.05.346.068a49.717,49.717,0,0,0,13.245,1.149c.9-.068,1.714-.166,2.488-.3a33.2,33.2,0,0,0,9.027-2.84c.094-.051.191-.1.291-.145,6.212-3.068,11.023-7.853,15.779-13.031.022-.023.042-.043.057-.062a1.261,1.261,0,0,0,.1-.1c.023-.024.039-.043.059-.062.141-.156.281-.308.421-.464.066-.069.131-.139.193-.21s.117-.128.177-.195.108-.111.16-.17c.371-.409.748-.827,1.123-1.24,2.434-2.681,4.9-5.406,7.595-8.006.314-.3.627-.6.945-.9.4-.371.8-.736,1.206-1.1.074-.067.148-.135.227-.2a56.586,56.586,0,0,1,7.8-5.882l-.1-.159a57.047,57.047,0,0,0-7.812,5.885c-.079.065-.152.132-.228.2-.472.424-.939.854-1.4,1.286-.2.192-.4.38-.6.574-2.76,2.653-5.29,5.439-7.775,8.18-.377.413-.746.822-1.117,1.232-.051.054-.1.113-.154.167l-.288.315c-.066.075-.138.151-.206.226-.111.121-.22.237-.325.359l-.006,0c-.051.05-.1.105-.142.156a.031.031,0,0,0-.014.016c-4.755,5.169-9.554,9.947-15.74,13.013-.094.051-.194.1-.291.141a32.555,32.555,0,0,1-9,2.839c-.768.131-1.574.228-2.476.295a49.861,49.861,0,0,1-13.273-1.161l-.235-.04-.42-.082-.183-.04c-.5-.1-1-.195-1.492-.293-.837-.166-1.67-.331-2.5-.489-.146-.029-.291-.058-.439-.082-.454-.086-.909-.168-1.366-.25h0c-.057-.008-.114-.019-.175-.027a48.875,48.875,0,0,0-7.777-.826c-.217,0-.435,0-.649,0-.393,0-.783.013-1.174.03-.674.031-1.354.087-2.034.17-.231.029-.459.061-.688.1s-.474.076-.714.118a25.1,25.1,0,0,0-9.157,3.638,27.291,27.291,0,0,0-3.539,2.683c-.136.124-.277.244-.409.373-.08.071-.157.147-.234.217q-1.074,1-2.082,2.138c-.334.376-.668.762-.986,1.162-.1.106-.182.214-.269.32a43.226,43.226,0,0,0-4.715,7.307c-.6,1.15-1.163,2.349-1.728,3.671-.534,1.242-1.042,2.508-1.528,3.785-.2.511-.389,1.018-.577,1.532-.709,1.9-1.375,3.816-2.037,5.7-2.031,5.795-4.133,11.793-7.169,17.168a61.767,61.767,0,0,1-4.611,7.2c-.559.735-1.139,1.454-1.756,2.141-.359.4-.725.8-1.106,1.18-.1.1-.206.206-.316.308-.311.309-.628.606-.955.893a26.6,26.6,0,0,1-2.117,1.676c-.114.079-.228.16-.339.235a26.072,26.072,0,0,1-2.822,1.679c-.3.159-.6.305-.906.447l-.151.069-.221.1a21.809,21.809,0,0,1-2.1.814,29.011,29.011,0,0,1-10.468,1.328q-.346-.013-.688-.042c-.8-.052-1.6-.132-2.391-.235-.263-.034-.525-.068-.789-.112-.082-.01-.166-.024-.251-.041-.12-.015-.238-.032-.355-.056a52.811,52.811,0,0,1-12.193-3.708c-.184-.076-.369-.155-.552-.24-1.868-.827-3.574-1.684-5.067-2.492l-.532-.293c-.3-.171-.6-.333-.882-.5-1.528-.874-3.051-1.81-4.556-2.8-.169-.11-.34-.221-.508-.336a91.733,91.733,0,0,1-13.31-10.722c-1.012-.992-2.028-1.939-3.031-2.839-.32-.29-.637-.573-.957-.846a59.347,59.347,0,0,0-16.621-10.554c-.916-.372-1.843-.71-2.782-1.02-.454-.156-.912-.3-1.371-.436a46.807,46.807,0,0,0-5.705-1.321c-.374-.061-.743-.118-1.119-.17a51.96,51.96,0,0,0-7.464-.514q-1.53,0-3.1.082Z" transform="translate(-283.503 -246.996)"/></g><g transform="translate(13.528 5.89)"><path class="dg" d="M539.124,250.04a58.994,58.994,0,0,0-7.555,5.937c-.075.068-.151.139-.22.207-.054.044-.1.089-.149.134l-.379.352c-.166.159-.334.317-.5.475-.215.2-.431.411-.637.618-.115.1-.223.215-.334.321a.213.213,0,0,0-.035.04c-2.567,2.527-4.956,5.167-7.309,7.764q-.778.861-1.552,1.706c-.029.036-.06.071-.089.1h0a.166.166,0,0,1-.031.036c-.054.063-.112.126-.169.187-.229.249-.451.494-.679.739-.051.06-.1.113-.152.167-4.85,5.259-9.76,10.1-15.989,13.266-.1.049-.194.1-.291.145a33.552,33.552,0,0,1-8.924,2.96c-.839.154-1.679.276-2.5.358A54.6,54.6,0,0,1,478.375,285c-.215-.025-.434-.056-.648-.09-.406-.052-.8-.107-1.2-.162-.151-.026-.3-.045-.453-.066-.084-.011-.165-.025-.251-.036-.309-.043-.619-.086-.926-.133-1.157-.158-2.31-.315-3.455-.449a51.258,51.258,0,0,0-7.176-.412c-.238,0-.474.011-.715.024a29.657,29.657,0,0,0-3.875.412c-.242.041-.477.085-.715.138a27.08,27.08,0,0,0-9.837,4.168,27.642,27.642,0,0,0-2.777,2.113c-.06.052-.118.1-.174.151-.085.069-.161.14-.241.21-.182.159-.359.32-.536.484-.485.455-.956.919-1.4,1.39-.165.169-.318.336-.474.507s-.308.334-.457.5l-.046.055a43.63,43.63,0,0,0-6,8.96c-.592,1.166-1.171,2.4-1.724,3.673-.134.311-.269.618-.4.931q-.333.792-.654,1.589c-1.018,2.529-1.955,5.113-2.868,7.632-2.213,6.087-4.5,12.382-7.918,17.95-1.022,1.676-2.107,3.364-3.284,4.979-.028.041-.054.078-.086.119-.062.091-.129.184-.2.272a1.719,1.719,0,0,1-.114.15,35.124,35.124,0,0,1-2.856,3.4c-.1.1-.2.213-.312.313A23.925,23.925,0,0,1,414.1,346c-.18.138-.365.272-.547.406-.114.085-.226.165-.34.245a26.226,26.226,0,0,1-3.716,2.164c-.123.062-.243.12-.363.174a24.928,24.928,0,0,1-4.011,1.476,31.617,31.617,0,0,1-9.294,1.015l-.636-.027c-1.109-.054-2.212-.156-3.3-.3-.207-.022-.406-.052-.6-.082A51.356,51.356,0,0,1,384,349.434a64.888,64.888,0,0,1-6.249-2.236c-1.014-.423-1.977-.849-2.882-1.269q-1.475-.687-2.743-1.351l-.54-.28c-.159-.082-.311-.167-.464-.248-1.7-.915-3.387-1.885-5.033-2.909-.172-.1-.343-.212-.513-.323a84.918,84.918,0,0,1-12.356-9.311q-1.343-1.242-2.674-2.372c-.32-.274-.637-.538-.955-.8-8.509-7.025-16.653-10.776-25.51-11.622-.369-.037-.748-.065-1.121-.093-.011-.063-.017-.123-.026-.191.374.023.752.052,1.123.088a38.726,38.726,0,0,1,7.657,1.473q.868.26,1.715.558a53.341,53.341,0,0,1,16.163,9.544c.317.263.638.528.959.8q1.385,1.18,2.791,2.475a85.42,85.42,0,0,0,12.309,9.284c.174.111.346.218.517.323,1.648,1.02,3.334,1.994,5.038,2.911.149.08.3.16.455.245.178.089.357.187.542.281.854.44,1.786.9,2.783,1.364.908.425,1.876.853,2.887,1.27a57.225,57.225,0,0,0,13.413,3.835c.2.031.4.061.608.088,1.068.141,2.148.241,3.231.3.22.011.44.022.66.029a31.386,31.386,0,0,0,9.292-1.006,25.4,25.4,0,0,0,3.993-1.472l.363-.174a26.138,26.138,0,0,0,3.715-2.169c.117-.079.229-.159.339-.24.177-.126.341-.249.509-.378a24.488,24.488,0,0,0,2.536-2.265c.106-.107.212-.21.309-.318a35.864,35.864,0,0,0,2.37-2.77c.2-.262.4-.524.594-.793a2.628,2.628,0,0,0,.16-.22,1.746,1.746,0,0,0,.126-.17c1.148-1.585,2.2-3.238,3.2-4.875,3.414-5.549,5.692-11.837,7.9-17.919.945-2.612,1.92-5.294,2.982-7.914.221-.544.443-1.082.672-1.618.088-.212.175-.424.266-.63.555-1.271,1.134-2.51,1.731-3.679a43.91,43.91,0,0,1,5.907-8.859.048.048,0,0,1,.021-.024c.146-.17.3-.342.446-.511.265-.292.535-.583.814-.867.476-.5.977-.98,1.5-1.455.111-.1.219-.2.328-.3.128-.11.252-.216.378-.322a.1.1,0,0,1,.04-.033,27.841,27.841,0,0,1,2.733-2.076,27.219,27.219,0,0,1,9.887-4.193c.237-.048.474-.1.714-.133a29.844,29.844,0,0,1,3.927-.42l.72-.023a52.808,52.808,0,0,1,7.223.412c1.129.135,2.268.287,3.408.451.357.047.714.1,1.071.147.042.008.091.013.132.02l.554.076c.34.052.688.1,1.031.145l.646.089a55.071,55.071,0,0,0,13.285.561c.813-.085,1.645-.2,2.481-.359a33.144,33.144,0,0,0,8.9-2.957,2.574,2.574,0,0,0,.287-.147c6.208-3.143,11.112-7.985,15.951-13.242.052-.059.1-.113.156-.172.183-.2.371-.4.555-.6l.18-.2c.035-.034.068-.074.1-.108.059-.062.111-.125.169-.186.494-.542.983-1.084,1.479-1.63,2.328-2.578,4.695-5.187,7.243-7.695.058-.062.115-.119.183-.179a1.122,1.122,0,0,1,.106-.107c.285-.286.576-.562.866-.841.208-.195.414-.391.622-.587.109-.1.22-.206.335-.311a.037.037,0,0,1,.015-.015c.074-.067.149-.138.22-.207a60.119,60.119,0,0,1,7.56-5.935Z" transform="translate(-322.934 -249.886)"/></g><g transform="translate(7.11 6.732)"><path class="dh" d="M523.879,252.926a62.8,62.8,0,0,0-7.3,5.993c-.074.067-.145.14-.22.207-3.145,2.993-6.036,6.194-8.873,9.333q-1.491,1.651-2.971,3.269c-.055.057-.106.112-.157.166-4.93,5.344-9.948,10.256-16.2,13.5-.094.052-.188.1-.288.152a34.851,34.851,0,0,1-11.323,3.491,62.386,62.386,0,0,1-13.276.012c-.214-.014-.426-.034-.639-.053-.478-.038-.957-.078-1.431-.121-5.5-.476-10.823-.929-16.227.17-.232.049-.469.1-.7.155a29.57,29.57,0,0,0-10.554,4.777c-.685.484-1.346.99-1.974,1.515-.145.116-.285.238-.42.356a42.142,42.142,0,0,0-9.637,12.747q-.787,1.571-1.514,3.189c-.14.32-.28.64-.415.961-1.276,2.95-2.41,5.98-3.519,8.943-2.379,6.341-4.835,12.9-8.637,18.608-.728,1.1-1.474,2.195-2.259,3.278-.094.131-.188.262-.286.391a42.085,42.085,0,0,1-2.945,3.613,1.246,1.246,0,0,1-.129.135,2.39,2.39,0,0,1-.177.195c-.428.456-.874.9-1.337,1.324a21.719,21.719,0,0,1-1.67,1.4.132.132,0,0,1-.063.045c-.086.073-.182.144-.277.214-.254.186-.511.368-.777.545-.229.149-.462.3-.7.446-.7.434-1.446.841-2.217,1.215l-.365.173a.33.33,0,0,1-.051.024c-.272.126-.548.253-.825.368a27.288,27.288,0,0,1-5.072,1.649,36.917,36.917,0,0,1-12.073.448c-.2-.017-.409-.044-.608-.074-.065,0-.126-.012-.183-.02-.371-.052-.742-.1-1.111-.164,0,0,0,0-.006,0a56.96,56.96,0,0,1-7.46-1.717,78.279,78.279,0,0,1-12.23-4.893c-.014,0-.022-.011-.035-.016-.739-.365-1.463-.74-2.188-1.12-1.138-.6-2.256-1.221-3.35-1.855-.174-.1-.351-.2-.522-.305a77.923,77.923,0,0,1-11.319-7.926c-.821-.712-1.64-1.388-2.448-2.036-.318-.259-.64-.509-.959-.753-9-7-17.17-10.128-26.066-9.831-.429.01-.859.035-1.294.064-.929.064-1.873.163-2.822.305-.714.1-1.43.226-2.157.37-.073.013-.142.027-.216.045-.115.02-.232.045-.349.074a1.709,1.709,0,0,1-.151-.159c.069-.019.145-.036.217-.049.106-.023.219-.048.323-.067.866-.181,1.723-.326,2.565-.441.928-.134,1.837-.229,2.737-.286.425-.031.843-.05,1.263-.063a32.749,32.749,0,0,1,10.249,1.288c.106.027.211.058.316.089a47.377,47.377,0,0,1,15.388,8.415c.317.249.634.5.957.758q1.268,1.011,2.568,2.136a77.967,77.967,0,0,0,11.274,7.9c.173.1.351.2.525.3q1.6.933,3.277,1.813c.745.4,1.5.786,2.263,1.163.069.036.14.067.208.1a68.05,68.05,0,0,0,20.726,6.692c.2.026.406.048.608.073a36.767,36.767,0,0,0,12.033-.448,27.841,27.841,0,0,0,5.93-2.027c.121-.058.238-.117.358-.175.791-.388,1.556-.809,2.279-1.256.2-.128.4-.256.6-.385q.418-.278.811-.575a2.323,2.323,0,0,0,.191-.141c.052-.039.1-.078.149-.118a21.907,21.907,0,0,0,1.682-1.425c.455-.419.9-.862,1.32-1.315a.512.512,0,0,0,.057-.057c.086-.088.172-.181.251-.277a41.86,41.86,0,0,0,2.944-3.625c.094-.13.186-.261.28-.392.759-1.047,1.486-2.117,2.19-3.176,3.784-5.691,6.244-12.236,8.613-18.569,1.111-2.968,2.249-6.008,3.53-8.964.149-.348.3-.693.455-1.044.472-1.048.96-2.082,1.474-3.1a42.168,42.168,0,0,1,9.74-12.855c.134-.119.272-.235.417-.351.614-.515,1.259-1.011,1.93-1.48a29.672,29.672,0,0,1,10.606-4.806c.235-.058.468-.107.706-.155,5.427-1.112,10.771-.652,16.3-.178.455.037.9.077,1.363.115.212.019.425.039.639.052a61.579,61.579,0,0,0,13.3,0,34.454,34.454,0,0,0,11.286-3.486c.094-.046.192-.1.288-.147,6.227-3.241,11.235-8.15,16.158-13.487.052-.059.109-.116.156-.171.982-1.064,1.96-2.144,2.939-3.229,2.845-3.148,5.743-6.359,8.906-9.358.074-.067.145-.14.22-.207a63.215,63.215,0,0,1,7.3-5.993Z" transform="translate(-300.908 -252.776)"/></g></g></g><path class="di" d="M516.628,619.19c0,12.837-74.381,23.243-166.133,23.243S184.36,632.026,184.36,619.19s74.383-23.246,166.134-23.246S516.628,606.351,516.628,619.19Z" transform="translate(-179.628 -87.98)"/></g></svg>