<svg xmlns="http://www.w3.org/2000/svg" xmlns:xlink="http://www.w3.org/1999/xlink" width="1277.386" height="539.514" viewBox="0 0 1277.386 539.514"><defs><style>.a{opacity:0.04;mix-blend-mode:multiply;isolation:isolate;}.b{fill:url(#a);}.c{fill:url(#b);}.d{fill:url(#c);}.e{fill:url(#d);}.f{fill:url(#e);}.g{fill:url(#f);}.h{fill:url(#g);}.i{fill:url(#h);}.j{fill:url(#i);}.k{fill:url(#j);}.l{fill:url(#k);}.m{fill:url(#l);}.n{fill:url(#m);}.o{fill:url(#n);}.p{fill:url(#o);}.q{fill:url(#p);}.r{fill:url(#q);}.s{fill:url(#r);}.t{fill:url(#s);}.u{fill:url(#t);}.v{fill:url(#u);}.w{fill:url(#v);}.x{fill:url(#w);}.y{fill:url(#x);}.z{fill:url(#y);}.aa{fill:url(#z);}.ab{fill:url(#aa);}.ac{fill:url(#ab);}.ad{fill:url(#ac);}.ae{fill:url(#ad);}.af{fill:url(#ae);}.ag{fill:url(#af);}.ah{fill:url(#ag);}.ai{fill:url(#ah);}.aj{fill:url(#ai);}.ak{fill:url(#aj);}.al{fill:url(#ak);}.am{fill:url(#al);}.an{fill:url(#am);}.ao{fill:url(#an);}.ap{fill:url(#ao);}.aq{fill:url(#ap);}.ar{fill:url(#aq);}.as{fill:url(#ar);}.at{fill:url(#as);}.au{fill:url(#at);}.av{fill:url(#au);}.aw{fill:url(#av);}.ax{fill:url(#aw);}.ay{fill:url(#ax);}.az{fill:url(#ay);}.ba{fill:url(#az);}.bb{fill:url(#ba);}.bc{fill:url(#bb);}.bd{fill:url(#bc);}.be{fill:url(#bd);}.bf{fill:url(#be);}.bg{fill:url(#bf);}.bh{fill:url(#bg);}.bi{fill:url(#bh);}.bj{fill:url(#bi);}.bk{fill:url(#bj);}.bl{fill:url(#bk);}.bm{fill:url(#bl);}.bn{fill:url(#bm);}.bo{fill:url(#bn);}.bp{fill:url(#bo);}.bq{fill:url(#bp);}.br{fill:url(#bq);}.bs{fill:url(#br);}.bt{fill:url(#bs);}.bu{fill:url(#bt);}.bv{fill:url(#bu);}.bw{fill:url(#bv);}.bx{fill:url(#bw);}.by{fill:url(#bx);}.bz{fill:url(#by);}.ca{fill:url(#bz);}.cb{fill:url(#ca);}.cc{fill:url(#cb);}.cd{fill:url(#cc);}.ce{fill:url(#cd);}.cf{fill:url(#ce);}.cg{fill:url(#cf);}.ch{fill:url(#cg);}.ci{fill:url(#ch);}.cj{fill:url(#ci);}.ck{fill:url(#ck);}.cl{fill:url(#cl);}.cm{fill:url(#cm);}.cn{fill:url(#co);}.co{fill:url(#cp);}.cp{fill:url(#cq);}.cq{fill:url(#cr);}.cr{fill:url(#cs);}.cs{fill:url(#ct);}.ct{fill:url(#cu);}.cu{fill:url(#cv);}.cv{fill:url(#cw);}.cw{fill:url(#cx);}.cx{fill:url(#cy);}.cy{fill:url(#cz);}.cz{fill:url(#da);}.da{fill:url(#db);}.db{fill:url(#dc);}.dc{fill:url(#dd);}.dd{fill:url(#de);}.de{fill:url(#df);}.df{fill:url(#dg);}.dg{fill:url(#dh);}.dh{fill:url(#di);}.di{fill:url(#dj);}</style><linearGradient id="a" x1="10.14" y1="-6.108" x2="40.373" y2="-34.373" gradientUnits="objectBoundingBox"><stop offset="0" stop-color="#0e1147"/><stop offset="0.522" stop-color="#cb1f57"/><stop offset="1" stop-color="#c1b578"/></linearGradient><linearGradient id="b" x1="1.683" y1="0.113" x2="7.658" y2="-2.509" xlink:href="#a"/><linearGradient id="c" x1="6.428" y1="-5.177" x2="26.795" y2="-30.71" xlink:href="#a"/><linearGradient id="d" x1="7.1" y1="-0.884" x2="35.551" y2="-8.41" xlink:href="#a"/><linearGradient id="e" x1="-7.121" y1="3.569" x2="28.101" y2="-29.315" xlink:href="#a"/><linearGradient id="f" x1="-5.696" y1="1.825" x2="20.094" y2="-10.243" xlink:href="#a"/><linearGradient id="g" x1="-33.688" y1="20.788" x2="30.552" y2="-50.189" xlink:href="#a"/><linearGradient id="h" x1="-74.723" y1="6.615" x2="71.144" y2="-15.63" xlink:href="#a"/><linearGradient id="i" x1="5.268" y1="-4.706" x2="32.328" y2="-39.16" xlink:href="#a"/><linearGradient id="j" x1="2.983" y1="-0.815" x2="21.923" y2="-11.573" xlink:href="#a"/><linearGradient id="k" x1="6.137" y1="-1.291" x2="62.147" y2="-18.437" xlink:href="#a"/><linearGradient id="l" x1="7.21" y1="-1.505" x2="63.196" y2="-18.647" xlink:href="#a"/><linearGradient id="m" x1="-8.578" y1="5.434" x2="19.892" y2="-26.411" xlink:href="#a"/><linearGradient id="n" x1="-26.415" y1="2.197" x2="49.255" y2="-7.263" xlink:href="#a"/><linearGradient id="o" x1="-8.994" y1="4.871" x2="15.849" y2="-17.379" xlink:href="#a"/><linearGradient id="p" x1="-8.687" y1="4.682" x2="16.157" y2="-17.562" xlink:href="#a"/><linearGradient id="q" x1="8.313" y1="-7.537" x2="40.957" y2="-48.07" xlink:href="#a"/><linearGradient id="r" x1="9.237" y1="-1.105" x2="53.848" y2="-10.55" xlink:href="#a"/><linearGradient id="s" x1="6.99" y1="-2.895" x2="46.224" y2="-25.414" xlink:href="#a"/><linearGradient id="t" x1="7.902" y1="-3.246" x2="47.133" y2="-25.785" xlink:href="#a"/><linearGradient id="u" x1="8.343" y1="-3.415" x2="47.544" y2="-25.945" xlink:href="#a"/><linearGradient id="v" x1="7.43" y1="-3.064" x2="46.64" y2="-25.582" xlink:href="#a"/><linearGradient id="w" x1="-25.28" y1="15.817" x2="28.89" y2="-45.21" xlink:href="#a"/><linearGradient id="x" x1="-70.853" y1="4.466" x2="72.02" y2="-10.406" xlink:href="#a"/><linearGradient id="y" x1="-24.313" y1="12.172" x2="23.753" y2="-29.867" xlink:href="#a"/><linearGradient id="z" x1="-23.743" y1="11.853" x2="24.267" y2="-30.199" xlink:href="#a"/><linearGradient id="aa" x1="-23.448" y1="11.699" x2="24.512" y2="-30.383" xlink:href="#a"/><linearGradient id="ab" x1="-24.034" y1="12.01" x2="23.998" y2="-30.007" xlink:href="#a"/><linearGradient id="ac" x1="-60.895" y1="33.405" x2="37.446" y2="-62.605" xlink:href="#a"/><linearGradient id="ad" x1="-46.008" y1="9.838" x2="27.244" y2="-16.834" xlink:href="#a"/><linearGradient id="ae" x1="-42.854" y1="33.725" x2="24.586" y2="-59.771" xlink:href="#a"/><linearGradient id="af" x1="-42.596" y1="33.432" x2="24.902" y2="-60.153" xlink:href="#a"/><linearGradient id="ag" x1="-42.713" y1="33.626" x2="24.727" y2="-60.032" xlink:href="#a"/><linearGradient id="ah" x1="4.913" y1="-4.268" x2="34.361" y2="-41.672" xlink:href="#a"/><linearGradient id="ai" x1="3.914" y1="-0.609" x2="35.366" y2="-11.621" xlink:href="#a"/><linearGradient id="aj" x1="4.588" y1="-4.083" x2="34.035" y2="-41.469" xlink:href="#a"/><linearGradient id="ak" x1="3.547" y1="-0.55" x2="35.011" y2="-11.563" xlink:href="#a"/><linearGradient id="al" x1="1.456" y1="-0.764" x2="14.887" y2="-17.129" xlink:href="#a"/><linearGradient id="am" x1="-16.873" y1="10.389" x2="31.353" y2="-42.94" xlink:href="#a"/><linearGradient id="an" x1="-36.478" y1="3.826" x2="60.471" y2="-12.846" xlink:href="#a"/><linearGradient id="ao" x1="-18.667" y1="11.634" x2="29.541" y2="-41.698" xlink:href="#a"/><linearGradient id="ap" x1="-40.06" y1="4.227" x2="56.581" y2="-12.447" xlink:href="#a"/><linearGradient id="aq" x1="-7.847" y1="7.675" x2="12.274" y2="-24.788" xlink:href="#a"/><linearGradient id="ar" x1="-18.278" y1="15.579" x2="26.884" y2="-52.567" xlink:href="#a"/><linearGradient id="as" x1="-25.274" y1="17.693" x2="33.635" y2="-56.592" xlink:href="#a"/><linearGradient id="at" x1="-31.254" y1="5.831" x2="38.159" y2="-15.972" xlink:href="#a"/><linearGradient id="au" x1="-26.624" y1="18.747" x2="32.311" y2="-55.619" xlink:href="#a"/><linearGradient id="av" x1="-10.259" y1="77.333" x2="12.107" y2="-219.468" xlink:href="#a"/><linearGradient id="aw" x1="-10.966" y1="24.302" x2="12.682" y2="-66.566" xlink:href="#a"/><linearGradient id="ax" x1="-28.101" y1="45.988" x2="31.406" y2="-129.739" xlink:href="#a"/><linearGradient id="ay" x1="-69.778" y1="43.591" x2="40.458" y2="-78.519" xlink:href="#a"/><linearGradient id="az" x1="-142.401" y1="14.189" x2="78.542" y2="-23.935" xlink:href="#a"/><linearGradient id="ba" x1="-71.772" y1="44.88" x2="38.754" y2="-77.291" xlink:href="#a"/><linearGradient id="bb" x1="-145.923" y1="14.617" x2="74.749" y2="-23.566" xlink:href="#a"/><linearGradient id="bc" x1="-29.949" y1="27.916" x2="16.088" y2="-46.471" xlink:href="#a"/><linearGradient id="bd" x1="1.964" y1="-2.965" x2="66.478" y2="-59.07" xlink:href="#a"/><linearGradient id="be" x1="0.934" y1="-0.715" x2="36.242" y2="-23.06" xlink:href="#a"/><linearGradient id="bf" x1="-0.245" y1="-1.733" x2="64.211" y2="-57.82" xlink:href="#a"/><linearGradient id="bg" x1="-0.276" y1="-0.226" x2="35.013" y2="-22.538" xlink:href="#a"/><linearGradient id="bh" x1="0.264" y1="-0.485" x2="27.872" y2="-24.867" xlink:href="#a"/><linearGradient id="bi" x1="0.276" y1="-0.814" x2="32.69" y2="-32.294" xlink:href="#a"/><linearGradient id="bj" x1="12.739" y1="-11.345" x2="56.67" y2="-65.72" xlink:href="#a"/><linearGradient id="bk" x1="4.633" y1="-45.283" x2="21.203" y2="-275.03" xlink:href="#a"/><linearGradient id="bl" x1="11.933" y1="-10.795" x2="55.814" y2="-65.211" xlink:href="#a"/><linearGradient id="bm" x1="6.268" y1="-3.107" x2="31.188" y2="-22.185" xlink:href="#a"/><linearGradient id="bn" x1="11.128" y1="-10.204" x2="55.022" y2="-64.559" xlink:href="#a"/><linearGradient id="bo" x1="5.813" y1="-2.906" x2="30.728" y2="-21.983" xlink:href="#a"/><linearGradient id="bp" x1="2.593" y1="-2.932" x2="12.633" y2="-22.595" xlink:href="#a"/><linearGradient id="bq" x1="-5.634" y1="0.686" x2="75.443" y2="-77.27" xlink:href="#a"/><linearGradient id="br" x1="-1.707" y1="0.871" x2="23.578" y2="-31.155" xlink:href="#a"/><linearGradient id="bs" x1="-16.63" y1="9.063" x2="24.637" y2="-30.647" xlink:href="#a"/><linearGradient id="bt" x1="-8.576" y1="2.964" x2="14.091" y2="-8.585" xlink:href="#a"/><linearGradient id="bu" x1="-15.926" y1="8.585" x2="25.422" y2="-31.146" xlink:href="#a"/><linearGradient id="bv" x1="-9.172" y1="9.513" x2="14.81" y2="-33.751" xlink:href="#a"/><linearGradient id="bw" x1="-59.561" y1="33.01" x2="22.747" y2="-46.162" xlink:href="#a"/><linearGradient id="bx" x1="-22.183" y1="10.693" x2="8.873" y2="-13.865" xlink:href="#a"/><linearGradient id="by" x1="-59.14" y1="32.714" x2="23.142" y2="-46.448" xlink:href="#a"/><linearGradient id="bz" x1="-42.486" y1="26.471" x2="16.482" y2="-36.684" xlink:href="#a"/><linearGradient id="ca" x1="-12.473" y1="6.343" x2="36.171" y2="-40.536" xlink:href="#a"/><linearGradient id="cb" x1="-5.616" y1="2.215" x2="18.198" y2="-11.446" xlink:href="#a"/><linearGradient id="cc" x1="-11.805" y1="5.903" x2="36.827" y2="-40.951" xlink:href="#a"/><linearGradient id="cd" x1="-7.056" y1="6.157" x2="22.203" y2="-40.748" xlink:href="#a"/><linearGradient id="ce" x1="3.735" y1="-3.24" x2="45.046" y2="-42.975" xlink:href="#a"/><linearGradient id="cf" x1="2.565" y1="-0.754" x2="24.937" y2="-12.537" xlink:href="#a"/><linearGradient id="cg" x1="4.657" y1="-3.828" x2="45.959" y2="-43.561" xlink:href="#a"/><linearGradient id="ch" x1="2.671" y1="-5.908" x2="25.36" y2="-64.812" xlink:href="#a"/><linearGradient id="ci" x1="-89.538" y1="6.832" x2="65.819" y2="-13.224" xlink:href="#a"/><linearGradient id="ck" x1="-91.672" y1="6.951" x2="64.847" y2="-13.106" xlink:href="#a"/><linearGradient id="cl" x1="-20.632" y1="49.772" x2="15.286" y2="-103.571" xlink:href="#a"/><linearGradient id="cm" x1="-20.375" y1="49.077" x2="15.574" y2="-104.535" xlink:href="#a"/><linearGradient id="co" x1="-3.523" y1="1.261" x2="23.194" y2="-13.77" xlink:href="#a"/><linearGradient id="cp" x1="-27.691" y1="9.535" x2="7.858" y2="-10.458" xlink:href="#a"/><linearGradient id="cq" x1="11.32" y1="-10.575" x2="80.516" y2="-85.382" xlink:href="#a"/><linearGradient id="cr" x1="16.501" y1="-2.606" x2="129.15" y2="-25.03" xlink:href="#a"/><linearGradient id="cs" x1="9.439" y1="-9.319" x2="78.544" y2="-84.211" xlink:href="#a"/><linearGradient id="ct" x1="13.485" y1="-2.383" x2="126.657" y2="-26.134" xlink:href="#a"/><linearGradient id="cu" x1="7.654" y1="-8.085" x2="76.798" y2="-82.888" xlink:href="#a"/><linearGradient id="cv" x1="10.595" y1="-1.999" x2="123.819" y2="-25.753" xlink:href="#a"/><linearGradient id="cw" x1="5.762" y1="-6.806" x2="74.911" y2="-81.747" xlink:href="#a"/><linearGradient id="cx" x1="7.565" y1="-1.521" x2="121.668" y2="-24.474" xlink:href="#a"/><linearGradient id="cy" x1="1.539" y1="-1.769" x2="12.786" y2="-23.039" xlink:href="#a"/><linearGradient id="cz" x1="1.605" y1="-1.84" x2="12.847" y2="-22.964" xlink:href="#a"/><linearGradient id="da" x1="-88.161" y1="13.31" x2="39.259" y2="-19.522" xlink:href="#a"/><linearGradient id="db" x1="0.256" y1="0.469" x2="0.918" y2="-1.325" xlink:href="#a"/><linearGradient id="dc" x1="0.268" y1="0.439" x2="0.925" y2="-1.429" xlink:href="#a"/><linearGradient id="dd" x1="0.28" y1="0.406" x2="0.933" y2="-1.555" xlink:href="#a"/><linearGradient id="de" x1="0.296" y1="0.369" x2="0.938" y2="-1.656" xlink:href="#a"/><linearGradient id="df" x1="0.315" y1="0.324" x2="0.941" y2="-1.759" xlink:href="#a"/><linearGradient id="dg" x1="0.332" y1="0.305" x2="0.947" y2="-1.796" xlink:href="#a"/><linearGradient id="dh" x1="0.342" y1="0.325" x2="0.957" y2="-1.731" xlink:href="#a"/><linearGradient id="di" x1="0.334" y1="0.377" x2="0.976" y2="-1.634" xlink:href="#a"/><linearGradient id="dj" x1="0.359" y1="0.366" x2="0.979" y2="-1.6" xlink:href="#a"/></defs><g class="a" transform="translate(-131.512 -56.727)"><path class="b" d="M168.93,324.762a12.9,12.9,0,1,1-8.71-16.378A13.152,13.152,0,0,1,168.93,324.762Z"/><path class="c" d="M198.4,252.932c.322-6,.66-12.128,1.066-18.372-1.642-.8-3.3-1.576-4.961-2.329q-.867,10.456-1.64,20.4c-.39,4.427-.707,8.776-1.027,13.038,1.92.72,3.8,1.454,5.7,2.212Q197.964,260.587,198.4,252.932Zm-16.516-26.166c-2.41-1-4.871-1.959-7.324-2.891a48,48,0,0,0-1.994,20.88,43.278,43.278,0,0,0,1.468,7.319c.381,1.42.621,2.26.668,2.434a87,87,0,0,1,1.012-9.759A53.4,53.4,0,0,1,181.889,226.766Zm64.85-98.625q-7-6.171-14.353-12.143c-.185.222-.375.465-.578.673-6.065,6.641-12.154,12.856-18.594,18.691q10.187,7.105,19.768,14.607A76.165,76.165,0,0,0,246.739,128.141Zm15.493,114.068c.032-.375.058-.736.069-1.114a57.441,57.441,0,0,0-.5-10.54c-1.537-11.446-7.14-22.1-15.674-29.134a42.978,42.978,0,0,0-28.241-9.872,44.525,44.525,0,0,0-15.361,2.97c.229-2.516.483-5.022.729-7.564.485-4.869,1-9.788,1.631-14.757,1.508-.864,2.989-1.769,4.444-2.691.378-.2.721-.451,1.075-.665a104.6,104.6,0,0,0,9.843-7.081,91.026,91.026,0,0,0,11.984-10.976c.262-.262.505-.539.747-.816a76.165,76.165,0,0,0,13.757-21.828c.132-.285.237-.578.333-.85.174-.373.295-.747.438-1.107a173.092,173.092,0,0,0,7.514-24.7,11.423,11.423,0,0,0,.2-1.153,64.146,64.146,0,0,0,1.156-17.374c-.084-3.728-.855-6.305-1.864-11.338a43.108,43.108,0,0,0-2.365-8.29,11.4,11.4,0,0,0-8.334-6.509c-7.994-.734-12.755,3.2-16.042,5.973a39.619,39.619,0,0,0-4.288,4.895,26.3,26.3,0,0,0-1.608,2.247l-.346.515c-.05.087-.1.116-.135.185-.19.338-.177.372-.314.617l-.153.27-.533,1.056c-3.871,6.981-5.36,14.062-6.733,20.787-.4,1.978-.814,3.927-1.215,5.907-.079.343-.134.662-.211,1.006-.871,4.243-1.729,8.467-2.567,12.644-1.378,5.88-2.547,11.718-3.588,17.519-.074.4-.15.8-.213,1.172-.687,3.908-1.31,7.766-1.854,11.642a135.445,135.445,0,0,1-13.54,9.275l-3.7,2.2-1.1.65-3.757,2.257c-2.8,1.637-5.851,3.633-9,5.846A114.66,114.66,0,0,0,155.7,177.611c-.25.237-.5.488-.744.76a97.337,97.337,0,0,0-13.268,16.637,63.054,63.054,0,0,0-7.229,15.248,6.885,6.885,0,0,0-.309.974,55.518,55.518,0,0,0-1.421,28.315,54.591,54.591,0,0,0,3.866,11.446l.515,1.083a63.015,63.015,0,0,0,18.826,22.493,83.924,83.924,0,0,0,34.218,14.8c-.287,3.778-.583,7.464-.916,11.013-.031.369-.069.7-.084,1.04-.219,2.347-.454,4.657-.708,6.9-.243,10.747-4.161,19.816-9.806,25.393-.328.316-.655.639-1.025.932a19.916,19.916,0,0,1-8.776,4.708,18.508,18.508,0,0,1-17.347-5.846l-.021-.013a10.921,10.921,0,0,1-.924-1.131,8.089,8.089,0,0,1-.745-1.035,12.973,12.973,0,0,1-1.566-2.988c-2.223-5.537-.892-8.764-1.117-8.89l-3.3-.14a20.8,20.8,0,0,0,1.3,8.253c.214.621.449,1.249.75,1.923.285.594.591,1.209.953,1.819a8.815,8.815,0,0,0,.61,1.019,24.3,24.3,0,0,0,6.133,6.545,24.611,24.611,0,0,0,15.708,4.455c5.251-.3,10.915-3.013,15.25-7.5.285-.314.576-.621.856-.967a22.126,22.126,0,0,0,1.845-2.35,32.328,32.328,0,0,0,5.207-11.055c.985-4.391,1.4-8.246,1.967-12.518.188-1.864.386-3.783.57-5.7.022-.346.069-.7.1-1.066.338-3.866.684-7.853.985-11.916a80.346,80.346,0,0,0,31.843-2.789c1.354-.478,2.7-.987,4-1.584a6.358,6.358,0,0,0,.938-.414,49.546,49.546,0,0,0,20.719-17.445l.554-.837c.5-.784.935-1.566,1.373-2.35A51.9,51.9,0,0,0,262.232,242.209ZM211.11,133.863q1.98-9.7,4.515-19.439a87.415,87.415,0,0,1,3-9.32c.108-.3.214-.589.34-.869A88.828,88.828,0,0,1,227.5,87.86c1.1-1.645,2.716-4.33,4.649-6.952.174-.254.383-.52.589-.79,3.483-4.5,7.892-8.383,12.222-5.608,4.452,2.87,3.327,9.883,2.113,14.263-.286,1.048-.613,2.1-.962,3.142-.1.351-.2.676-.332,1.017a68.826,68.826,0,0,1-12.8,22.427c-.179.222-.385.43-.591.639-.185.222-.375.465-.578.673-6.065,6.641-12.154,12.856-18.594,18.691-.261.264-.517.507-.805.761-.708.631-1.415,1.262-2.144,1.882.193-.977.388-1.954.6-2.96C210.936,134.644,211.015,134.251,211.11,133.863ZM162.781,265.956a58.075,58.075,0,0,1-9-10.622c-.245-.4-.486-.768-.718-1.135a43.192,43.192,0,0,1-6.353-17.516,38.852,38.852,0,0,1,3.372-21.078c.127-.341.269-.644.412-.948a49.358,49.358,0,0,1,5.78-9.18c5.52-6.942,12.681-12.811,20.454-17.881a10.2,10.2,0,0,1,.962-.61c2.13-1.394,4.34-2.716,6.547-3.981,2.514-1.45,5.228-2.934,8.389-4.431l4.28-2.136c1.029-.481,2.078-.985,3.113-1.523-.42,3.907-.874,7.776-1.318,11.615-.351,3.416-.715,6.8-1.05,10.141a.838.838,0,0,1-.212.116c-.33.169-.67.359-.977.544a46.993,46.993,0,0,0-18.453,18.443,47.916,47.916,0,0,0-3.113,7.142c-.116.317-.235.631-.33.959a48,48,0,0,0-1.994,20.88,43.278,43.278,0,0,0,1.468,7.319c.381,1.42.621,2.26.668,2.434a87,87,0,0,1,1.012-9.759,53.4,53.4,0,0,1,6.17-17.983c.161-.291.351-.571.515-.864a47.392,47.392,0,0,1,3.369-4.821,38.691,38.691,0,0,1,10.467-9.257c-.589,6.582-1.128,13.012-1.638,19.341-.047.353-.063.7-.092,1.066q-.867,10.456-1.64,20.4c-.39,4.427-.707,8.776-1.027,13.038-.021.311-.037.6-.066.9q-.553,7.629-1.037,14.858A66.317,66.317,0,0,1,162.781,265.956Zm85.2-2.2a35.77,35.77,0,0,1-21.849,17.782l-.034.011c-.4.129-.766.222-1.167.346l-.019-.008a63.142,63.142,0,0,1-28.331.869c.325-4.526.6-9.191.893-13.968.013-.288.042-.594.066-.911q.42-7.295.861-14.949c.322-6,.66-12.128,1.066-18.372.027-.364.04-.71.072-1.077.477-7.9,1.048-16.027,1.724-24.294a37.062,37.062,0,0,1,11.184-2.86,9.922,9.922,0,0,1,1.592-.11,24.21,24.21,0,0,1,3.462-.037c12.473.618,25.337,8.747,31.293,23.871.217.5.4,1.016.576,1.55.222.6.412,1.207.607,1.811a42.173,42.173,0,0,1-.956,28.107c-.19.451-.39.924-.612,1.362C248.275,263.189,248.149,263.469,247.985,263.76Z"/><path class="d" d="M312.4,428.612c1.531,7.882-5.692,15.9-16.2,17.978-10.461,2.039-20.214-2.64-21.783-10.514-1.505-7.857,5.735-15.9,16.217-17.959S310.852,420.768,312.4,428.612Z"/><path class="e" d="M312.293,434.025l-5.091-1.138,22.422-98.744,5.059,1.149Z"/><path class="f" d="M804.026,295.2c3.908,3.559,3.279,10.638-1.452,15.873-4.716,5.21-11.707,6.612-15.636,3.071-3.892-3.543-3.258-10.635,1.457-15.866S800.108,291.676,804.026,295.2Z"/><path class="g" d="M806.091,298.105l-3.142,1.41L775.764,238.6l3.116-1.392Z"/><path class="h" d="M1177.778,309.9c-1.347-2.318.063-5.64,3.126-7.412,3.1-1.813,6.69-1.37,8.042.925,1.31,2.328-.089,5.661-3.157,7.44C1182.673,312.641,1179.109,312.223,1177.778,309.9Z"/><path class="i" d="M1182.652,341.513l-1.716.177-3.644-33.593,1.732-.2Z"/><path class="j" d="M426.525,410.3c-.57,5.976-7.5,10.163-15.446,9.384-7.99-.8-13.967-6.263-13.36-12.238s7.525-10.178,15.467-9.389C421.16,398.845,427.127,404.332,426.525,410.3Z"/><path class="k" d="M421.773,415.7a1.949,1.949,0,0,1-.75-2.656l37.387-65.966A1.949,1.949,0,0,1,461.8,349l-37.387,65.972A1.912,1.912,0,0,1,421.773,415.7Z"/><path class="l" d="M464.942,389.144a1.908,1.908,0,0,1-.306-3.163c6.411-5.373,2.762-13.513-1.526-21.373l-.824-1.508c-4.473-8.505-4.779-12.085-3.744-16.088a1.978,1.978,0,0,1,2.4-1.391,1.956,1.956,0,0,1,1.4,2.382c-.682,2.582-.851,5.206,3.416,13.267l.782,1.476c3.5,6.422,10.017,18.353.618,26.2A1.929,1.929,0,0,1,464.942,389.144Z"/><path class="m" d="M456.013,404.852a2.038,2.038,0,0,1-.523-.428,1.979,1.979,0,0,1,.248-2.767c6.4-5.349,2.751-13.487-1.515-21.334l-.861-1.51c-4.452-8.507-4.758-12.09-3.728-16.083a1.963,1.963,0,0,1,3.8.98c-.671,2.59-.851,5.2,3.385,13.281l.8,1.457c3.491,6.435,10.039,18.343.623,26.206A1.972,1.972,0,0,1,456.013,404.852Z"/><path class="n" d="M950.47,316.091c2.889,5.249-.449,12.619-7.445,16.489-7.04,3.847-15.072,2.717-17.944-2.553-2.873-5.246.459-12.644,7.461-16.484C939.55,309.681,947.587,310.84,950.47,316.091Z"/><path class="o" d="M949.6,323.244a1.94,1.94,0,0,1-2.128-1.78l-6.432-75.548a1.947,1.947,0,1,1,3.881-.314l6.432,75.546A1.907,1.907,0,0,1,949.6,323.244Z"/><path class="p" d="M970.194,276.946a1.449,1.449,0,0,1-.687-.09,1.9,1.9,0,0,1-1.357-2.355c2.26-8.046-5.344-12.7-13.339-16.769l-1.521-.771c-8.48-4.5-10.767-7.277-12.177-11.171a1.994,1.994,0,0,1,1.2-2.506,1.967,1.967,0,0,1,2.487,1.167c.9,2.534,2.223,4.781,10.324,9.03l1.479.773c6.521,3.335,18.635,9.493,15.292,21.279A1.965,1.965,0,0,1,970.194,276.946Z"/><path class="q" d="M971.72,294.934a2.138,2.138,0,0,1-.687-.058,1.947,1.947,0,0,1-1.341-2.413c2.244-8.037-5.349-12.671-13.318-16.732l-1.558-.789c-8.491-4.494-10.751-7.267-12.161-11.159a1.955,1.955,0,1,1,3.675-1.333c.919,2.522,2.25,4.782,10.3,9.054l1.489.737c6.522,3.334,18.63,9.476,15.314,21.268A1.935,1.935,0,0,1,971.72,294.934Z"/><path class="r" d="M508.651,581.013c1.151,4.9-3.169,10.121-9.685,11.655-6.5,1.552-12.748-1.146-13.888-6.023-1.168-4.9,3.163-10.105,9.663-11.639C501.257,573.441,507.484,576.163,508.651,581.013Z"/><path class="s" d="M506.913,585.055h0a1.652,1.652,0,0,1-1.315-1.911l14.269-76.311a1.64,1.64,0,0,1,1.906-1.294h0a1.617,1.617,0,0,1,1.294,1.893l-14.258,76.327A1.625,1.625,0,0,1,506.913,585.055Z"/><path class="t" d="M536.316,538.9a1.414,1.414,0,0,1-.533-.232,1.6,1.6,0,0,1-.555-2.216c3.623-6-1.489-11.411-7.034-16.467l-1.087-.972c-5.841-5.508-7.05-8.254-7.314-11.707a1.633,1.633,0,0,1,1.5-1.759,1.659,1.659,0,0,1,1.753,1.518c.169,2.247.729,4.352,6.311,9.542l1.024.962c4.52,4.111,12.938,11.776,7.63,20.552A1.656,1.656,0,0,1,536.316,538.9Z"/><path class="u" d="M531.769,564.6a2.182,2.182,0,0,1-.559-.2,1.636,1.636,0,0,1-.539-2.237c3.6-5.991-1.505-11.419-7.034-16.467l-1.077-.962c-5.846-5.507-7.06-8.259-7.335-11.7a1.642,1.642,0,0,1,3.274-.256c.153,2.236.734,4.354,6.289,9.56l1.062.954c4.5,4.113,12.9,11.781,7.6,20.547A1.6,1.6,0,0,1,531.769,564.6Z"/><path class="v" d="M529.372,577.171a1.372,1.372,0,0,1-.56-.221,1.6,1.6,0,0,1-.538-2.239c3.6-5.978-1.511-11.4-7.034-16.442l-1.083-.977c-5.856-5.473-7.071-8.222-7.324-11.691a1.634,1.634,0,1,1,3.258-.256c.148,2.226.745,4.367,6.3,9.56l1.051.946c4.505,4.126,12.933,11.773,7.631,20.571A1.663,1.663,0,0,1,529.372,577.171Z"/><path class="w" d="M534.156,551.357a2.319,2.319,0,0,1-.554-.222,1.621,1.621,0,0,1-.555-2.215c3.618-6-1.478-11.42-7.018-16.473l-1.077-.972c-5.851-5.489-7.071-8.243-7.345-11.7a1.65,1.65,0,0,1,1.52-1.756,1.629,1.629,0,0,1,1.754,1.486c.19,2.266.734,4.373,6.3,9.579l1.035.962c4.515,4.113,12.922,11.783,7.62,20.549A1.612,1.612,0,0,1,534.156,551.357Z"/><path class="x" d="M1129.533,311.965c1.495,2.793-.317,6.624-4.029,8.607-3.7,1.97-7.863,1.317-9.363-1.452-1.473-2.783.338-6.641,4.035-8.592S1128.076,309.227,1129.533,311.965Z"/><path class="y" d="M1129.121,314.7h0a1.056,1.056,0,0,1-1.093-.948l-3.4-48.474a1.037,1.037,0,0,1,.945-1.114h0a1.038,1.038,0,0,1,1.077.961l3.443,48.479A1.057,1.057,0,0,1,1129.121,314.7Z"/><path class="z" d="M1139.662,282.078a1,1,0,0,1-.37-.034,1.025,1.025,0,0,1-.692-1.27c1.225-4.209-2.7-6.67-6.854-8.85l-.813-.431c-4.41-2.389-5.566-3.876-6.268-5.938a1,1,0,0,1,.617-1.289,1.01,1.01,0,0,1,1.3.632c.449,1.341,1.13,2.5,5.329,4.8l.792.43c3.369,1.751,9.684,5.073,7.831,11.232A.936.936,0,0,1,1139.662,282.078Z"/><path class="aa" d="M1140.961,298.382a.7.7,0,0,1-.37-.047.992.992,0,0,1-.686-1.254c1.241-4.19-2.715-6.672-6.87-8.851l-.8-.441c-4.42-2.386-5.587-3.868-6.279-5.919a1.029,1.029,0,0,1,.623-1.3,1.046,1.046,0,0,1,1.3.642c.443,1.317,1.14,2.516,5.333,4.792l.771.414c3.4,1.785,9.7,5.089,7.868,11.241A1.016,1.016,0,0,1,1140.961,298.382Z"/><path class="ab" d="M1141.489,306.375a.844.844,0,0,1-.375-.045,1.021,1.021,0,0,1-.692-1.265c1.246-4.2-2.682-6.675-6.849-8.863l-.787-.412c-4.436-2.392-5.587-3.879-6.289-5.923a.968.968,0,0,1,.607-1.278,1.018,1.018,0,0,1,1.326.621c.448,1.294,1.124,2.508,5.312,4.784l.8.412c3.359,1.78,9.691,5.091,7.869,11.243A1.061,1.061,0,0,1,1141.489,306.375Z"/><path class="ac" d="M1140.311,289.989a.779.779,0,0,1-.375-.056,1.015,1.015,0,0,1-.681-1.262c1.252-4.195-2.719-6.68-6.849-8.85l-.818-.43c-4.415-2.39-5.566-3.869-6.284-5.918a1.066,1.066,0,0,1,.623-1.32,1.045,1.045,0,0,1,1.309.639c.46,1.334,1.146,2.519,5.328,4.8l.771.417c3.385,1.766,9.706,5.083,7.863,11.235A.978.978,0,0,1,1140.311,289.989Z"/><path class="ad" d="M1285.763,289.112c1.267,1.342.839,3.808-.946,5.5s-4.277,1.978-5.566.645c-1.23-1.355-.828-3.818.957-5.511C1282.008,288.048,1284.5,287.774,1285.763,289.112Z"/><path class="ae" d="M1285.953,290.726h0a.591.591,0,0,1-.771-.37l-9.463-26.995a.564.564,0,0,1,.343-.758l.016.008a.6.6,0,0,1,.776.346l9.468,27A.6.6,0,0,1,1285.953,290.726Z"/><path class="af" d="M1286.861,270.569a.8.8,0,0,1-.216.05.624.624,0,0,1-.587-.61c.048-2.59-2.582-3.392-5.28-3.973l-.513-.135c-2.867-.655-3.77-1.32-4.488-2.366a.593.593,0,0,1,.153-.837.559.559,0,0,1,.829.156c.465.681,1.04,1.249,3.786,1.888l.507.113c2.2.476,6.3,1.394,6.21,5.152A.594.594,0,0,1,1286.861,270.569Z"/><path class="ag" d="M1290.124,279.607a.225.225,0,0,1-.2.063.624.624,0,0,1-.6-.646c.069-2.562-2.561-3.343-5.259-3.943l-.528-.1c-2.873-.679-3.76-1.347-4.473-2.387a.574.574,0,0,1,.142-.824.58.58,0,0,1,.84.145c.443.663,1.009,1.233,3.765,1.893l.5.1c2.213.5,6.3,1.386,6.216,5.17A.521.521,0,0,1,1290.124,279.607Z"/><path class="ah" d="M1288.466,274.965c-.063,0-.147.014-.227.014a.582.582,0,0,1-.581-.6c.059-2.569-2.577-3.363-5.259-3.965l-.534-.1c-2.867-.7-3.759-1.334-4.493-2.387a.677.677,0,0,1,.142-.869.644.644,0,0,1,.861.174c.454.69,1.024,1.276,3.76,1.875l.491.132c2.239.5,6.305,1.37,6.236,5.17A.609.609,0,0,1,1288.466,274.965Z"/><path class="ai" d="M315.768,254.027c.713,5.5-4.637,10.673-11.945,11.586-7.287.927-13.788-2.741-14.48-8.217s4.674-10.659,11.961-11.593C308.618,244.879,315.092,248.588,315.768,254.027Z"/><path class="aj" d="M315.367,257.354l-4.842-1.442,20-66.811,4.858,1.447Z"/><path class="ak" d="M362.967,290.47c.7,5.468-4.652,10.648-11.935,11.591-7.319.918-13.824-2.765-14.49-8.238-.7-5.49,4.647-10.67,11.972-11.584C355.785,281.318,362.27,284.993,362.967,290.47Z"/><path class="al" d="M362.745,293.012l-4.864-1.452,20-66.79,4.842,1.452Z"/><path class="am" d="M380.668,232.493l-53.826-31.829,4.378-14.1L385.045,219.4Z"/><path class="an" d="M897.589,212.65c1.78,3.1-.084,7.507-4.187,9.894-4.124,2.382-8.9,1.811-10.683-1.27-1.769-3.089.1-7.5,4.209-9.88S895.815,209.588,897.589,212.65Z"/><path class="ao" d="M898.25,215.568l-3.227.349-4.837-44.722,3.237-.359Z"/><path class="ap" d="M932.1,200.613c1.79,3.081-.079,7.491-4.2,9.878-4.1,2.381-8.877,1.821-10.667-1.257-1.769-3.079.1-7.5,4.2-9.883C925.556,196.964,930.33,197.532,932.1,200.613Z"/><path class="aq" d="M932.711,202.248l-3.269.362-4.821-44.73,3.242-.349Z"/><path class="ar" d="M890.783,177.114l37.773-13.458-1.051-9.7-37.8,13.057Z"/><path class="as" d="M914.06,182.231l-1.9-4.531,15.42-6.5,1.89,4.528Z"/><path class="at" d="M1010.369,236.53c.449,2.733-2.123,5.42-5.756,6.017-3.659.581-6.965-1.14-7.414-3.868-.428-2.73,2.134-5.426,5.761-6.012C1006.6,232.054,1009.936,233.8,1010.369,236.53Z"/><path class="au" d="M1010.058,238.814l-2.445-.639,8.819-33.836,2.445.647Z"/><path class="av" d="M1038.758,237.282c.465,2.733-2.112,5.426-5.761,6.015s-6.96-1.12-7.4-3.855c-.46-2.717,2.133-5.413,5.772-6.009C1035.019,232.807,1038.33,234.549,1038.758,237.282Z"/><rect class="aw" width="34.955" height="2.532" transform="translate(1036.274 237.984) rotate(-75.326)"/><path class="ax" d="M1015.233,208.825l31.135.623,1.917-7.338-31.056-.932Z"/><path class="ay" d="M1030.732,218.94l-.148-3.8,13-.475.137,3.815Z"/><path class="az" d="M1260.848,245.863c.8,1.35-.021,3.3-1.832,4.333-1.79,1.054-3.881.792-4.652-.549-.787-1.349.031-3.277,1.832-4.333C1257.992,244.308,1260.077,244.541,1260.848,245.863Z"/><path class="ba" d="M1261.149,247.147l-1.415.172-2.123-19.544,1.431-.169Z"/><path class="bb" d="M1275.925,240.614c.792,1.339-.048,3.29-1.822,4.323-1.8,1.045-3.876.773-4.668-.56-.766-1.331.063-3.272,1.853-4.317C1273.094,239.03,1275.149,239.273,1275.925,240.614Z"/><path class="bc" d="M1276.184,241.348l-1.415.142-2.128-19.528,1.431-.161Z"/><path class="bd" d="M1257.875,230.341l16.513-5.856-.459-4.248-16.523,5.711Z"/><path class="be" d="M682.813,488.321c2.461,1.666,2.625,5.716.364,8.991-2.275,3.3-6.1,4.594-8.565,2.907s-2.619-5.746-.369-9.031C676.513,487.891,680.347,486.608,682.813,488.321Z"/><path class="bf" d="M662.2,459.462l2.334-1.426,19.824,32.236-2.339,1.423Z"/><path class="bg" d="M704.67,466.7c2.508,1.68,2.64,5.727.375,9-2.234,3.319-6.052,4.594-8.555,2.915-2.466-1.711-2.64-5.756-.375-9.049C698.386,466.293,702.214,464.991,704.67,466.7Z"/><path class="bh" d="M683.579,436.943l2.313-1.447,19.834,32.241-2.339,1.434Z"/><path class="bi" d="M664.8,463.726l23.848-23.832L684.36,432.9,660.333,456.46Z"/><path class="bj" d="M688.4,442.757l1.943,1.967-22.184,21.912-1.938-1.949Z"/><path class="bk" d="M375.44,497.158c-.85,3.615-5.492,5.6-10.345,4.441-4.827-1.193-8.027-5.077-7.15-8.71.882-3.609,5.5-5.621,10.355-4.444C373.127,489.628,376.353,493.528,375.44,497.158Z"/><rect class="bl" width="47.18" height="3.271" transform="matrix(0.61, -0.792, 0.792, 0.61, 371.954, 496.861)"/><path class="bm" d="M411.148,511.892c-.887,3.638-5.5,5.623-10.345,4.438-4.837-1.159-8.048-5.056-7.187-8.705.9-3.6,5.534-5.6,10.376-4.426S412.024,508.258,411.148,511.892Z"/><path class="bn" d="M410.313,513.766l-2.6-2L436.5,474.369l2.587,1.983Z"/><path class="bo" d="M444.723,523.821c-.872,3.628-5.524,5.618-10.345,4.433s-8.053-5.064-7.171-8.705c.881-3.6,5.523-5.624,10.35-4.439C442.394,516.277,445.61,520.193,444.723,523.821Z"/><path class="bp" d="M443.719,525.782l-2.6-1.986L469.9,486.383l2.6,1.993Z"/><path class="bq" d="M396.167,465.363l70.788,30.33,7.076-9.115-71.791-29.107Z"/><path class="br" d="M723.622,405.755a4.813,4.813,0,1,1-6.807.232A4.821,4.821,0,0,1,723.622,405.755Z"/><path class="bs" d="M751.24,419.527l-1.156,1.212L728.4,400.511c.665,3.974.222,7.169-1.267,9.524a9.5,9.5,0,0,1-6.538,4.061l-.269-1.613a7.919,7.919,0,0,0,5.381-3.349c1.584-2.444,1.753-6.077.533-10.817a.8.8,0,0,1,.391-.929.822.822,0,0,1,.972.1Z"/><path class="bt" d="M1028.3,283.306a9.474,9.474,0,1,1-9.711-9.22A9.465,9.465,0,0,1,1028.3,283.306Z"/><path class="bu" d="M1047,340.918l-3.274.09-1.531-58.232c-4.531,6.2-9.463,9.879-14.7,10.978-4.922,1.032-10.087-.256-14.987-3.725l1.869-2.667c4.193,2.978,8.386,4.045,12.426,3.216,5.444-1.159,10.656-5.8,15.488-13.849a1.65,1.65,0,0,1,1.822-.745,1.631,1.631,0,0,1,1.2,1.54Z"/><path class="bv" d="M1028.931,307.555a9.453,9.453,0,1,1-9.727-9.21A9.462,9.462,0,0,1,1028.931,307.555Z"/><path class="bw" d="M1025.224,318.346a20.086,20.086,0,0,1-12.088-4.063l1.88-2.68c4.193,2.967,8.4,4.053,12.426,3.205,5.444-1.146,10.661-5.8,15.472-13.83l2.825,1.679c-5.312,8.83-11.242,14.015-17.621,15.346A14.841,14.841,0,0,1,1025.224,318.346Z"/><path class="bx" d="M1348.291,217.5a4.758,4.758,0,1,1-6.178-2.582A4.771,4.771,0,0,1,1348.291,217.5Z"/><path class="by" d="M1367.217,241.285l-1.494.618-11-27.08c-1.04,3.7-2.725,6.316-4.99,7.752a9.514,9.514,0,0,1-7.694.89l.433-1.6a7.7,7.7,0,0,0,6.379-.676c2.376-1.473,3.992-4.605,4.842-9.228a.843.843,0,0,1,.724-.66.806.806,0,0,1,.85.518Z"/><path class="bz" d="M1352.859,228.807a4.749,4.749,0,1,1-6.189-2.614A4.73,4.73,0,0,1,1352.859,228.807Z"/><path class="ca" d="M1353.012,234.518a9.941,9.941,0,0,1-6.384.219l.422-1.592a7.709,7.709,0,0,0,6.385-.676c2.365-1.508,3.981-4.613,4.858-9.218l1.595.28c-.919,5.112-2.82,8.563-5.561,10.311A9.379,9.379,0,0,1,1353.012,234.518Z"/><path class="cb" d="M854.436,292.418a8.041,8.041,0,1,1-8.872-7.058A8.012,8.012,0,0,1,854.436,292.418Z"/><path class="cc" d="M874.37,339.8l-2.751.306-5.46-49.116c-3.422,5.563-7.346,9.02-11.686,10.348-4.045,1.235-8.539.491-12.933-2.081l1.421-2.424c3.754,2.242,7.366,2.852,10.72,1.854,4.52-1.341,8.6-5.674,12.108-12.824a1.423,1.423,0,0,1,1.473-.761,1.408,1.408,0,0,1,1.152,1.244Z"/><path class="cd" d="M856.7,312.91a8.036,8.036,0,1,1-8.85-7.09A7.978,7.978,0,0,1,856.7,312.91Z"/><path class="ce" d="M854.33,322.278a16.908,16.908,0,0,1-10.487-2.556l1.4-2.408c3.765,2.244,7.367,2.862,10.725,1.83,4.51-1.387,8.6-5.7,12.088-12.8l2.5,1.191c-3.855,7.9-8.513,12.676-13.783,14.237A12.428,12.428,0,0,1,854.33,322.278Z"/><path class="cf" d="M590.792,464.854A9.462,9.462,0,1,1,583.71,453.5,9.432,9.432,0,0,1,590.792,464.854Z"/><path class="cg" d="M594.393,525.323l-3.173-.734,13.164-56.746c-5.956,4.832-11.665,7.179-17.025,6.915-4.974-.222-9.663-2.786-13.529-7.377l2.487-2.113c3.317,3.924,7.066,6.018,11.206,6.231,5.56.257,11.776-2.933,18.461-9.5a1.641,1.641,0,0,1,2.757,1.54Z"/><path class="ch" d="M585.326,488.482a9.465,9.465,0,1,1-7.108-11.348A9.495,9.495,0,0,1,585.326,488.482Z"/><path class="ci" d="M579.016,497.982a19.886,19.886,0,0,1-10.678-6.976l2.482-2.112c3.332,3.937,7.082,6.033,11.232,6.221,5.555.28,11.771-2.921,18.477-9.471l2.266,2.315c-7.367,7.243-14.427,10.741-20.912,10.425A14.941,14.941,0,0,1,579.016,497.982Z"/><path class="cj" d="M1225.124,305.166l-1,.111-4.034-37.371.993-.106Z"/><path class="cj" d="M1225.124,305.166l-1,.111-4.034-37.371.993-.106Z"/><path class="ck" d="M1232.771,301.152l-.95.1-4.045-37.369.966-.108Z"/><path class="cl" d="M1237.809,282.184l-21.582-3.91.164-.99,21.6,3.926Z"/><path class="cm" d="M1237.091,291.578l-21.567-3.929.174-.964,21.572,3.929Z"/><path class="cm" d="M1237.091,291.578l-21.567-3.929.174-.964,21.572,3.929Z"/><path class="cn" d="M799.421,404.036c-19.961,2.574-12.863-20.254-12.863-20.254-4.658,1.566-10.06,2.181-12.2-5.519-2.366-8.422,6.506-20.275-4.2-22.231,0,0,10.35-7.287,13.069,7.419,1.7,9.289-4.583,15.85,7.98,16.574C791.205,380.025,787.033,399.215,799.421,404.036Z"/><path class="co" d="M1394.978,196.99c-15.013,1.936-9.674-15.229-9.674-15.229-3.5,1.18-7.562,1.64-9.173-4.145-1.764-6.335,4.9-15.256-3.142-16.708,0,0,7.763-5.474,9.817,5.579,1.294,6.981-3.448,11.913,6.009,12.454C1388.815,178.941,1385.668,193.368,1394.978,196.99Z"/><path class="cp" d="M610.13,587.963c1.336,2.12.163,5.3-2.667,7.078-2.809,1.8-6.194,1.547-7.541-.573-1.32-2.109-.153-5.291,2.683-7.073C605.425,585.586,608.778,585.85,610.13,587.963Z"/><path class="cq" d="M609.718,591.374a1.121,1.121,0,0,1-1.231-.938l-4.768-31.325a1.1,1.1,0,0,1,2.17-.319l4.748,31.338A1.113,1.113,0,0,1,609.718,591.374Z"/><path class="cr" d="M633.84,577.765c1.357,2.126.148,5.292-2.651,7.084-2.846,1.793-6.194,1.535-7.541-.551-1.362-2.128-.158-5.289,2.641-7.09C629.114,575.405,632.493,575.672,633.84,577.765Z"/><path class="cs" d="M634.479,579.688l-2.186.349-4.721-31.325,2.139-.317Z"/><path class="ct" d="M655.264,566.763c1.357,2.1.148,5.26-2.651,7.068-2.836,1.788-6.215,1.548-7.546-.578-1.336-2.1-.164-5.254,2.672-7.076C650.537,564.374,653.912,564.635,655.264,566.763Z"/><path class="cu" d="M655.807,569.11l-2.149.336L648.9,538.131l2.154-.335Z"/><path class="cv" d="M677.886,555.143c1.331,2.115.174,5.289-2.667,7.068-2.809,1.822-6.183,1.555-7.525-.554-1.362-2.112-.179-5.289,2.641-7.068C673.181,552.79,676.556,553.057,677.886,555.143Z"/><path class="cw" d="M677.464,558.356a1.137,1.137,0,0,1-1.257-.908l-4.658-30.578a1.119,1.119,0,0,1,.935-1.238h0a1.09,1.09,0,0,1,1.241.921l4.652,30.554a1.105,1.105,0,0,1-.913,1.249Z"/><path class="cx" d="M605.715,561.036l-1.4-2.957L672.431,525.7l1.394,2.96Z"/><path class="cy" d="M606.829,570.2l-1.4-2.986,68.132-32.592,1.41,2.952Z"/><path class="cz" d="M1309.489,235.751c-7.884-2.416-1.378-9.719-1.378-9.719-1.991-.217-4.13-.9-3.607-4.151.528-3.527,5.851-6.427,2.186-8.964,0,0,5.075-.966,3.6,4.975-.918,3.744-4.361,5.119.191,7.53C1310.482,225.422,1305.681,231.856,1309.489,235.751Z"/><path class="da" d="M1401.31,169.808c-6.411,1.32-12.6,2.868-18.557,4.594-2.307.647-4.605,1.331-6.854,2.047-41.966,13.212-73.074,34.522-100.877,54.177-.438.319-.893.649-1.331.964-.761.52-1.494,1.045-2.234,1.576-3.7,2.611-7.35,5.212-10.973,7.747-.459.3-.9.612-1.341.924-35.36,24.608-68.861,44.347-118.8,41.54-.919-.039-1.843-.116-2.783-.169-2.989-.235-6.057-.535-9.162-.921a3.345,3.345,0,0,1-.528-.058c-.623-.082-1.247-.137-1.859-.248-.058,0-.137-.016-.195-.016-1.59-.214-3.164-.446-4.78-.7-29.022-4.634-54.333-25.691-80.615-49.108-.7-.655-1.4-1.281-2.107-1.917-1.457-1.283-2.9-2.593-4.367-3.911-5.539-4.977-11.126-9.98-16.761-14.836-.723-.607-1.425-1.238-2.144-1.845-26.255-22.464-53.91-41.86-86.186-43.077-1.088-.056-2.2-.08-3.316-.066-1.79,0-3.591.058-5.413.158A88.361,88.361,0,0,0,909.471,168a95.934,95.934,0,0,0-15.9,4.4c-1.062.375-2.1.766-3.132,1.188l-.016.027c-32.074,12.768-59.8,40.553-75.418,63.286-7.515,10.971-14.491,22.4-21.054,34.042-.724,1.244-1.41,2.477-2.1,3.7-9.637,17.345-18.5,35.1-27.206,52.514-11.681,23.436-23.62,47.313-37.4,70.13-.312.505-.612.985-.908,1.466-1.283,2.078-2.556,4.158-3.86,6.223-1.706,2.693-3.428,5.347-5.207,8A330.573,330.573,0,0,1,693.6,444.616c-.412.475-.824.95-1.225,1.4-.618.739-1.246,1.45-1.9,2.144A147.348,147.348,0,0,1,670.1,467.09c-.729.568-1.479,1.117-2.219,1.645-18.973,13.8-39.779,20.782-62.132,20.793-1,0-2.017-.016-3.026-.056-.5,0-.987-.016-1.468-.05-.612-.016-1.241-.047-1.864-.1-.914-.045-1.838-.121-2.767-.2a103.155,103.155,0,0,1-11.158-1.5,133.207,133.207,0,0,1-18.219-4.652,174.112,174.112,0,0,1-30.295-13.5c-25.564-14.287-51.138-35.867-74.833-63.606-.786-.908-1.536-1.827-2.323-2.741-.85-1-1.685-2.027-2.524-3.057q-7.248-8.729-14.211-18.026c-.845-1.117-1.7-2.273-2.545-3.39-23.467-31.88-44.949-68.728-66.283-113.582-.634-1.328-1.262-2.675-1.944-3.993-1.061-2.244-2.17-4.48-3.273-6.711q-11.114-22.179-23.933-42.927c-3.527-5.735-7.145-11.372-10.909-16.888-1.2-1.848-2.43-3.651-3.671-5.434a.1.1,0,0,0-.063-.1,548.025,548.025,0,0,0-75.419-87.546c-3.015-2.864-6.1-5.7-9.246-8.549q-6.661-6.064-13.63-12.024c-3.68-3.148-7.419-6.295-11.216-9.389l.153-.27c.137-.245.124-.279.314-.617,3.853,3.155,7.628,6.291,11.338,9.486q6.833,5.843,13.373,11.8c3.09,2.781,6.131,5.6,9.115,8.413a545.586,545.586,0,0,1,75.582,87.524c.4.55.808,1.13,1.2,1.7.861,1.241,1.721,2.487,2.535,3.768q6.4,9.395,12.33,19.185,12.064,19.612,22.544,40.529c1.119,2.212,2.233,4.42,3.3,6.667.819,1.634,1.616,3.313,2.4,4.958,21.223,44.62,42.6,81.294,65.945,113.012.835,1.144,1.69,2.3,2.535,3.417q7,9.334,14.274,18.121c.85,1.058,1.732,2.112,2.6,3.129.8.984,1.6,1.925,2.419,2.88,33.015,38.681,69.689,65.291,104.811,76.834a130.69,130.69,0,0,0,17.849,4.571,119.892,119.892,0,0,0,12.156,1.618c.655.04,1.283.069,1.911.1.909.063,1.791.113,2.672.108a2.444,2.444,0,0,0,.666.019c.94.053,1.848.063,2.788.066,22.142-.008,42.779-6.944,61.61-20.645.76-.518,1.489-1.083,2.218-1.645a144.7,144.7,0,0,0,20.357-18.968c.649-.692,1.256-1.41,1.9-2.139.327-.375.671-.774,1.009-1.172a332.1,332.1,0,0,0,23.715-31.7q2.519-3.8,4.969-7.634c15.853-25.1,29.181-51.792,42.219-77.906,8.8-17.634,17.8-35.626,27.6-53.171.692-1.233,1.394-2.487,2.113-3.728,6.495-11.459,13.365-22.7,20.747-33.485,15.726-22.934,43.73-50.948,76.1-63.764l.032-.008c1.03-.425,2.07-.816,3.131-1.191a100.919,100.919,0,0,1,15.821-4.364,86.207,86.207,0,0,1,14.047-1.463,18.839,18.839,0,0,1,2.107-.037c1.1-.024,2.207,0,3.3.053,32.45,1.172,60.227,20.489,86.561,42.969a.029.029,0,0,0,.016.037c.1.081.2.169.317.266.6.51,1.22,1.03,1.838,1.555,5.745,4.975,11.443,10.094,17.12,15.185,1.341,1.191,2.661,2.4,4,3.586q1.062.942,2.118,1.89c26.319,23.465,51.634,44.614,80.483,49.245,1.537.238,3.031.457,4.541.652.1.029.217.035.317.061.6.074,1.178.158,1.759.219.026.013.058,0,.084.016q4.247.523,8.338.866c1.114.1,2.229.159,3.322.209,50.314,3.1,83.905-16.819,119.46-41.618.464-.3.9-.612,1.346-.924q5.212-3.655,10.53-7.432c.877-.626,1.8-1.262,2.672-1.885.438-.317.892-.65,1.352-.951,27.808-19.655,58.959-40.941,100.919-54.1,2.308-.708,4.6-1.394,6.944-2.057,5.9-1.671,12.019-3.192,18.34-4.512Z"/><path class="db" d="M1402.26,174.685c-5.333,1.225-10.461,2.564-15.483,4.021-2.889.858-5.73,1.737-8.507,2.656-26.182,8.592-48.044,20.255-68.047,32.947-.829.538-1.658,1.074-2.477,1.589-11.036,7.121-21.556,14.533-31.948,21.865-.311.24-.655.488-.987.718-.106.085-.238.158-.344.248-.332.224-.665.449-.971.687-1.405.985-2.8,1.964-4.172,2.933-2.862,2.02-5.7,3.99-8.5,5.957q-1.854,1.256-3.681,2.529c-9.278,6.337-18.482,12.339-27.9,17.63-.306.177-.607.34-.908.52-2.234,1.252-4.478,2.434-6.717,3.6-.333.172-.655.341-.977.486-23.425,11.929-48.746,19.3-80.351,17.78-1.067-.04-2.128-.1-3.179-.161-2.725-.169-5.529-.412-8.354-.726-.116,0-.217-.034-.333-.04-.665-.076-1.3-.14-1.954-.238a.166.166,0,0,1-.111-.007q-2.05-.261-4.134-.547a87.065,87.065,0,0,1-13.06-2.886c-25.542-7.6-48.307-25.411-72.171-44.743-1.2-.967-2.4-1.959-3.622-2.936q-2.5-2.013-4.975-4.045c-4.715-3.81-9.473-7.618-14.252-11.322-.724-.549-1.447-1.1-2.192-1.661-24.919-19.074-51.112-35.182-81.122-36.666-1.114-.061-2.218-.09-3.316-.116a94.078,94.078,0,0,0-21.118,2.167,97.174,97.174,0,0,0-10.894,3.021c-1.051.359-2.1.71-3.152,1.119-23.2,8.584-47.046,25.987-67.165,49.206-4.737,5.529-9.168,11.25-13.181,17.006-4.964,7.2-9.711,14.6-14.29,22.1-.723,1.188-1.441,2.371-2.149,3.588-11.052,18.466-21.086,37.62-30.9,56.332-10.276,19.6-20.875,39.88-32.471,59-.449.752-.9,1.5-1.357,2.215-.275.494-.587.995-.882,1.473-.438.676-.861,1.378-1.268,2.057-.755,1.2-1.5,2.366-2.217,3.554-.455.689-.893,1.381-1.342,2.073a6.439,6.439,0,0,1-.433.67c-.681,1.064-1.362,2.12-2.027,3.161a.335.335,0,0,0-.027.042,353.768,353.768,0,0,1-27.433,37.094c-.607.718-1.252,1.447-1.88,2.155q-3.921,4.561-8,8.826-5.734,6.009-11.713,11.182c-.712.594-1.436,1.2-2.138,1.769a119.875,119.875,0,0,1-34.863,20.508,104.4,104.4,0,0,1-36.717,6.561c-1.13.019-2.244.013-3.364-.032-18-.525-36.785-5.412-56.239-14.64-3.95-1.88-7.879-3.9-11.8-6.091-25.242-14.111-50.484-35.035-73.629-61.175q-10.076-11.413-19.644-23.826c-.856-1.1-1.738-2.205-2.572-3.348-23.13-30.367-44.416-65.312-64.551-105.939-.724-1.431-1.432-2.854-2.171-4.266-1.093-2.2-2.207-4.357-3.342-6.49a529.246,529.246,0,0,0-35.323-58.167c-1.215-1.769-2.45-3.515-3.712-5.255a497.227,497.227,0,0,0-76.813-84.261q-7-6.171-14.353-12.143c-4.494-3.689-9.07-7.335-13.759-10.894-2.107-1.645-4.217-3.24-6.387-4.829.077-.344.132-.663.211-1.006,2.2,1.637,4.373,3.271,6.516,4.966q7.178,5.461,14.01,11.124c4.822,3.895,9.5,7.895,14.1,11.932q10.153,8.9,19.67,18.144a499.522,499.522,0,0,1,57.127,65.879c1.267,1.738,2.492,3.483,3.722,5.228a524.035,524.035,0,0,1,35.4,57.924c1.136,2.128,2.255,4.283,3.369,6.438.887,1.732,1.759,3.485,2.635,5.238,20.051,40.4,41.2,75.218,64.208,105.447.829,1.144,1.674,2.261,2.546,3.34q9.678,12.591,19.86,24.12c45.562,51.429,95.945,79.907,141.238,81.315,1.119.042,2.223.068,3.311.061a102.153,102.153,0,0,0,36.109-6.314,117.893,117.893,0,0,0,34.689-20.4c.7-.581,1.4-1.191,2.112-1.788A154.033,154.033,0,0,0,684.587,460.9c2.778-2.92,5.5-5.9,8.185-9.011.629-.708,1.268-1.436,1.875-2.152a345.088,345.088,0,0,0,26.451-35.7.085.085,0,0,0,.058-.056c.5-.726.967-1.46,1.442-2.2.8-1.227,1.568-2.445,2.366-3.7.681-1.061,1.352-2.157,2.038-3.242.539-.848,1.067-1.7,1.616-2.567.19-.338.375-.673.586-.992.3-.481.6-.962.892-1.442.412-.684.835-1.392,1.247-2.07,11.586-19.106,22.189-39.347,32.434-58.938,9.906-18.926,20.056-38.306,31.277-56.968.7-1.2,1.436-2.4,2.16-3.588,4.473-7.322,9.088-14.533,13.952-21.546,4.034-5.8,8.517-11.559,13.249-17.085,20.283-23.452,44.358-40.96,67.815-49.581,1.029-.422,2.08-.77,3.131-1.127a100.98,100.98,0,0,1,10.846-3,92.874,92.874,0,0,1,21.213-2.17c1.109.005,2.213.034,3.3.079,30.19,1.436,56.478,17.537,81.482,36.661.739.531,1.468,1.115,2.191,1.664,5.038,3.873,10.012,7.86,14.955,11.86,1.558,1.254,3.084,2.519,4.652,3.776,1.231,1.008,2.467,2,3.692,2.97,23.736,19.238,46.433,36.973,71.764,44.517a85.971,85.971,0,0,0,12.9,2.862c1.314.174,2.614.372,3.918.509a5.118,5.118,0,0,0,.586.066,12.135,12.135,0,0,0,1.384.156l.021.011a.1.1,0,0,0,.079.013c2.4.282,4.747.507,7.092.673,1.273.093,2.545.187,3.807.248.169,0,.328.035.481.029.311.024.607.016.913.04,31.4,1.433,56.562-5.967,79.892-17.891a10.7,10.7,0,0,0,.956-.5c2.26-1.143,4.5-2.365,6.727-3.62.3-.155.6-.337.9-.52,8.941-5.035,17.691-10.7,26.494-16.718,1.653-1.133,3.332-2.282,5.006-3.435.153-.116.343-.249.5-.367l.037-.008c4.32-3,8.671-6.094,13.08-9.213.053-.036.09-.042.111-.087.439-.317.882-.628,1.342-.929,10.218-7.224,20.864-14.709,32.254-21.991.581-.349,1.151-.74,1.732-1.088,19.771-12.5,41.839-24.31,67.852-32.973,2.445-.8,4.942-1.589,7.451-2.334q8.262-2.479,17.072-4.507Z"/><path class="dc" d="M1403.216,179.543c-5.128,1.281-10.081,2.685-14.918,4.185-1.23.407-2.466.776-3.665,1.194-29.619,9.7-54.016,23.414-76.459,38.155-.972.634-1.922,1.278-2.889,1.909-9.225,6.144-18.155,12.436-26.989,18.673-16.022,11.306-31.711,22.382-48.324,31.594a7.67,7.67,0,0,1-.924.483c-1.753.993-3.522,1.941-5.334,2.876-.459.237-.9.459-1.367.7a.394.394,0,0,0-.116.05,7.261,7.261,0,0,1-.861.433c-23.557,11.852-49.279,19.528-80.425,18.59-.058,0-.111,0-.169-.008a1.384,1.384,0,0,1-.38,0c-1.1-.026-2.229-.071-3.359-.145-2.661-.135-5.339-.338-8.074-.6-.676-.05-1.357-.14-2.059-.209-1.168-.121-2.356-.258-3.533-.411a93.988,93.988,0,0,1-13.133-2.548c-27.323-7.246-52.617-25.7-77.061-43.511-7.33-5.36-14.686-10.706-22.153-15.818-.734-.528-1.458-1.024-2.218-1.5-23.568-15.967-48.265-29.121-76.037-30.623a95.6,95.6,0,0,0-15.319.378,98.487,98.487,0,0,0-14.11,2.468c-1.98.481-3.966,1.043-5.962,1.669-1.061.317-2.112.668-3.158,1.019-1.589.528-3.184,1.109-4.773,1.748-.571.238-1.173.465-1.743.7-.037.013-.069.019-.085.04-22.733,9.378-45.91,26.8-65.422,49.562-4.843,5.674-9.3,11.385-13.223,17.041-2.477,3.527-4.869,7.129-7.219,10.754-.776,1.13-1.52,2.3-2.249,3.445-.322.473-.607.93-.882,1.426-4.272,6.635-8.338,13.392-12.315,20.191-7.6,12.961-14.775,26.118-21.851,39.04-9.389,17.223-19.058,34.9-29.482,51.862-.3.478-.607.98-.9,1.46q-3.684,5.969-7.494,11.778a405,405,0,0,1-28.167,38.249c-.618.739-1.225,1.454-1.869,2.183a256.9,256.9,0,0,1-19.433,20.455.22.22,0,0,1-.079.1c-.639.615-1.3,1.215-1.96,1.817-14.812,13.51-30.743,22.981-47.362,28.249a109.248,109.248,0,0,1-30.6,5.035c-1.14.042-2.26.034-3.384.053-19.687-.124-40.319-5.244-61.653-15.312-4.24-1.99-8.459-4.174-12.694-6.54-24.645-13.769-49.248-33.725-71.828-58.341q-10.394-11.326-20.268-23.673c-.248-.293-.486-.6-.723-.908-.634-.764-1.257-1.553-1.87-2.342-1.774-2.25-3.527-4.528-5.291-6.834C399,373.03,380.045,342.709,361.99,308.041c-1.447-2.783-2.915-5.513-4.388-8.243q-4.833-8.88-9.9-17.442a490.1,490.1,0,0,0-27.444-41.388c-1.236-1.687-2.5-3.366-3.76-5.009a458.551,458.551,0,0,0-84.267-85.174q-9.636-7.545-19.826-14.662c-.52-.386-1.035-.732-1.547-1.078-1.635-1.175-3.317-2.323-4.99-3.435.063-.375.139-.776.213-1.172,1.693,1.122,3.356,2.258,5.025,3.425.705.48,1.415.995,2.1,1.5q10.187,7.105,19.768,14.607,15.582,12.063,29.773,25.165a456.8,456.8,0,0,1,54.138,59.511c1.262,1.679,2.529,3.358,3.776,5.021a487.839,487.839,0,0,1,28.114,42.558q4.959,8.328,9.648,17.035,2.241,4.119,4.43,8.328c18.488,35.47,37.889,66.368,58.8,93.547,1.172,1.537,2.355,3.052,3.538,4.565.317.383.618.787.935,1.167.554.7,1.114,1.421,1.684,2.092q9.957,12.49,20.452,23.9c46.9,51.085,99.187,79.216,145.747,79.657,1.114.01,2.234.013,3.338-.016a105.912,105.912,0,0,0,30.026-4.8c16.549-5.244,32.428-14.723,47.156-28.191.623-.531,1.2-1.091,1.812-1.661a1.313,1.313,0,0,1,.242-.222,268.683,268.683,0,0,0,19.4-20.5c.6-.72,1.251-1.447,1.848-2.2a403.239,403.239,0,0,0,27.908-37.887c2.567-3.918,5.123-7.9,7.567-11.913.333-.491.629-.969.9-1.463,10.387-16.893,20.009-34.483,29.356-51.632,7.155-13.056,14.406-26.353,22.089-39.465,3.791-6.469,7.683-12.909,11.718-19.238.528-.882,1.082-1.724,1.647-2.579.708-1.162,1.479-2.321,2.229-3.456,2.249-3.449,4.53-6.85,6.881-10.211,3.976-5.692,8.433-11.456,13.3-17.12,21.566-25.168,47.626-43.861,72.694-52.4,1.05-.354,2.091-.708,3.157-1.027,1.96-.613,3.882-1.154,5.82-1.63a100.122,100.122,0,0,1,26.245-3.028c1.125.037,2.223.061,3.321.15,27.951,1.445,52.744,14.594,76.4,30.555.745.5,1.474,1,2.208,1.523,7.572,5.172,15.055,10.622,22.49,16.04,24.349,17.786,49.565,36.17,76.729,43.378a96.811,96.811,0,0,0,13.006,2.511c1.093.138,2.207.262,3.316.38.681.088,1.384.154,2.049.23,2.171.22,4.331.4,6.443.515,1.33.1,2.645.161,3.965.222l.022.013c.206-.005.375,0,.586,0,.676.056,1.341.074,2.017.069,30.665.847,55.653-6.559,78.936-18.337a3.779,3.779,0,0,0,.422-.23c.322-.151.645-.317.977-.489.016-.021.048-.029.058-.055,2.229-1.138,4.441-2.31,6.659-3.541.307-.179.6-.34.9-.52,16.106-9.027,31.616-19.94,47.864-31.441,8.835-6.239,17.717-12.508,26.942-18.641q1.95-1.291,3.908-2.574c22.343-14.623,46.682-28.191,76.232-37.815,1.167-.407,2.345-.777,3.544-1.138q7.121-2.238,14.648-4.106Z"/><path class="dd" d="M1404.156,184.391c-5.276,1.436-10.377,2.991-15.351,4.687-1.41.472-2.82.945-4.2,1.47-29.271,10.395-53.7,24.761-76.443,39.986-.845.557-1.69,1.119-2.54,1.7-8.042,5.442-15.9,10.963-23.694,16.454-16.022,11.307-31.727,22.372-48.229,31.735-.459.243-.929.509-1.362.765-.555.307-1.072.605-1.622.89-.306.18-.612.362-.9.526-2.244,1.217-4.478,2.373-6.738,3.527-.327.164-.649.312-.977.481-.586.317-1.193.6-1.8.906-.486.229-.977.483-1.495.723-22.728,10.942-47.394,18.031-76.564,17.727-.56.005-1.115,0-1.664-.021-3.643-.066-7.3-.253-11.063-.57-.707-.045-1.383-.1-2.08-.164-.956-.09-1.907-.179-2.873-.282a111.428,111.428,0,0,1-13.239-2.25c-27.808-6.485-53.456-23.2-78.286-39.373-39.785-25.936-81.006-52.825-132.762-38.5-37.82,10.326-67,39.594-81.064,56.139-4.636,5.4-9.051,11.142-13.18,17.009-.032.008-.059.052-.069.074l-.016.023c-.037.069-.084.1-.127.167q-6.1,8.717-11.855,17.748c-10.577,16.553-20.341,33.765-29.862,50.587-7.916,13.954-15.99,28.2-24.55,42.081-.3.484-.591.964-.893,1.442-5.655,9.133-11.533,18.108-17.722,26.768-6.495,9.1-12.768,17.323-18.952,24.806-.618.745-1.236,1.481-1.843,2.2a274.808,274.808,0,0,1-19.248,20.761c-.676.678-1.362,1.325-2.033,1.951-1.083,1.04-2.176,2.049-3.269,3.052-2.265,2.057-4.552,4.043-6.823,5.951-15.541,12.925-32.835,22.14-50.013,26.62-29.355,7.647-61.267,3.515-94.868-12.293a.685.685,0,0,0-.211-.087c-.322-.156-.655-.306-.966-.481-.956-.448-1.933-.9-2.868-1.4a.442.442,0,0,1-.169-.066c-3.11-1.534-6.236-3.2-9.352-4.938-24.022-13.418-47.964-32.389-70.069-55.561q-12.507-13.12-24.444-27.808-7.3-8.939-14.353-18.456a615.475,615.475,0,0,1-45.589-71.585,482.83,482.83,0,0,0-44.093-67.1c-4.31-5.494-8.7-10.83-13.245-16.013a409.571,409.571,0,0,0-89.193-76.9c-1.251-.813-2.511-1.608-3.773-2.4-1.442-.887-2.881-1.785-4.336-2.659q-7.608-4.689-15.546-9.069l1.1-.65q7.422,4.155,14.58,8.475c1.452.869,2.915,1.775,4.359,2.67q2.361,1.453,4.687,2.973a410.255,410.255,0,0,1,48.239,36.011,414.469,414.469,0,0,1,41.126,41.216c4.356,5.083,8.66,10.282,12.837,15.647q13.014,16.57,24.9,34.993c.19.285.385.57.57.879q9.663,15.061,18.657,31.481a619.388,619.388,0,0,0,45.535,71.466q7.193,9.707,14.659,18.8,11.739,14.416,24.059,27.354c15.113,15.826,43.6,42.451,78.82,60.194l.047.024c.988.494,2,1,3.021,1.481a3.813,3.813,0,0,0,.438.22c21.223,10.21,44.791,17.035,69.272,16.306.66-.013,1.289-.039,1.922-.074a114.539,114.539,0,0,0,23.99-3.611c17.041-4.447,34.2-13.583,49.613-26.438,3.427-2.876,6.822-5.888,10.207-9.112.676-.623,1.357-1.27,2.023-1.928a280.542,280.542,0,0,0,19.248-20.761c.618-.744,1.214-1.5,1.843-2.239,6.094-7.385,12.283-15.512,18.683-24.489,6.2-8.679,12.1-17.7,17.78-26.876.3-.475.607-.98.9-1.46,8.523-13.825,16.55-27.977,24.423-41.868,9.4-16.592,19.027-33.556,29.456-49.958q5.513-8.694,11.369-17.081c.359-.535.7-1.048,1.072-1.544.122-.169.233-.314.354-.481l.058-.111c4.056-5.732,8.407-11.3,12.927-16.6,14.116-16.634,43.5-46.053,81.54-56.458,36.938-10.226,68.5.324,97.967,16.621l.026.01c1.21.676,2.4,1.336,3.575,2.025,10.905,6.213,21.5,13.133,32.017,19.985,24.751,16.125,50.3,32.812,77.969,39.22a105.769,105.769,0,0,0,13.118,2.25c.919.1,1.811.184,2.7.272.691.068,1.372.118,2.059.153,3.749.33,7.409.522,11.015.6.724.021,1.437,0,2.139.016,28.3.232,52.353-6.556,74.506-17.049.506-.216,1-.473,1.489-.723,1.151-.534,2.291-1.1,3.416-1.68.349-.158.644-.317.972-.486,2.26-1.145,4.473-2.323,6.717-3.54.29-.159.6-.341.9-.52.037-.011.084-.045.153-.064.465-.243.908-.517,1.384-.787,16.861-9.449,32.888-20.758,49.221-32.267,7.974-5.627,16.022-11.3,24.275-16.864,1-.679,1.986-1.331,2.984-2.012,22.564-15.021,46.845-29.155,75.857-39.458l4.135-1.454q7.446-2.5,15.3-4.65Z"/><path class="de" d="M1405.117,189.254q-7.311,2.18-14.248,4.65c-1.293.481-2.582.937-3.86,1.429a300.362,300.362,0,0,0-41.611,19.435c-2.086,1.159-4.114,2.318-6.137,3.512-18.984,11.029-36.363,23.285-53.472,35.33-18.039,12.706-35.676,25.168-54.328,35.386-.258.148-.5.277-.787.415-.021.042-.057.052-.132.066-.4.25-.813.464-1.256.686-1.79.993-3.618,1.946-5.45,2.857-.333.172-.66.341-.982.486a196.9,196.9,0,0,1-33.67,13.378c-3.295.948-6.6,1.812-9.991,2.562-.486.137-.987.243-1.463.359a.341.341,0,0,0-.232.044,169.564,169.564,0,0,1-47.447,3.3c-.032.013-.058,0-.095.006-.65-.037-1.3-.077-1.98-.132-.729-.061-1.49-.127-2.24-.2-2.439-.211-4.921-.51-7.488-.916-1.89-.3-3.812-.631-5.835-1.027-23.657-4.758-45.694-16.038-66.959-28.131-1.727-.963-3.438-1.951-5.154-2.933-2.408-1.378-4.816-2.754-7.2-4.151-40.9-23.623-83.155-48.028-135.888-31.9-28.051,8.465-56.836,28.867-80.99,57.473-4.451,5.278-8.95,11.055-13.318,17.2-8.406,11.884-16.285,24.3-23.874,36.823-1.2,1.943-2.35,3.889-3.517,5.822q-6.051,10.119-11.892,20.116c-6.2,10.615-12.526,21.369-19.111,32.041-.3.48-.6.958-.9,1.46a480.958,480.958,0,0,1-28.3,41.432q-4.776,6.195-9.426,11.816c-3.089,3.8-6.152,7.382-9.2,10.794-4.024,4.57-8.011,8.811-11.961,12.776-3.19,3.185-6.379,6.2-9.558,9.007-4.885,4.42-9.78,8.383-14.68,12-15.79,11.636-33.327,19.655-50.658,23.254-24.249,5.035-48.065,2.194-70.207-4.914-1.22-.391-2.445-.787-3.654-1.188-4.389-1.519-8.713-3.2-12.922-5.025-1.009-.412-1.975-.837-2.936-1.286-.66-.277-1.326-.562-1.965-.892-.38-.159-.734-.322-1.082-.489q-7.945-3.687-15.436-7.889A282.684,282.684,0,0,1,469.2,492.8l-.063-.034c-.866-.66-1.737-1.326-2.593-2.009-6.321-4.824-12.087-9.664-17.257-14.2-6.479-5.713-11.971-10.983-16.344-15.369-30.966-31.13-58.98-68.19-83.213-110.163-25.511-44.157-54.106-79.96-87.5-108.817-4.182-3.667-8.48-7.184-12.858-10.606a343.9,343.9,0,0,0-36.923-25.274c-3.406-2.054-6.9-4.066-10.429-6.009-1.5-.8-2.973-1.629-4.473-2.411-.362-.2-.723-.4-1.088-.578q-9.632-5.116-19.734-9.735-10.595-4.858-21.772-9.225c.243-.272.494-.523.744-.76q11.277,4.446,21.99,9.375,10.122,4.694,19.749,9.8l.2.114c1.5.784,2.984,1.608,4.451,2.4,4.045,2.234,8.051,4.531,11.953,6.918A344.988,344.988,0,0,1,248.8,230.053c1.933,1.489,3.834,3.029,5.74,4.557,2.6,2.134,5.2,4.286,7.763,6.485,33.543,28.893,62.492,64.8,88.3,109.421,23.832,41.314,52.564,79.335,83.033,109.944,4.832,4.877,11.1,10.82,18.483,17.239,4.573,3.969,9.59,8.1,15.018,12.275.861.657,1.716,1.341,2.593,1.978.01.031.058.06.079.071a266.439,266.439,0,0,0,47.421,28.943,5.979,5.979,0,0,0,.56.262c.813.39,1.652.776,2.492,1.119.56.259,1.1.5,1.679.737q6.567,2.926,13.439,5.3c1.321.48,2.636.916,3.982,1.346,22.126,7.185,45.974,10.076,70.239,5.059,17.194-3.562,34.557-11.533,50.267-23.068,4.8-3.552,9.6-7.454,14.384-11.75,3.38-2.989,6.744-6.171,10.129-9.6,3.812-3.815,7.635-7.876,11.5-12.272,2.593-2.9,5.217-5.965,7.847-9.141.512-.6.988-1.185,1.473-1.8.032-.011.059-.056.085-.1,3.02-3.667,6.083-7.509,9.2-11.562a484.05,484.05,0,0,0,28.347-41.52c.322-.47.618-.953.9-1.446,6.527-10.578,12.816-21.3,19.006-31.859,4.092-6.944,8.222-14.017,12.441-21.038.971-1.64,1.964-3.253,2.957-4.88,7.6-12.541,15.515-25.025,23.937-36.933,4.394-6.125,8.9-11.926,13.382-17.215,24.28-28.769,53.218-49.295,81.438-57.81,53.172-16.27,95.65,8.267,136.681,32.019,2.408,1.373,4.821,2.786,7.24,4.2,1.52.845,3.057,1.735,4.583,2.587,21.377,12.151,43.466,23.5,67.207,28.265,2.3.465,4.521.856,6.691,1.186,2.2.317,4.346.575,6.474.768.7.066,1.41.114,2.123.153.571.085,1.12.1,1.679.148a3.615,3.615,0,0,0,.4.016,170.008,170.008,0,0,0,47.378-3.274l.016-.024,1.7-.369c3.512-.8,6.918-1.693,10.3-2.688a200,200,0,0,0,33.358-13.345c.333-.169.66-.338.966-.52,1.342-.66,2.672-1.357,4-2.057.46-.24.919-.483,1.357-.739.46-.243.908-.467,1.363-.7.311-.182.607-.341.913-.523,18.493-10.16,35.977-22.5,53.874-35.106,17.468-12.32,35.254-24.84,54.724-36.1l.01-.026c1.252-.711,2.493-1.4,3.744-2.113a305.867,305.867,0,0,1,42.584-20.011c1.346-.51,2.677-1,4.034-1.479q7.082-2.574,14.511-4.768Z"/><path class="df" d="M1406.062,194.128a293.63,293.63,0,0,0-49.343,21.266c-.491.251-.987.51-1.457.773-.391.222-.8.431-1.194.655-.834.444-1.684.914-2.487,1.4-1.04.538-2.028,1.1-3,1.674-1.368.768-2.677,1.536-4,2.321-.771.428-1.515.863-2.223,1.291-.095.063-.19.129-.28.193-18.361,10.912-35.38,22.95-52.115,34.739q-4.522,3.207-9.025,6.363c-.438.317-.9.62-1.341.929-.475.322-.94.684-1.415,1-.09.069-.2.156-.3.219-.179.106-.364.235-.523.351-.079.045-.142.1-.222.146-14.791,10.313-29.54,20.182-44.922,28.555a7.489,7.489,0,0,1-.908.52c-2.24,1.22-4.452,2.39-6.734,3.525a8.562,8.562,0,0,1-.966.462,195.414,195.414,0,0,1-43.639,16.159c-.555.161-1.125.285-1.69.4a174.4,174.4,0,0,1-51.408,3.649c-.48-.037-.982-.085-1.457-.14-2.963-.219-5.968-.576-9-1.035-.95-.143-1.922-.3-2.893-.462-24.006-4.132-46.265-14.129-67.778-24.827-1.1-.558-2.213-1.093-3.311-1.645-2.133-1.078-4.267-2.155-6.369-3.235-.919-.457-1.806-.924-2.7-1.368-.159-.087-.349-.163-.507-.25-1.585-.8-3.153-1.619-4.737-2.414-5.481-2.769-10.905-5.476-16.36-8.082-15.1-7.234-30.226-13.576-45.952-17.423-3.771-.927-7.6-1.719-11.454-2.34q-4.206-.681-8.5-1.048c-1.3-.137-2.624-.259-3.939-.319a124.956,124.956,0,0,0-47.8,6.545c-14.7,4.9-29.571,12.935-43.835,23.576q-5.877,4.34-11.554,9.3a229.93,229.93,0,0,0-25.5,26c-4.457,5.3-8.824,10.95-13.339,17.247-5.761,8.04-11.291,16.359-16.666,24.764-3.047,4.765-6.01,9.547-8.962,14.342q-5.725,9.315-11.279,18.567c-4.341,7.187-8.719,14.443-13.2,21.672-.3.478-.607.982-.908,1.463-12.024,19.306-24.746,38.443-39.209,55.8-14.337,17.183-33.823,38.9-57.518,54.093-16.079,10.3-33.822,17.17-51.275,19.826-20.135,3.1-41.353,1.386-63.353-5.064-1.151-.317-2.307-.668-3.448-1.04q-6.36-1.969-12.779-4.494c-1.262-.476-2.54-.983-3.8-1.511-.507-.2-.983-.4-1.479-.618-.528-.2-1.045-.438-1.6-.66-2.249-.963-4.531-2-6.812-3.073q-7.794-3.651-15.6-8.016a295.07,295.07,0,0,1-31.727-20.613c-.876-.637-1.758-1.273-2.624-1.933q-11.961-9.066-23.558-19.462c-.813-.75-1.621-1.466-2.418-2.2a.805.805,0,0,1-.127-.129c-1.964-1.806-3.939-3.641-5.872-5.481q-6.867-6.579-13.571-13.553A526.058,526.058,0,0,1,343.581,372.5q-6.321-10.324-12.827-19.932c-1.335-1.978-2.656-3.923-4.008-5.822-22.205-31.821-46.306-57.818-73.2-78.727q-2.765-2.158-5.561-4.256a299.761,299.761,0,0,0-48.514-29.2c-1.642-.8-3.3-1.576-4.961-2.329q-6.2-2.891-12.621-5.465c-2.41-1-4.871-1.959-7.324-2.891-7.95-3.026-16.085-5.786-24.484-8.27q-7.818-2.349-15.932-4.375a6.885,6.885,0,0,1,.309-.974c5.442,1.362,10.778,2.812,16.035,4.4,8.362,2.5,16.476,5.239,24.4,8.259q3.783,1.446,7.509,2.986c4.124,1.659,8.2,3.414,12.2,5.263,1.666.752,3.3,1.52,4.941,2.318a297.916,297.916,0,0,1,48.87,29.4c1.9,1.389,3.8,2.833,5.687,4.3,26.8,20.806,50.811,46.657,72.953,78.233,1.346,1.9,2.7,3.855,4.013,5.8q6.8,10.012,13.387,20.769A523.466,523.466,0,0,0,414.385,462.4q5.94,6.1,11.966,11.894c1.97,1.888,3.966,3.744,5.951,5.558.645.626,1.331,1.244,2,1.851a4.539,4.539,0,0,1,.381.359c7.773,6.989,15.652,13.508,23.557,19.46.876.694,1.753,1.333,2.635,1.969a267.8,267.8,0,0,0,53.757,31.338c.3.14.629.294.951.412.707.309,1.431.594,2.117.888.766.311,1.511.61,2.266.884l.026.01q6.884,2.757,13.719,4.914c1.231.391,2.43.763,3.66,1.133,21.984,6.434,43.4,8.317,63.363,5.27,17.321-2.638,34.916-9.45,50.9-19.689,23.557-15.116,42.995-36.74,57.274-53.871,14.485-17.342,27.2-36.521,39.2-55.888.3-.483.6-.967.9-1.444,4.436-7.161,8.787-14.372,13.091-21.495,3.907-6.459,7.857-13.015,11.918-19.534q4.372-7.181,8.935-14.244c5.2-8.143,10.54-16.191,16.127-23.972,4.531-6.316,8.92-11.958,13.387-17.276A226.066,226.066,0,0,1,838.509,294.5q5.259-4.6,10.762-8.69c14.443-10.891,29.582-19.1,44.553-24.053a124.832,124.832,0,0,1,48.028-6.445c1.315.063,2.635.18,3.929.285,2.149.2,4.3.46,6.411.789,4.045.555,8.027,1.313,11.987,2.229,16.8,3.863,32.772,10.495,48.339,17.931q7.945,3.786,15.742,7.77c1.827.935,3.676,1.848,5.5,2.78l.068.037c1.035.521,2.07,1.038,3.084,1.579,1.822.9,3.654,1.833,5.487,2.77,1.109.531,2.234,1.1,3.332,1.655,21.572,10.763,43.914,20.812,67.947,24.952.713.134,1.447.248,2.165.33,3.707.628,7.388,1.038,10.973,1.307l.174.01a172.039,172.039,0,0,0,51.175-3.656c.555-.1,1.1-.238,1.68-.383a198.88,198.88,0,0,0,43.666-16.2c.332-.169.644-.317.95-.5,2.261-1.151,4.5-2.313,6.712-3.543a10.286,10.286,0,0,0,.935-.507c15.287-8.362,29.957-18.19,44.7-28.474.343-.251.67-.475,1.019-.723.19-.132.364-.235.554-.365.407-.3.824-.575,1.226-.876q4.895-3.39,9.785-6.881c16.613-11.733,33.5-23.644,51.666-34.52.417-.269.835-.5,1.278-.755a6.359,6.359,0,0,1,.607-.362c1.859-1.111,3.723-2.188,5.624-3.268,1.262-.734,2.535-1.437,3.808-2.136.718-.391,1.441-.782,2.159-1.178a1.66,1.66,0,0,1,.338-.19c.47-.264.972-.52,1.442-.782a303.939,303.939,0,0,1,38.306-17.4.9.9,0,0,1,.222-.082c3.564-1.333,7.208-2.59,10.9-3.786Z"/><path class="dg" d="M137.109,252.074c5.677.939,11.213,2.035,16.671,3.26a278.311,278.311,0,0,1,38,11.24c1.922.724,3.808,1.45,5.7,2.218a249.771,249.771,0,0,1,27.438,13.1l.019.008q3.54,1.889,6.954,3.976c32.994,19.673,62.064,47.415,89.461,84.724q2.026,2.768,4.039,5.608Q331.5,384.785,337.5,394a495.153,495.153,0,0,0,57.882,72.419c.755.808,1.531,1.624,2.313,2.39q10.122,10.455,20.668,20.046c1.326,1.2,2.693,2.445,4.125,3.717.807.716,1.647,1.418,2.476,2.149,6.918,6.036,14.913,12.566,23.816,19.1.866.66,1.743,1.3,2.656,1.93a311.539,311.539,0,0,0,31.31,20.112,254.665,254.665,0,0,0,29.08,13.988c.914.359,1.827.726,2.72,1.077.121.04.237.1.359.148,1.89.726,3.786,1.437,5.687,2.084,3.67,1.317,7.367,2.5,11.142,3.583,1.131.34,2.255.641,3.4.958,18.192,4.906,37.292,7.142,56.778,5.212,4-.415,8.032-1.009,12.1-1.824.523-.093,1.029-.214,1.568-.331.19-.037.391-.071.586-.108.248-.071.5-.1.739-.174a141.118,141.118,0,0,0,21.445-6.627c.687-.3,1.379-.581,2.076-.877a140.473,140.473,0,0,0,13.46-6.466c1.959-1.085,3.881-2.21,5.756-3.4.7-.4,1.368-.824,2.023-1.252,4.013-2.553,7.931-5.3,11.707-8.219q4.214-3.2,8.2-6.619c.36-.272.7-.576,1.051-.88a3.98,3.98,0,0,1,.481-.382,356.961,356.961,0,0,0,30.971-31.061c22.364-24.87,40.508-54.069,58.056-82.311,5.73-9.206,11.528-18.58,17.542-27.86,1.469-2.269,2.952-4.555,4.452-6.805,4.151-6.27,8.37-12.462,12.727-18.524,4.546-6.284,8.919-11.956,13.407-17.3a229.492,229.492,0,0,1,30.966-30.945c2.081-1.78,4.225-3.462,6.369-5.088,1.943-1.471,3.892-2.907,5.861-4.277,3.174-2.255,6.369-4.346,9.611-6.3,1.1-.708,2.208-1.381,3.353-2.006.851-.526,1.711-1.012,2.593-1.49a144.884,144.884,0,0,1,22.063-10.165,135.358,135.358,0,0,1,52.311-8.37c1.32.061,2.64.119,3.929.224,1.927.135,3.86.3,5.771.521q5.64.638,11.227,1.687l.021.013c1.563.311,3.142.639,4.711.985a9.367,9.367,0,0,1,1.151.261l.037-.01c15.076,3.43,29.651,8.866,44.246,15,.45.192.9.382,1.352.578,6,2.526,12.025,5.162,18.06,7.826q3.684,1.623,7.367,3.237c.5.219.993.435,1.489.654.518.228,1.03.457,1.563.671.586.267,1.167.536,1.743.766,21.688,9.392,44.236,18.136,68.549,21.611,4.842.7,9.241,1.136,13.476,1.357a179.457,179.457,0,0,0,50.969-4.391c.555-.155,1.125-.282,1.706-.425,36.379-8.9,67.387-28.5,98.559-50.24.142-.1.269-.177.38-.264.222-.137.422-.285.628-.438.143-.1.254-.185.38-.259.925-.658,1.843-1.294,2.767-1.954.428-.288.851-.581,1.263-.885.385-.28.765-.536,1.161-.821.333-.222.7-.459,1.041-.71,2.434-1.724,4.916-3.485,7.387-5.22,15.985-11.3,32.223-22.77,49.475-33.332,2.012-1.227,4-2.434,6.041-3.651,2.54-1.492,5.086-2.949,7.657-4.394.47-.264.94-.533,1.437-.784A305.914,305.914,0,0,1,1407,198.984l-.327-.953a308.727,308.727,0,0,0-48.128,21.886c-.492.251-.967.517-1.437.781-2.994,1.68-5.956,3.406-8.9,5.141-1.289.779-2.561,1.537-3.829,2.332-17.685,10.756-34.3,22.49-50.631,34.036-2.471,1.732-4.906,3.459-7.34,5.188-.333.225-.676.473-1.009.7-.628.443-1.262.887-1.885,1.328-.444.314-.914.636-1.357.947-.723.507-1.436.993-2.133,1.511l-.037.01c-.322.209-.629.441-.93.658a.174.174,0,0,0-.095.068c-31.151,21.7-62.085,41.277-98.326,50.193a17.367,17.367,0,0,1-1.7.4,176.126,176.126,0,0,1-50.806,4.418c-4.209-.206-8.581-.647-13.418-1.349-24.35-3.467-46.9-12.3-68.67-21.709-.4-.169-.787-.323-1.194-.489-.707-.309-1.42-.62-2.128-.924-.306-.145-.607-.283-.914-.425-2.534-1.093-5.032-2.2-7.535-3.3-4.225-1.858-8.423-3.709-12.61-5.518-.734-.322-1.468-.644-2.213-.943-2.3-.99-4.61-1.956-6.923-2.925l-.021-.013c-.3-.108-.576-.235-.892-.349A264.294,264.294,0,0,0,971.551,276.2c-1.151-.258-2.3-.517-3.438-.742-2.07-.451-4.14-.847-6.226-1.222-3.591-.623-7.25-1.133-10.931-1.489-1.257-.116-2.492-.217-3.744-.3-1.3-.082-2.587-.156-3.908-.217a135.737,135.737,0,0,0-52.59,8.452,147.127,147.127,0,0,0-21.82,10c-.866.494-1.748.964-2.6,1.489-.5.277-1,.589-1.484.874q-6.836,4.027-13.492,8.835c-2.208,1.589-4.425,3.237-6.569,4.974-.634.444-1.215.914-1.8,1.373a232.949,232.949,0,0,0-33.453,33.025c-4.5,5.368-8.9,11.029-13.434,17.345-4.273,5.922-8.439,12.011-12.5,18.179-1.647,2.461-3.247,4.916-4.853,7.406-5.972,9.215-11.728,18.522-17.426,27.663-17.516,28.193-35.65,57.374-57.982,82.175-9.664,10.768-20.558,22.266-32.788,32.569-3.8,3.229-7.715,6.339-11.776,9.239-2.366,1.708-4.763,3.368-7.224,4.929-.649.431-1.325.848-2.022,1.254-2,1.262-4.024,2.458-6.094,3.591a142.192,142.192,0,0,1-13.139,6.363c-.691.286-1.388.576-2.059.843a141.756,141.756,0,0,1-16.861,5.547c-1.775.48-3.539.9-5.313,1.294-.264.058-.565.121-.871.187-.428.087-.861.169-1.283.254a117.666,117.666,0,0,1-12.03,1.835c-19.459,1.943-38.591-.336-56.794-5.278-1.2-.317-2.392-.66-3.574-1.03-4.172-1.212-8.286-2.572-12.347-4.048-1.341-.483-2.693-.974-4.034-1.515-.417-.148-.845-.325-1.273-.513-.612-.219-1.22-.446-1.811-.71-22.364-9-42.753-21.4-59.984-33.875-.887-.621-1.763-1.257-2.635-1.917-8.887-6.556-16.882-13.086-23.81-19.1-.829-.729-1.658-1.457-2.466-2.17-1.41-1.262-2.767-2.464-4.067-3.657-7.039-6.4-13.978-13.133-20.758-20.1-.771-.782-1.537-1.563-2.3-2.371a496.72,496.72,0,0,1-57.644-72.2c-4.172-6.421-8.417-12.616-12.663-18.543-1.347-1.9-2.683-3.768-4.051-5.587-23.557-31.866-48.35-56.633-75.318-75.2-4.388-3.041-8.9-5.914-13.484-8.649-2.21-1.355-4.462-2.643-6.725-3.908a253.1,253.1,0,0,0-28.558-13.672c-1.9-.758-3.781-1.492-5.7-2.212a281.177,281.177,0,0,0-38.781-11.47q-8.067-1.823-16.468-3.208Z"/><path class="dh" d="M1407.958,203.834a319.319,319.319,0,0,0-46.829,22.462c-.475.264-.961.554-1.41.829-.328.169-.634.354-.946.533-.786.47-1.61.948-2.408,1.415-1.061.642-2.128,1.284-3.184,1.923-1.378.823-2.762,1.666-4.087,2.516-.729.412-1.426.871-2.139,1.3a1.346,1.346,0,0,0-.237.164c-16.508,10.326-32.218,21.45-47.68,32.394q-5.117,3.62-10.191,7.182c-.2.15-.407.3-.6.43l-.021-.011a.843.843,0,0,1-.2.151c-.359.272-.739.534-1.114.79-1.5,1.045-2.957,2.08-4.446,3.1-.338.253-.676.475-1,.7-31.768,22.06-63.358,41.865-99.937,51.235-.581.146-1.141.3-1.711.428a181.412,181.412,0,0,1-50.563,5.144c-4.61-.169-9.177-.515-13.592-1.041-24.635-2.8-47.368-10.36-69.3-18.469-1.108-.385-2.228-.805-3.311-1.236-2.08-.749-4.124-1.507-6.173-2.267-.765-.315-1.521-.589-2.3-.88-.438-.155-.845-.322-1.283-.483-1.584-.586-3.169-1.18-4.737-1.793-5.914-2.189-11.818-4.369-17.7-6.424a277.524,277.524,0,0,0-37.387-10.6c-1.262-.266-2.514-.5-3.807-.713a160.214,160.214,0,0,0-20.928-2.373c-1.32-.066-2.614-.111-3.934-.114-17.775-.351-36.474,2.548-56.794,10.448a147.719,147.719,0,0,0-17.141,7.889c-.38.2-.744.378-1.1.592-.528.261-1.014.546-1.521.824-1.141.625-2.265,1.264-3.4,1.924-3.089,1.835-6.115,3.729-9.035,5.688-1.061.7-2.07,1.4-3.089,2.123-1.009.7-2.017,1.4-3.01,2.115-.106.084-.211.169-.306.237a236.325,236.325,0,0,0-42.161,40.242c-4.494,5.457-8.988,11.295-13.4,17.357-1.066,1.484-2.144,2.944-3.195,4.447q-2.685,3.786-5.312,7.614c-8.349,12.154-16.328,24.688-24.1,36.9-18.82,29.525-38.269,60.058-62.851,85.424-7.361,7.643-15.065,15.277-23.171,22.419-.2.19-.38.351-.592.525-.433.41-.9.821-1.378,1.2-.238.213-.481.435-.776.654a189.737,189.737,0,0,1-19.069,14.6c-.649.433-1.315.884-2.012,1.286a130,130,0,0,1-15.779,8.824c-1.114.517-2.244,1.008-3.368,1.5-.7.314-1.395.6-2.086.892a141.76,141.76,0,0,1-22.148,7.063c-.723.183-1.425.343-2.122.486a134.742,134.742,0,0,1-22.9,3.084,170.88,170.88,0,0,1-50.231-5.553c-1.1-.29-2.223-.6-3.326-.889-5.788-1.585-11.5-3.422-17.052-5.474-1.066-.359-2.08-.747-3.1-1.141a277.456,277.456,0,0,1-36.547-17.194A349.966,349.966,0,0,1,442.388,527.1c-4.852-3.419-9.436-6.8-13.714-10.075q-6.978-5.359-12.89-10.35-1.29-1.078-2.519-2.115c-.744-.621-1.452-1.247-2.165-1.857-7.894-6.82-15.657-13.922-23.145-21.254-.792-.737-1.563-1.521-2.329-2.305-20.742-20.437-39.489-42.354-54.269-63.638-3.755-5.421-7.546-10.63-11.328-15.652-1.362-1.822-2.73-3.586-4.1-5.349C279.278,347.44,240.7,318.09,194.961,303.23c-1.908-.634-3.87-1.222-5.808-1.811.015-.343.053-.671.084-1.04,1.949.562,3.908,1.159,5.822,1.785a209.217,209.217,0,0,1,38.676,16.763c2.844,1.589,5.653,3.248,8.4,4.956,25.9,16.066,50.288,38.871,74.077,69.336,1.368,1.761,2.757,3.535,4.12,5.359q5.933,7.858,11.828,16.342c14.754,21.215,33.4,43.04,54.054,63.434.791.792,1.568,1.555,2.354,2.313,7.5,7.314,15.251,14.435,23.156,21.27.7.594,1.416,1.2,2.129,1.828.829.675,1.658,1.4,2.519,2.117,3.992,3.322,8.369,6.857,13.09,10.464,4.293,3.308,8.893,6.7,13.741,10.089,18.772,13.167,41.453,26.519,66.272,35.977,1.041.407,2.055.8,3.1,1.18,5.471,2,11.053,3.794,16.7,5.365,1.146.314,2.292.631,3.454.927a169.643,169.643,0,0,0,50.209,5.6,137.623,137.623,0,0,0,22.8-3.081l2.123-.488a141.288,141.288,0,0,0,22.136-7.09c.713-.277,1.4-.57,2.07-.871,1.083-.457,2.1-.914,3.132-1.394a132.836,132.836,0,0,0,16.042-8.975c.687-.436,1.363-.858,2-1.317a191.821,191.821,0,0,0,15.757-11.837c1.379-1.143,2.725-2.3,4.072-3.488.38-.317.76-.634,1.1-.974a9.283,9.283,0,0,0,.866-.753c7.916-7.012,15.4-14.5,22.623-21.965,24.539-25.273,43.935-55.777,62.745-85.278,8.053-12.673,16.349-25.677,25.03-38.261,1.806-2.608,3.6-5.188,5.445-7.744.713-1.016,1.425-2.03,2.149-3.01,4.415-6.057,8.924-11.916,13.45-17.381a237.433,237.433,0,0,1,41.57-39.809.232.232,0,0,1,.142-.1c.961-.726,1.965-1.46,2.952-2.176,1.737-1.23,3.512-2.447,5.312-3.617,3.09-2.062,6.306-4.027,9.6-5.922.7-.4,1.394-.808,2.075-1.191.8-.433,1.589-.848,2.382-1.257a.569.569,0,0,1,.248-.127,150.606,150.606,0,0,1,16.856-7.749c20.441-7.956,39.23-10.86,57.095-10.519,1.309.026,2.619.053,3.923.132a161.561,161.561,0,0,1,21.218,2.392c1.278.243,2.551.486,3.834.726a285.492,285.492,0,0,1,37.625,10.649c5.8,2.038,11.628,4.179,17.453,6.378,1.826.669,3.648,1.363,5.481,2.031.211.09.465.174.676.261.95.352,1.874.7,2.825,1.051,1.737.676,3.512,1.341,5.275,1.978,1.1.406,2.213.826,3.306,1.233,21.994,8.111,44.786,15.734,69.441,18.548,4.388.5,8.924.869,13.513,1.02a179.234,179.234,0,0,0,50.426-5.16,13.713,13.713,0,0,0,1.684-.441c36.453-9.3,68.01-29.091,99.716-51.149.348-.248.681-.475,1.019-.726,1.209-.85,2.434-1.671,3.644-2.519.4-.285.8-.586,1.188-.866.227-.14.443-.311.665-.451.385-.259.739-.528,1.12-.787,3.237-2.279,6.463-4.565,9.716-6.862,15.309-10.876,30.855-21.862,47.252-32.1.38-.259.75-.494,1.172-.726a5.166,5.166,0,0,1,.686-.439c1.833-1.18,3.692-2.294,5.561-3.424,1.32-.787,2.64-1.579,3.971-2.366.692-.406,1.4-.829,2.134-1.249a.193.193,0,0,1,.094-.063c.471-.267.956-.554,1.405-.829A324.387,324.387,0,0,1,1407.6,202.9Z"/><path class="di" d="M1408.9,208.685a338.812,338.812,0,0,0-45.551,23.053c-.47.266-.935.567-1.41.831-20.109,12.1-39.12,25.6-57.776,38.834q-9.8,6.963-19.518,13.767c-.364.233-.7.462-1.03.687-32.286,22.416-64.53,42.443-101.325,52.25-.56.161-1.1.3-1.7.464a188.388,188.388,0,0,1-63.848,5.128c-24.946-2.242-47.912-8.663-70.07-15.518-1.109-.327-2.213-.678-3.306-1.029q-3.731-1.149-7.414-2.316c-28.468-8.972-56.017-17.608-85.822-18.15-1.288-.016-2.593-.037-3.907-.007-19.175.105-39.331,3.717-61.3,12.818-4.182,1.751-8.269,3.644-12.193,5.677-.9.444-1.779.919-2.63,1.386-29.022,15.623-51.418,38.391-65.823,55.952q-6,7.362-11.734,15.052c-1.114,1.524-2.229,3.048-3.316,4.581-10.192,14.068-19.74,28.73-29.071,43.062-19.987,30.668-40.65,62.381-67.413,88.056-5.127,4.921-10.355,9.851-15.768,14.648-.65.578-1.3,1.159-1.97,1.727a228.524,228.524,0,0,1-19.781,15.607,6.083,6.083,0,0,1-.84.562c-.37.294-.75.552-1.162.822-2.8,1.9-5.676,3.738-8.612,5.415-3.4,1.98-6.865,3.813-10.456,5.449a.7.7,0,0,1-.391.167c-.539.285-1.125.544-1.711.805-1.558.687-3.131,1.339-4.742,1.965-1.383.52-2.783,1.035-4.209,1.531-4.224,1.46-8.618,2.741-13.122,3.81-.713.161-1.421.325-2.128.486a1.394,1.394,0,0,1-.3.066c-1.579.351-3.179.7-4.779.977a147.675,147.675,0,0,1-28.7,2.746c-22.005-.151-43.639-4.626-64.234-11.811-1.046-.327-2.1-.712-3.121-1.1-.327-.094-.644-.213-.94-.319-1.9-.708-3.792-1.415-5.666-2.168-.016.021-.016.021-.037.008a308.465,308.465,0,0,1-37.351-17.814,423.519,423.519,0,0,1-58.79-40.178c-.063-.035-.1-.085-.163-.122-3.47-2.793-6.855-5.624-10.229-8.481-5.307-4.5-10.472-9.088-15.5-13.719-.808-.715-1.621-1.465-2.4-2.223-19.728-18.316-37.1-37.263-50.419-55.109-3.5-4.727-7.024-9.252-10.525-13.619-1.378-1.738-2.783-3.438-4.177-5.1-39.283-47.5-78.714-73.6-126-82.468-2.278-.457-4.57-.827-6.9-1.183-4.984-.755-10.07-1.339-15.25-1.7-3.892-.293-7.813-.486-11.818-.579-.4-.018-.779-.021-1.194-.021-.631-.029-1.272-.034-1.927-.018a8.815,8.815,0,0,1-.61-1.019c.39-.016.8-.016,1.206,0,.584,0,1.2,0,1.78.023q7.185.1,14.055.684c5.051.381,9.964.948,14.783,1.7,2.276.338,4.5.726,6.733,1.148a177.116,177.116,0,0,1,52.58,18.829c.528.266,1.04.554,1.558.839,24.576,13.738,47.6,33.876,71.321,62.468,1.383,1.687,2.761,3.369,4.166,5.125q5.5,6.82,11.037,14.284c13.281,17.8,30.58,36.675,50.214,54.941.8.736,1.616,1.484,2.418,2.2q7.352,6.8,15.172,13.418c3.459,2.965,6.986,5.907,10.577,8.793.322.269.655.514.977.784,26.572,21.373,62.053,45.327,101.505,59.638,1.035.374,2.1.733,3.126,1.1,20.527,7.152,42.1,11.628,64.024,11.763a150.4,150.4,0,0,0,33.669-3.736c.708-.162,1.4-.338,2.1-.505,4.621-1.119,9.157-2.44,13.5-3.947,1.214-.438,2.434-.879,3.622-1.328q2.527-.975,4.953-2.083a12.512,12.512,0,0,0,1.178-.521c.317-.147.634-.293.929-.451a118.153,118.153,0,0,0,10.541-5.545c2.9-1.676,5.745-3.5,8.507-5.389a2.451,2.451,0,0,0,.37-.24c.554-.364,1.124-.75,1.647-1.167a225.731,225.731,0,0,0,19.787-15.668c.649-.578,1.294-1.159,1.943-1.737,5.233-4.634,10.324-9.432,15.277-14.187,26.652-25.59,47.31-57.24,67.255-87.879,9.342-14.358,18.921-29.065,29.149-43.159,1.189-1.66,2.4-3.3,3.628-4.971,3.723-4.975,7.509-9.857,11.417-14.644,14.517-17.7,37.139-40.725,66.484-56.406.845-.464,1.722-.918,2.619-1.359,3.845-1.994,7.826-3.858,11.914-5.542,22.094-9.175,42.345-12.793,61.6-12.909,1.315-.032,2.6-.016,3.913.008,29.942.5,57.6,9.2,86.213,18.194,2.355.729,4.678,1.466,7.055,2.208,1.1.351,2.2.7,3.311,1.027,22.189,6.9,45.208,13.384,70.2,15.591a186.14,186.14,0,0,0,63.654-5.149c.549-.131,1.13-.279,1.689-.44,36.664-9.791,68.855-29.815,101.094-52.2.343-.251.708-.486,1.019-.724,6.432-4.462,12.859-9.014,19.3-13.592,18.71-13.268,37.773-26.813,57.977-38.924.475-.269.935-.57,1.405-.834a341.8,341.8,0,0,1,45.556-23.058Z"/></g></svg>