<svg xmlns="http://www.w3.org/2000/svg" width="13.581" height="13.581" viewBox="0 0 13.581 13.581"><defs><style>.a{fill:#43365d;}</style></defs><g transform="translate(0 -2.358)"><g transform="translate(0 2.358)"><path class="a" d="M13.581,2.278A2.35,2.35,0,0,0,11.3,0H2.278A2.32,2.32,0,0,0,0,2.278V11.3a2.35,2.35,0,0,0,2.278,2.278H6.79V8.455H5.126V6.177H6.79V5.3A2.775,2.775,0,0,1,9.331,2.409h1.84V4.687H9.331c-.219,0-.438.263-.438.613v.92h2.278V8.5H8.893v5.082H11.3A2.35,2.35,0,0,0,13.581,11.3Zm0,0"/></g></g></svg>