<svg xmlns="http://www.w3.org/2000/svg" width="24.363" height="24.363" viewBox="0 0 24.363 24.363"><defs><style>.a{fill:#fff;}</style></defs><g transform="translate(0 -2.358)"><g transform="translate(0 2.358)"><path class="a" d="M24.363,4.087A4.216,4.216,0,0,0,20.276,0H4.087A4.161,4.161,0,0,0,0,4.087v16.19a4.216,4.216,0,0,0,4.087,4.087h8.095v-9.2H9.2V11.081h2.986V9.509c0-2.751,2.043-5.187,4.558-5.187h3.3V8.409h-3.3c-.393,0-.786.472-.786,1.1v1.65H20.04v4.087H15.954v9.116h4.322a4.216,4.216,0,0,0,4.087-4.087Zm0,0"/></g></g></svg>