<svg xmlns="http://www.w3.org/2000/svg" width="94" height="94" viewBox="0 0 94 94"><defs><style>.a{fill:#43365d;}</style></defs><path class="a" d="M89.452,0H4.548A4.554,4.554,0,0,0,0,4.548V69.742H15.161V68.226c0-5.714-2.485-12.5-3.032-13.929V49.026c1.73-2.412,8.86-14.293,9.085-45.992H72.786c.224,31.7,7.355,43.578,9.085,45.99V54.3c-.547,1.427-3.032,8.214-3.032,13.929V69.74H94V4.548A4.554,4.554,0,0,0,89.452,0ZM3.032,50.032H9.1v3.032H3.032Zm0,16.677V56.1H9.559A44.88,44.88,0,0,1,12.067,66.71ZM9.838,47H3.032V4.548A1.517,1.517,0,0,1,4.548,3.032H18.181C17.965,32.8,11.479,44.517,9.838,47Zm81.13,19.71H81.933A44.8,44.8,0,0,1,84.441,56.1h6.527Zm0-13.645H84.9V50.032h6.065Zm0-6.065h-6.8c-1.653-2.5-8.129-14.218-8.345-43.968H89.452a1.517,1.517,0,0,1,1.516,1.516Z"/><path class="a" d="M61.226,452.548A4.554,4.554,0,0,0,56.677,448h-9.1a4.554,4.554,0,0,0-4.548,4.548v1.516H40V457.1H64.258v-3.032H61.226Zm-3.032,1.516H46.065v-1.516a1.517,1.517,0,0,1,1.516-1.516h9.1a1.517,1.517,0,0,1,1.516,1.516Z" transform="translate(-32.419 -363.097)"/><path class="a" d="M205.226,452.548A4.554,4.554,0,0,0,200.677,448h-9.1a4.554,4.554,0,0,0-4.548,4.548v1.516H184V457.1h24.258v-3.032h-3.032Zm-3.032,1.516H190.064v-1.516a1.517,1.517,0,0,1,1.516-1.516h9.1a1.517,1.517,0,0,1,1.516,1.516Z" transform="translate(-149.129 -363.097)"/><path class="a" d="M349.226,452.548A4.554,4.554,0,0,0,344.677,448h-9.1a4.554,4.554,0,0,0-4.548,4.548v1.516H328V457.1h24.258v-3.032h-3.032Zm-3.032,1.516H334.065v-1.516a1.517,1.517,0,0,1,1.516-1.516h9.1a1.517,1.517,0,0,1,1.516,1.516Z" transform="translate(-265.839 -363.097)"/><path class="a" d="M61.226,388.548A4.554,4.554,0,0,0,56.677,384h-9.1a4.554,4.554,0,0,0-4.548,4.548v1.516H40V393.1H64.258v-3.032H61.226Zm-3.032,1.516H46.065v-1.516a1.517,1.517,0,0,1,1.516-1.516h9.1a1.517,1.517,0,0,1,1.516,1.516Z" transform="translate(-32.419 -311.226)"/><path class="a" d="M205.226,388.548A4.554,4.554,0,0,0,200.677,384h-9.1a4.554,4.554,0,0,0-4.548,4.548v1.516H184V393.1h24.258v-3.032h-3.032Zm-3.032,1.516H190.064v-1.516a1.517,1.517,0,0,1,1.516-1.516h9.1a1.517,1.517,0,0,1,1.516,1.516Z" transform="translate(-149.129 -311.226)"/><path class="a" d="M349.226,388.548A4.554,4.554,0,0,0,344.677,384h-9.1a4.554,4.554,0,0,0-4.548,4.548v1.516H328V393.1h24.258v-3.032h-3.032Zm-3.032,1.516H334.065v-1.516a1.517,1.517,0,0,1,1.516-1.516h9.1a1.517,1.517,0,0,1,1.516,1.516Z" transform="translate(-265.839 -311.226)"/><rect class="a" width="58" height="4" transform="translate(18 63)"/><path class="a" d="M178.452,85.226a21.226,21.226,0,1,0-21.226,21.226A21.249,21.249,0,0,0,178.452,85.226Zm-39.419,0a18.194,18.194,0,1,1,18.194,18.194A18.214,18.214,0,0,1,139.032,85.226Z" transform="translate(-110.226 -51.871)"/><path class="a" d="M208,113.864v23.55l19.623-11.774Zm3.032,5.358,10.7,6.418-10.7,6.418Z" transform="translate(-168.581 -92.285)"/><rect class="a" width="3" height="3" transform="translate(85 6)"/><rect class="a" width="3" height="9" transform="translate(85 12)"/><rect class="a" width="3" height="3" transform="translate(6 15)"/><rect class="a" width="3" height="10" transform="translate(6 21)"/></svg>