<svg xmlns="http://www.w3.org/2000/svg" width="109.327" height="109.327" viewBox="0 0 109.327 109.327"><defs><style>.a{fill:#43365d;}</style></defs><path class="a" d="M321.373,303.345V290.027l-5.1-1.3c-.035-.086-.071-.172-.108-.257l2.686-4.526-9.418-9.418-4.526,2.686-.257-.108-1.3-5.1H290.027l-1.3,5.1c-.086.035-.172.071-.257.108l-4.526-2.686-9.418,9.418,2.686,4.526c-.037.087-.072.173-.108.257l-5.1,1.3v13.318l5.1,1.3c.035.086.071.172.108.257l-2.686,4.526,9.418,9.418,4.526-2.686.257.108,1.3,5.1h13.318l1.3-5.1c.086-.035.172-.071.257-.108l4.526,2.686,9.418-9.418-2.686-4.526c.037-.087.072-.173.108-.257Zm-6.953,5.532-5.544,5.544-3.769-2.236-.848.405a17.608,17.608,0,0,1-1.681.7l-.888.315-1.082,4.245h-7.842l-1.082-4.245-.889-.315a16.669,16.669,0,0,1-1.681-.7l-.848-.405-3.769,2.236-5.544-5.544,2.236-3.769-.406-.848a17.662,17.662,0,0,1-.7-1.681l-.315-.888-4.247-1.082v-7.842l4.245-1.082.315-.889a16.669,16.669,0,0,1,.7-1.681l.405-.848-2.236-3.769,5.544-5.544,3.769,2.236.848-.406a17.662,17.662,0,0,1,1.681-.7l.888-.315,1.082-4.247h7.842l1.082,4.245.889.315a16.606,16.606,0,0,1,1.681.7l.848.406,3.769-2.236,5.544,5.544-2.236,3.769.406.848a17.67,17.67,0,0,1,.7,1.681l.315.888,4.247,1.082v7.842l-4.245,1.082-.315.889a16.613,16.613,0,0,1-.7,1.681l-.406.848Z" transform="translate(-212.047 -212.047)"/><path class="a" d="M334.107,320a14.107,14.107,0,1,0,14.107,14.107A14.123,14.123,0,0,0,334.107,320Zm0,24.687a10.58,10.58,0,1,1,10.58-10.58A10.59,10.59,0,0,1,334.107,344.687Z" transform="translate(-249.467 -249.467)"/><path class="a" d="M359.053,352a7.053,7.053,0,1,0,7.053,7.053A7.06,7.06,0,0,0,359.053,352Zm0,10.58a3.527,3.527,0,1,1,3.527-3.527A3.53,3.53,0,0,1,359.053,362.58Z" transform="translate(-274.413 -274.413)"/><path class="a" d="M163.154,29.857a10.6,10.6,0,0,0,2.953,4.457v1.5l-8.384,3.144A8.855,8.855,0,0,0,152,47.208v9.219h42.32V47.208a8.86,8.86,0,0,0-5.72-8.256l-8.386-3.144V34.315a10.575,10.575,0,0,0,2.953-4.457,7.051,7.051,0,0,0,5.864-6.934V15.87a15.87,15.87,0,1,0-31.74,0v7.053A7.051,7.051,0,0,0,163.154,29.857Zm13.533,6.685-3.527,5.877-3.527-5.877v-.129a10.381,10.381,0,0,0,7.053,0ZM167.113,39.2l3.555,5.923-3.532,1.765-2.282-6.842Zm23.68,8.011V52.9H155.527V47.208a5.314,5.314,0,0,1,3.433-4.953l2.593-.971,3.525,10.576,8.083-4.042,8.083,4.042,3.525-10.576,2.594.973A5.311,5.311,0,0,1,190.793,47.208Zm-9.328-7.164-2.282,6.843-3.532-1.765,3.555-5.925ZM173.16,33.5a7.06,7.06,0,0,1-7.053-7.053V19.277a13.65,13.65,0,0,0,7.053-2.815,13.635,13.635,0,0,0,7.053,2.815V26.45A7.06,7.06,0,0,1,173.16,33.5Zm10.58-7.543V19.888a3.5,3.5,0,0,1,0,6.072ZM173.16,3.527A12.358,12.358,0,0,1,185.5,15.87v.981a6.976,6.976,0,0,0-3.527-.981h-.3a10.2,10.2,0,0,1-7.267-3.01l-1.247-1.248-1.247,1.248a10.208,10.208,0,0,1-7.267,3.01h-.3a6.976,6.976,0,0,0-3.527.981V15.87A12.358,12.358,0,0,1,173.16,3.527Zm-10.58,16.36v6.072a3.5,3.5,0,0,1,0-6.072Z" transform="translate(-118.497)"/><path class="a" d="M0,333.847H35.267V288H0Zm3.527-42.32H31.74V330.32H3.527Z" transform="translate(0 -224.52)"/><path class="a" d="M32,320H53.16v3.527H32Z" transform="translate(-24.947 -249.467)"/><path class="a" d="M32,352h3.527v3.527H32Z" transform="translate(-24.947 -274.413)"/><path class="a" d="M64,352H78.107v3.527H64Z" transform="translate(-49.893 -274.413)"/><path class="a" d="M32,384H53.16v3.527H32Z" transform="translate(-24.947 -299.36)"/><path class="a" d="M32,416H53.16v3.527H32Z" transform="translate(-24.947 -324.307)"/><path class="a" d="M112,448h3.527v3.527H112Z" transform="translate(-87.313 -349.253)"/><path class="a" d="M32,448H46.107v3.527H32Z" transform="translate(-24.947 -349.253)"/><path class="a" d="M175.481,348.837l-2.493-2.493-8.3,8.3,8.3,8.3,2.493-2.493-4.043-4.043h13.377v-3.527H171.437Z" transform="translate(-128.387 -270.004)"/><path class="a" d="M75.527,86.171a1.766,1.766,0,0,1,1.763-1.763h8.086l-4.043,4.043,2.493,2.493,8.3-8.3-8.3-8.3-2.493,2.493,4.043,4.043H77.29A5.3,5.3,0,0,0,72,86.171v31.74h3.527Z" transform="translate(-56.13 -57.957)"/><path class="a" d="M346.58,109.29v22.193l-4.043-4.043-2.493,2.493,8.3,8.3,8.3-8.3-2.493-2.493-4.043,4.043V109.29a5.3,5.3,0,0,0-5.29-5.29H336v3.527h8.817A1.766,1.766,0,0,1,346.58,109.29Z" transform="translate(-261.94 -81.077)"/></svg>