<svg xmlns="http://www.w3.org/2000/svg" width="102.548" height="102.548" viewBox="0 0 102.548 102.548"><defs><style>.a{fill:#43365d;}</style></defs><path class="a" d="M0,424.27a8.279,8.279,0,0,0,8.27,8.27H44.658a8.279,8.279,0,0,0,8.27-8.27V416H0Zm3.308-4.962H49.62v4.962a4.968,4.968,0,0,1-4.962,4.962H8.27a4.968,4.968,0,0,1-4.962-4.962Z" transform="translate(0 -329.992)"/><rect class="a" width="3" height="17" transform="translate(50 65.548)"/><path class="a" d="M3.308,109.232H26.464v-3.308H3.308V104.27A4.968,4.968,0,0,1,8.27,99.308H26.464V96H8.27A8.279,8.279,0,0,0,0,104.27v54.582H3.308Z" transform="translate(0 -76.152)"/><rect class="a" width="17" height="3" transform="translate(18 92.548)"/><path class="a" d="M211.814,0H148.962A4.968,4.968,0,0,0,144,4.962V57.89a4.968,4.968,0,0,0,4.962,4.962h62.852a4.968,4.968,0,0,0,4.962-4.962V4.962A4.968,4.968,0,0,0,211.814,0ZM147.308,13.232h3.308V33.08h4.962V49.62h-8.27Zm13.232,16.54h-6.616V13.232h6.616Zm3.308,3.308V13.232h3.308V49.62h-8.27V33.08Zm49.62,24.81a1.655,1.655,0,0,1-1.654,1.654H148.962a1.655,1.655,0,0,1-1.654-1.654V52.928h66.16ZM178.734,33.08V49.62h-8.27V13.232h3.308V33.08Zm4.962-3.308H177.08V13.232H183.7ZM187,33.08V13.232h3.308V49.62h-8.27V33.08Zm14.886,0V49.62h-8.27V13.232h3.308V33.08Zm-1.654-3.308V13.232h6.616v16.54ZM213.468,49.62H205.2V33.08h4.962V13.232h3.308Zm0-39.7h-66.16V4.962a1.655,1.655,0,0,1,1.654-1.654h62.852a1.655,1.655,0,0,1,1.654,1.654Z" transform="translate(-114.228 0)"/><path class="a" d="M281.924,391.554a8.423,8.423,0,0,0-3.308-.668c-3.71,0-6.616,2.178-6.616,4.962s2.906,4.962,6.616,4.962,6.616-2.178,6.616-4.962v-16.54h6.616V376h-9.924Zm-3.308,5.948c-2.02,0-3.308-.979-3.308-1.654s1.288-1.654,3.308-1.654,3.308.979,3.308,1.654S280.636,397.5,278.616,397.5Z" transform="translate(-215.764 -298.262)"/><path class="a" d="M409.924,335.554a8.423,8.423,0,0,0-3.308-.668c-3.71,0-6.616,2.178-6.616,4.962s2.906,4.962,6.616,4.962,6.616-2.178,6.616-4.962v-16.54h6.616V320h-9.924Zm-3.308,5.948c-2.02,0-3.308-.979-3.308-1.654s1.288-1.654,3.308-1.654,3.308.979,3.308,1.654S408.636,341.5,406.616,341.5Z" transform="translate(-317.3 -253.84)"/></svg>