<svg xmlns="http://www.w3.org/2000/svg" width="83.844" height="91.466" viewBox="0 0 83.844 91.466"><defs><style>.a{fill:#43365d;}</style></defs><g transform="translate(-21.333)"><g transform="translate(21.333)"><path class="a" d="M76.594,9.528V1.906A1.906,1.906,0,0,0,74.688,0H59.444a1.906,1.906,0,0,0-1.906,1.906V12.813a33.891,33.891,0,0,0-7.011,2.908L42.812,8a1.906,1.906,0,0,0-2.694,0L29.336,18.785a1.906,1.906,0,0,0,0,2.694l7.717,7.715a33.93,33.93,0,0,0-2.908,7.011H23.239a1.906,1.906,0,0,0-1.906,1.906V53.355a1.906,1.906,0,0,0,1.906,1.906H34.146a33.885,33.885,0,0,0,2.906,7.011l-7.715,7.715a1.906,1.906,0,0,0,0,2.694L40.118,83.463a1.906,1.906,0,0,0,2.694,0l7.715-7.717a33.93,33.93,0,0,0,7.011,2.908V89.561a1.906,1.906,0,0,0,1.906,1.906H74.688a1.906,1.906,0,0,0,1.906-1.906V80.033H72.783v7.622H61.35V77.188a1.905,1.905,0,0,0-1.458-1.852,30.3,30.3,0,0,1-8.682-3.6,1.906,1.906,0,0,0-2.34.278l-7.4,7.4L33.38,71.334l7.4-7.4a1.905,1.905,0,0,0,.278-2.342,30.189,30.189,0,0,1-3.6-8.68,1.905,1.905,0,0,0-1.852-1.458H25.144V40.016H35.611a1.905,1.905,0,0,0,1.852-1.458,30.3,30.3,0,0,1,3.6-8.682,1.906,1.906,0,0,0-.278-2.34l-7.4-7.4,8.085-8.085,7.4,7.4a1.905,1.905,0,0,0,2.342.278,30.189,30.189,0,0,1,8.68-3.6,1.905,1.905,0,0,0,1.458-1.852V3.811H72.783V9.528Z" transform="translate(-21.333)"/></g><g transform="translate(84.216 83.844)"><path class="a" d="M380.956,469.333v3.811h-3.811v-3.811h-3.811v5.717a1.906,1.906,0,0,0,1.906,1.906h7.622a1.906,1.906,0,0,0,1.906-1.906v-5.717Z" transform="translate(-373.334 -469.333)"/></g><g transform="translate(74.688 51.45)"><path class="a" d="M348.583,288H321.906A1.906,1.906,0,0,0,320,289.906v7.622a1.906,1.906,0,0,0,1.906,1.906h3.811v20.961a1.906,1.906,0,0,0,1.906,1.906h15.244a1.906,1.906,0,0,0,1.906-1.906V299.433h3.811a1.906,1.906,0,0,0,1.906-1.906v-7.622A1.906,1.906,0,0,0,348.583,288Zm-1.906,7.622h-3.811a1.906,1.906,0,0,0-1.906,1.906v20.961H329.528V297.528a1.906,1.906,0,0,0-1.906-1.906h-3.811v-3.811h22.867Z" transform="translate(-320 -288)"/></g><g transform="translate(82.311 59.072)"><g transform="translate(0)"><rect class="a" width="9.527" height="3.811"/></g></g><g transform="translate(82.31)"><path class="a" d="M374.1,0h-7.622a3.811,3.811,0,0,0-3.811,3.811v7.622a3.811,3.811,0,0,0,1.906,3.3V53.355a1.906,1.906,0,0,0,1.906,1.906H374.1a1.906,1.906,0,0,0,1.906-1.906V14.732a3.811,3.811,0,0,0,1.905-3.3V3.811A3.811,3.811,0,0,0,374.1,0Zm0,11.433a1.906,1.906,0,0,0-1.906,1.906V51.45h-3.811V13.339a1.906,1.906,0,0,0-1.906-1.906V3.811H374.1Z" transform="translate(-362.667)"/></g><g transform="translate(88.028 66.693)"><rect class="a" width="3.811" height="3.811"/></g><g transform="translate(88.028 74.316)"><rect class="a" width="3.811" height="3.811"/></g><g transform="translate(49.916 28.583)"><g transform="translate(0)"><path class="a" d="M198.485,160a17.15,17.15,0,0,0,0,34.3v-3.811a13.339,13.339,0,1,1,8.718-23.438l2.49-2.881A17.149,17.149,0,0,0,198.485,160Z" transform="translate(-181.335 -160)"/></g></g><g transform="translate(59.444 38.111)"><g transform="translate(0)"><path class="a" d="M242.288,213.333a7.622,7.622,0,1,0,7.622,7.622A7.622,7.622,0,0,0,242.288,213.333Zm0,11.433a3.811,3.811,0,1,1,3.811-3.811A3.811,3.811,0,0,1,242.288,224.766Z" transform="translate(-234.666 -213.333)"/></g></g></g></svg>