<svg xmlns="http://www.w3.org/2000/svg" width="24.089" height="24.089" viewBox="0 0 24.089 24.089"><defs><style>.a{fill:#43365d;stroke:#fff;stroke-width:0.5px;}.b{fill:#fff8f5;}</style></defs><g transform="translate(0.25 0.25)"><path class="a" d="M11.795,0A11.795,11.795,0,1,1,0,11.795,11.795,11.795,0,0,1,11.795,0Z"/><g transform="translate(4.652 3.466)"><g transform="translate(0 0)"><path class="b" d="M253.778,317.031a1.206,1.206,0,0,0,.015-.206V305.073l.119.256a2.377,2.377,0,0,0,.477.673l3.3,3.3a1.234,1.234,0,0,0,1.579.173,1.192,1.192,0,0,0,.258-1.666,1.175,1.175,0,0,0-.1-.122l-5.959-5.959a1.192,1.192,0,0,0-1.686,0h0l-5.959,5.959a1.191,1.191,0,0,0,.119,1.788,1.233,1.233,0,0,0,1.579-.173l3.3-3.289a2.386,2.386,0,0,0,.435-.6l.161-.357v11.7a1.233,1.233,0,0,0,1,1.257A1.192,1.192,0,0,0,253.778,317.031Z" transform="translate(-245.467 -301.374)"/></g></g></g></svg>