<svg xmlns="http://www.w3.org/2000/svg" width="39.107" height="39.107" viewBox="0 0 39.107 39.107"><defs><style>.a{fill:#43365d;}</style></defs><path class="a" d="M1804.134,5579.523a19.554,19.554,0,1,0,19.554,19.554A19.554,19.554,0,0,0,1804.134,5579.523Zm9.043,24.236a1.584,1.584,0,0,1-2.191-.476l-5.267-8.192v13.37a1.585,1.585,0,1,1-3.171,0v-13.37l-5.266,8.192a1.587,1.587,0,0,1-1.336.729,1.586,1.586,0,0,1-1.332-2.442l8.185-12.733.013-.015a1.64,1.64,0,0,1,.116-.146c.029-.034.054-.071.085-.1s.069-.057.1-.086a1.559,1.559,0,0,1,.144-.115l.016-.013c.033-.021.069-.032.1-.051.052-.027.1-.057.155-.079s.107-.035.161-.051.086-.027.131-.037.114-.015.171-.02.089-.009.134-.011a1.5,1.5,0,0,1,.162.013,1.319,1.319,0,0,1,.145.016c.053.011.1.028.156.043a1.425,1.425,0,0,1,.138.044c.057.023.112.056.167.085.031.017.063.029.093.047l.016.013a1.774,1.774,0,0,1,.145.115c.034.029.071.056.1.086s.056.067.085.1a1.469,1.469,0,0,1,.116.147l.013.015,8.185,12.733A1.585,1.585,0,0,1,1813.177,5603.76Z" transform="translate(-1784.58 -5579.523)"/></svg>