<svg xmlns="http://www.w3.org/2000/svg" width="23.73" height="23.729" viewBox="0 0 23.73 23.729"><defs><style>.a{fill:#fff;}</style></defs><path class="a" d="M1796.445,5579.523a11.865,11.865,0,1,0,11.865,11.865A11.865,11.865,0,0,0,1796.445,5579.523Zm5.487,14.706a.961.961,0,0,1-1.329-.289l-3.2-4.971v8.112a.962.962,0,0,1-1.924,0v-8.112l-3.2,4.971a.962.962,0,0,1-1.619-1.04l4.967-7.726.008-.009a1.05,1.05,0,0,1,.07-.089c.018-.021.033-.043.051-.062s.042-.034.063-.052a.98.98,0,0,1,.087-.07l.01-.008c.02-.013.042-.019.062-.031s.062-.034.094-.048a1.013,1.013,0,0,1,.1-.031c.026-.007.052-.017.079-.022s.069-.009.1-.012.054-.006.082-.006a.947.947,0,0,1,.1.008.766.766,0,0,1,.088.01.918.918,0,0,1,.094.026.879.879,0,0,1,.084.026c.035.015.068.034.1.052s.039.018.056.028l.01.008c.031.021.059.046.088.07s.043.033.062.052.034.041.051.062a.886.886,0,0,1,.071.089l.008.009,4.967,7.726A.962.962,0,0,1,1801.932,5594.229Z" transform="translate(-1784.58 -5579.523)"/></svg>